<?xml version="1.0" encoding="UTF-8" standalone="no"?>
<svg width="127px" height="140px" viewBox="0 0 127 140" version="1.1" xmlns="http://www.w3.org/2000/svg" xmlns:xlink="http://www.w3.org/1999/xlink" xmlns:sketch="http://www.bohemiancoding.com/sketch/ns">
    <!-- Generator: Sketch 3.3.2 (12043) - http://www.bohemiancoding.com/sketch -->
    <title>Imported Layers Copy 4</title>
    <desc>Created with Sketch.</desc>
    <defs></defs>
    <g id="Главная-страница" stroke="none" stroke-width="1" fill="none" fill-rule="evenodd" sketch:type="MSPage">
        <g id="Main-(1920x1080)" sketch:type="MSArtboardGroup" transform="translate(-897.000000, -2434.000000)" fill="#FFFFFF">
            <g id="Block-4-ЛУЧШИЕ-ПРОЕКТЫ" sketch:type="MSLayerGroup" transform="translate(0.000000, 2024.000000)">
                <g id="Imported-Layers-Copy-4" transform="translate(897.000000, 410.000000)" sketch:type="MSShapeGroup">
                    <path d="M19.3570742,140 C15.8263354,140 12.2669283,139.008613 9.06512155,136.936402 C0.00289199673,131.057811 -2.71607864,118.71853 2.97082499,109.368569 L47.4868021,36.2227078 C53.1691791,26.8833579 65.129934,24.0592694 74.1861281,29.9348286 C83.2483577,35.8073561 85.9733638,48.1451209 80.2864601,57.4905344 L35.7750096,130.630332 C32.0873491,136.678702 25.7923738,140 19.3570742,140" id="Fill-1"></path>
                    <path d="M107.646619,140 C101.20219,140 94.9071404,136.678702 91.2284895,130.630332 L46.7165127,57.4905344 C41.0250152,48.1451209 43.7515623,35.8073561 52.8123902,29.9348286 C61.8641647,24.0592694 73.8295877,26.8833579 79.5180674,36.2227078 L124.027026,109.368569 C129.721542,118.71853 126.990468,131.057811 117.92964,136.936402 C114.733831,139.008613 111.168346,140 107.646619,140" id="Fill-2"></path>
                    <path d="M31.2852287,4.92267749 C33.1896087,1.95891988 36.5435686,-0.011926508 40.3736236,5.43211155e-05 L86.6780448,0.10638418 C92.5980503,0.121360216 97.3863796,4.85079252 97.3666056,10.6854563 C97.3559582,16.5096369 92.5417707,21.2196003 86.6278495,21.2121123 L40.3325547,21.1042848 C34.4049438,21.0908064 29.62422,16.3598765 29.6333464,10.5207199 C29.6424728,8.47199812 30.2448166,6.54757744 31.2852287,4.92267749" id="Fill-3"></path>
                </g>
            </g>
        </g>
    </g>
</svg>