<?xml version="1.0" encoding="UTF-8" standalone="no"?>
<svg width="79px" height="79px" viewBox="0 0 79 79" version="1.1" xmlns="http://www.w3.org/2000/svg" xmlns:xlink="http://www.w3.org/1999/xlink" xmlns:sketch="http://www.bohemiancoding.com/sketch/ns">
    <!-- Generator: Sketch 3.3.3 (12072) - http://www.bohemiancoding.com/sketch -->
    <title>Gear</title>
    <desc>Created with Sketch.</desc>
    <defs></defs>
    <g id="Page-1" stroke="none" stroke-width="1" fill="none" fill-rule="evenodd" sketch:type="MSPage">
        <g id="Artboard-1" sketch:type="MSArtboardGroup" transform="translate(-641.000000, -245.000000)" stroke-width="4" stroke="#FFFFFF">
            <g id="Oval-1-+-noun_16444_cc" sketch:type="MSLayerGroup" transform="translate(616.000000, 220.000000)">
                <g id="noun_16444_cc" transform="translate(27.000000, 27.000000)" sketch:type="MSShapeGroup">
                    <g id="Group">
                        <path d="M69.2209286,40.2853795 C69.2572768,39.9574554 69.302317,39.6224196 69.3228616,39.2873839 C69.4255848,37.7639196 69.4034598,36.1906741 69.2501652,34.5004821 L74.4155625,29.2323616 C74.7727232,28.8680893 74.9110045,28.3513125 74.7869464,27.8550804 C74.2772812,25.8741027 73.6151116,23.9357946 72.8130804,22.0851964 C72.2078036,20.7015938 71.5235089,19.3527589 70.7080446,17.9541429 C70.4378036,17.4950491 69.9502634,17.2184866 69.417683,17.2327098 L62.3653393,17.4002277 C60.9153616,15.6081027 59.3136696,13.9977188 57.5863393,12.6062143 L57.5207545,5.35711607 C57.5128527,4.83954911 57.2362902,4.36623214 56.7922098,4.11100446 C53.819558,2.3986875 50.6138036,1.08778125 47.2697679,0.213053571 C46.7522009,0.0747723214 46.2125089,0.235178571 45.8482366,0.613674107 L40.8795937,5.82253125 C40.566683,5.78618304 40.2608839,5.74983482 39.947183,5.72770982 C37.9219554,5.58942857 35.8382545,5.662125 33.7395402,5.94579911 L28.4872232,0.787513393 C28.1158393,0.423241071 27.5690357,0.284959821 27.0664821,0.430352679 C25.3984152,0.903669643 23.7951429,1.47970982 22.2945937,2.12765625 C20.7940446,2.77560268 19.2784821,3.56262054 17.7921562,4.45157143 C17.3401741,4.72102232 17.0707232,5.20935268 17.0849464,5.73403125 L17.2595759,13.3474018 C15.5836071,14.7973795 14.0538214,16.4290982 12.706567,18.2141116 L5.09477679,18.2907589 C4.56298661,18.2978705 4.07465625,18.5894464 3.82733036,19.0556518 C2.18138839,22.101 0.9495,25.3352009 0.16959375,28.672125 C0.0534375,29.1746786 0.205941964,29.6993571 0.585227679,30.0565179 L6.36301339,35.5719643 C6.26819196,37.4367857 6.34879018,39.3529688 6.59611607,41.2683616 L1.12412946,46.8565045 C0.752745536,47.235 0.614464286,47.7818036 0.76696875,48.2914688 C1.23317411,49.8512813 1.75074107,51.2783438 2.34100446,52.6485134 C3.14224554,54.492 4.10389286,56.3054598 5.20461161,58.032 C5.48117411,58.4618571 5.94026786,58.731308 6.47205804,58.7020714 L14.6172187,58.5132188 C15.6879107,59.6795223 16.8463125,60.7644375 18.0774107,61.7561116 L18.1501071,69.6602679 C18.1580089,70.1857366 18.441683,70.665375 18.9007768,70.9213929 C22.1571027,72.7356429 25.6615446,74.0615625 29.3042679,74.8699152 C29.4062009,74.8920402 29.5081339,74.8991518 29.6171786,74.8991518 C30.0106875,74.8991518 30.3899732,74.7395357 30.6736473,74.4479598 L36.1669687,68.6915089 C37.5655848,68.7578839 38.9863259,68.7286473 40.509,68.5974777 L46.1192679,74.1058125 C46.4835402,74.4629732 47.0232321,74.6083661 47.5186741,74.4700848 C49.3463571,73.9738527 51.1471741,73.3480313 52.8587009,72.6052634 C54.5789196,71.8624955 56.2612098,70.9735446 57.8715937,69.9755491 C58.3085625,69.705308 58.5709018,69.2177679 58.5637902,68.7081027 L58.3820491,61.1018438 C59.5910223,60.0667098 60.7201875,58.9383348 61.7553214,57.735683 L69.368692,57.6629866 C69.8791473,57.6550848 70.3524643,57.3856339 70.6148036,56.9494554 C72.515183,53.7365893 73.9367143,50.2756071 74.8406786,46.6613304 C74.9623661,46.1500848 74.8098616,45.611183 74.4305759,45.2540223 L69.2209286,40.2853795 Z M49.0450162,41.8982502 C47.8376221,44.9603068 45.5028519,47.3707104 42.4857369,48.6794971 C40.9193582,49.3563612 39.2718654,49.7 37.5843637,49.7 C32.6627119,49.7 28.2206198,46.7892102 26.2651127,42.2769653 C24.9513935,39.2549177 24.8954905,35.8996446 26.1083653,32.837588 C27.3163074,29.7755314 29.6505295,27.3651278 32.6725772,26.0563411 C34.2340233,25.3789289 35.880968,25.0352902 37.5690178,25.0352902 C42.4912176,25.0352902 46.9327617,27.9510126 48.8882687,32.4632575 C50.2025361,35.4803725 50.257891,38.8356456 49.0450162,41.8982502 L49.0450162,41.8982502 Z" id="Gear"></path>
                    </g>
                </g>
            </g>
        </g>
    </g>
</svg>