<?xml version="1.0" encoding="utf-8"?>
<!-- Generator: Adobe Illustrator 19.0.0, SVG Export Plug-In . SVG Version: 6.00 Build 0)  -->
<svg version="1.1" xmlns="http://www.w3.org/2000/svg" xmlns:xlink="http://www.w3.org/1999/xlink" x="0px" y="0px"
	 viewBox="0 0 816.3 624.3" enable-background="new 0 0 816.3 624.3" xml:space="preserve">
<g id="Слой_1">
	<g id="XMLID_25_">
		
			<path id="XMLID_482_" opacity="0.5" fill="#0000FF" fill-opacity="0.5" stroke="#0000FF" stroke-width="9" stroke-linecap="round" stroke-linejoin="round" stroke-miterlimit="10" d="
			M237.9,597.2c7.3,5.7,17.5,5.6,24.7-0.2l546.8-435.4c1.3-1,2.1-2.4,2.3-3.9L810,178c-0.3,3.5-2.1,6.8-4.8,9L264.1,615.8
			c-6.6,5.2-15.9,5.3-22.5,0.2c-44.2-33.8-125.2-95.3-125.2-95.3s-24.3-20.1-44.3-16.2c-14.7,2.9-17.8,10-25.8,10.2
			c0.5-0.1,1-0.2,1.5-0.4c12.4-4.1,15.4-25.7,6.6-48.1c-4.4-11.3-11-20.7-18-26.7"/>
		<g id="XMLID_427_" opacity="0.25">
			
				<path id="XMLID_481_" fill="#0000FF" stroke="#0000FF" stroke-width="2" stroke-linecap="round" stroke-linejoin="round" stroke-miterlimit="10" d="
				M48.6,426.5c4.6-3.4,9.3-6.7,13.9-10.1"/>
			
				<path id="XMLID_480_" fill="#0000FF" stroke="#0000FF" stroke-width="2" stroke-linecap="round" stroke-linejoin="round" stroke-miterlimit="10" d="
				M76.3,406.1"/>
			
				<path id="XMLID_479_" fill="#0000FF" stroke="#0000FF" stroke-width="2" stroke-linecap="round" stroke-linejoin="round" stroke-miterlimit="10" d="
				M95.9,457.5c3.8-2.8,7.7-5.6,11.5-8.4"/>
			
				<path id="XMLID_478_" fill="#0000FF" stroke="#0000FF" stroke-width="2" stroke-linecap="round" stroke-linejoin="round" stroke-miterlimit="10" d="
				M134,429.4c13.6-9.9,27.2-19.9,40.8-29.8"/>
			
				<path id="XMLID_477_" fill="#0000FF" stroke="#0000FF" stroke-width="2" stroke-linecap="round" stroke-linejoin="round" stroke-miterlimit="10" d="
				M112.8,379.5c7.3-5.1,14.5-10.4,21.4-15.9"/>
			
				<path id="XMLID_476_" fill="#0000FF" stroke="#0000FF" stroke-width="2" stroke-linecap="round" stroke-linejoin="round" stroke-miterlimit="10" d="
				M196.5,383.7c8.9-7.8,18.5-14.8,28.6-20.9"/>
			
				<path id="XMLID_475_" fill="#0000FF" stroke="#0000FF" stroke-width="2" stroke-linecap="round" stroke-linejoin="round" stroke-miterlimit="10" d="
				M281.9,401c8.8-6.1,17.4-12.6,25.6-19.6"/>
			
				<path id="XMLID_474_" fill="#0000FF" stroke="#0000FF" stroke-width="2" stroke-linecap="round" stroke-linejoin="round" stroke-miterlimit="10" d="
				M158.4,493.9c8.8-6.6,17.6-13.2,26.5-19.8"/>
			
				<path id="XMLID_473_" fill="#0000FF" stroke="#0000FF" stroke-width="2" stroke-linecap="round" stroke-linejoin="round" stroke-miterlimit="10" d="
				M202.8,460.5"/>
			
				<path id="XMLID_472_" fill="#0000FF" stroke="#0000FF" stroke-width="2" stroke-linecap="round" stroke-linejoin="round" stroke-miterlimit="10" d="
				M218,449.1c4.1-3.1,8.2-6.1,12.3-9.2"/>
			
				<path id="XMLID_471_" fill="#0000FF" stroke="#0000FF" stroke-width="2" stroke-linecap="round" stroke-linejoin="round" stroke-miterlimit="10" d="
				M329.3,433.7c3.7-2.8,7.3-5.6,11-8.4"/>
			
				<path id="XMLID_470_" fill="#0000FF" stroke="#0000FF" stroke-width="2" stroke-linecap="round" stroke-linejoin="round" stroke-miterlimit="10" d="
				M338.1,358.6c4.6-3.5,9.3-7.1,13.9-10.6"/>
			
				<path id="XMLID_469_" fill="#0000FF" stroke="#0000FF" stroke-width="2" stroke-linecap="round" stroke-linejoin="round" stroke-miterlimit="10" d="
				M254.4,341.4c4.7-3.5,9.5-7,14.2-10.5"/>
			
				<path id="XMLID_468_" fill="#0000FF" stroke="#0000FF" stroke-width="2" stroke-linecap="round" stroke-linejoin="round" stroke-miterlimit="10" d="
				M155.1,348.2c5.3-3.4,10.4-7.2,15.2-11.2"/>
			
				<path id="XMLID_467_" fill="#0000FF" stroke="#0000FF" stroke-width="2" stroke-linecap="round" stroke-linejoin="round" stroke-miterlimit="10" d="
				M180.6,329.5c3.8-2.5,7.4-5.2,10.9-8.1"/>
			
				<path id="XMLID_466_" fill="#0000FF" stroke="#0000FF" stroke-width="2" stroke-linecap="round" stroke-linejoin="round" stroke-miterlimit="10" d="
				M227.3,295.1c2-1.5,4-3,6-4.5"/>
			
				<path id="XMLID_465_" fill="#0000FF" stroke="#0000FF" stroke-width="2" stroke-linecap="round" stroke-linejoin="round" stroke-miterlimit="10" d="
				M268.6,264.9c5.7-3.9,11.2-8.1,16.5-12.4"/>
			
				<path id="XMLID_464_" fill="#0000FF" stroke="#0000FF" stroke-width="2" stroke-linecap="round" stroke-linejoin="round" stroke-miterlimit="10" d="
				M314.7,230.6c5.5-4,11-8,16.5-12.1"/>
			
				<path id="XMLID_463_" fill="#0000FF" stroke="#0000FF" stroke-width="2" stroke-linecap="round" stroke-linejoin="round" stroke-miterlimit="10" d="
				M322.1,291c21.4-15.5,42.7-30.9,64.1-46.4"/>
			
				<path id="XMLID_462_" fill="#0000FF" stroke="#0000FF" stroke-width="2" stroke-linecap="round" stroke-linejoin="round" stroke-miterlimit="10" d="
				M405.7,307.6c6.5-4.9,13-9.8,19.6-14.7"/>
			
				<path id="XMLID_461_" fill="#0000FF" stroke="#0000FF" stroke-width="2" stroke-linecap="round" stroke-linejoin="round" stroke-miterlimit="10" d="
				M467.1,261.4c2.6-2,5.2-4,7.8-6.1"/>
			
				<path id="XMLID_460_" fill="#0000FF" stroke="#0000FF" stroke-width="2" stroke-linecap="round" stroke-linejoin="round" stroke-miterlimit="10" d="
				M368.2,191.1c7.5-4.9,14.7-10.1,21.7-15.7"/>
			
				<path id="XMLID_459_" fill="#0000FF" stroke="#0000FF" stroke-width="2" stroke-linecap="round" stroke-linejoin="round" stroke-miterlimit="10" d="
				M409.3,160.9c2.2-1,4.2-2.4,5.8-4.2"/>
			
				<path id="XMLID_458_" fill="#0000FF" stroke="#0000FF" stroke-width="2" stroke-linecap="round" stroke-linejoin="round" stroke-miterlimit="10" d="
				M408.8,227.4c9-6.4,18-12.8,27.1-19.2"/>
			
				<path id="XMLID_457_" fill="#0000FF" stroke="#0000FF" stroke-width="2" stroke-linecap="round" stroke-linejoin="round" stroke-miterlimit="10" d="
				M441.3,137.1c7.2-4.6,14.1-9.7,20.7-15"/>
			
				<path id="XMLID_456_" fill="#0000FF" stroke="#0000FF" stroke-width="2" stroke-linecap="round" stroke-linejoin="round" stroke-miterlimit="10" d="
				M499.3,94.7c3.3-2.2,6.6-4.6,9.6-7.2"/>
			
				<path id="XMLID_455_" fill="#0000FF" stroke="#0000FF" stroke-width="2" stroke-linecap="round" stroke-linejoin="round" stroke-miterlimit="10" d="
				M525.8,75"/>
			
				<path id="XMLID_454_" fill="#0000FF" stroke="#0000FF" stroke-width="2" stroke-linecap="round" stroke-linejoin="round" stroke-miterlimit="10" d="
				M517.1,224.2c18.6-14,37.3-28.1,55.9-42.1"/>
			
				<path id="XMLID_453_" fill="#0000FF" stroke="#0000FF" stroke-width="2" stroke-linecap="round" stroke-linejoin="round" stroke-miterlimit="10" d="
				M603.2,159.1c5.1-3.9,10.2-7.8,15.3-11.7"/>
			
				<path id="XMLID_452_" fill="#0000FF" stroke="#0000FF" stroke-width="2" stroke-linecap="round" stroke-linejoin="round" stroke-miterlimit="10" d="
				M522,144.7c3.9-2.7,7.7-5.5,11.4-8.3"/>
			
				<path id="XMLID_451_" fill="#0000FF" stroke="#0000FF" stroke-width="2" stroke-linecap="round" stroke-linejoin="round" stroke-miterlimit="10" d="
				M472.1,181c3.4-2.5,6.9-5,10.3-7.5"/>
			
				<path id="XMLID_450_" fill="#0000FF" stroke="#0000FF" stroke-width="2" stroke-linecap="round" stroke-linejoin="round" stroke-miterlimit="10" d="
				M253.2,422.4c2.1-1.6,4.1-3.1,6.2-4.7"/>
			
				<path id="XMLID_449_" fill="#0000FF" stroke="#0000FF" stroke-width="2" stroke-linecap="round" stroke-linejoin="round" stroke-miterlimit="10" d="
				M367.7,336.1"/>
			
				<path id="XMLID_448_" fill="#0000FF" stroke="#0000FF" stroke-width="2" stroke-linecap="round" stroke-linejoin="round" stroke-miterlimit="10" d="
				M298.9,308.4c2.2-1.7,4.5-3.3,6.7-5"/>
			
				<path id="XMLID_447_" fill="#0000FF" stroke="#0000FF" stroke-width="2" stroke-linecap="round" stroke-linejoin="round" stroke-miterlimit="10" d="
				M563.2,114.3c7-5.1,13.9-10.2,20.9-15.4"/>
			
				<path id="XMLID_446_" fill="#0000FF" stroke="#0000FF" stroke-width="2" stroke-linecap="round" stroke-linejoin="round" stroke-miterlimit="10" d="
				M604.2,84c5.7-3.7,11.2-7.8,16.4-12.3"/>
			
				<path id="XMLID_445_" fill="#0000FF" stroke="#0000FF" stroke-width="2" stroke-linecap="round" stroke-linejoin="round" stroke-miterlimit="10" d="
				M551.5,56.2c3.9-2.9,7.9-5.9,11.8-8.8"/>
			
				<path id="XMLID_444_" fill="#0000FF" stroke="#0000FF" stroke-width="2" stroke-linecap="round" stroke-linejoin="round" stroke-miterlimit="10" d="
				M204.4,528.5c6.3-4.9,12.7-9.8,19-14.7"/>
			
				<path id="XMLID_443_" fill="#0000FF" stroke="#0000FF" stroke-width="2" stroke-linecap="round" stroke-linejoin="round" stroke-miterlimit="10" d="
				M256.3,489.1"/>
			
				<path id="XMLID_442_" fill="#0000FF" stroke="#0000FF" stroke-width="2" stroke-linecap="round" stroke-linejoin="round" stroke-miterlimit="10" d="
				M237.7,503.1c1.2-0.9,2.3-1.8,3.5-2.7"/>
			
				<path id="XMLID_441_" fill="#0000FF" stroke="#0000FF" stroke-width="2" stroke-linecap="round" stroke-linejoin="round" stroke-miterlimit="10" d="
				M493.2,309c4.8-3.6,9.5-7.1,14.3-10.7"/>
			
				<path id="XMLID_440_" fill="#0000FF" stroke="#0000FF" stroke-width="2" stroke-linecap="round" stroke-linejoin="round" stroke-miterlimit="10" d="
				M275.1,475.2c11.5-8.9,23.1-17.7,34.6-26.6"/>
			
				<path id="XMLID_439_" fill="#0000FF" stroke="#0000FF" stroke-width="2" stroke-linecap="round" stroke-linejoin="round" stroke-miterlimit="10" d="
				M368.3,404c6.6-5,13.3-10,19.9-15.1"/>
			
				<path id="XMLID_438_" fill="#0000FF" stroke="#0000FF" stroke-width="2" stroke-linecap="round" stroke-linejoin="round" stroke-miterlimit="10" d="
				M422.2,363.3c12.2-9.4,24.4-18.8,36.7-28.1"/>
			
				<path id="XMLID_437_" fill="#0000FF" stroke="#0000FF" stroke-width="2" stroke-linecap="round" stroke-linejoin="round" stroke-miterlimit="10" d="
				M549.2,266.4c6.2-5,12.5-9.8,19-14.3"/>
			
				<path id="XMLID_436_" fill="#0000FF" stroke="#0000FF" stroke-width="2" stroke-linecap="round" stroke-linejoin="round" stroke-miterlimit="10" d="
				M620.7,212.4c2.2-1.7,4.4-3.3,6.6-5"/>
			
				<path id="XMLID_435_" fill="#0000FF" stroke="#0000FF" stroke-width="2" stroke-linecap="round" stroke-linejoin="round" stroke-miterlimit="10" d="
				M675.4,170.9"/>
			
				<path id="XMLID_434_" fill="#0000FF" stroke="#0000FF" stroke-width="2" stroke-linecap="round" stroke-linejoin="round" stroke-miterlimit="10" d="
				M636.7,133.4c2.4-1.8,4.8-3.7,7.2-5.5"/>
			
				<path id="XMLID_433_" fill="#0000FF" stroke="#0000FF" stroke-width="2" stroke-linecap="round" stroke-linejoin="round" stroke-miterlimit="10" d="
				M664.9,147.4c0.8-0.7,1.6-1.3,2.4-2"/>
			
				<path id="XMLID_432_" fill="#0000FF" stroke="#0000FF" stroke-width="2" stroke-linecap="round" stroke-linejoin="round" stroke-miterlimit="10" d="
				M382.3,325.4c2.6-2,5.2-4,7.7-5.9"/>
			
				<path id="XMLID_431_" fill="#0000FF" stroke="#0000FF" stroke-width="2" stroke-linecap="round" stroke-linejoin="round" stroke-miterlimit="10" d="
				M445.7,277.5"/>
			
				<path id="XMLID_430_" fill="#0000FF" stroke="#0000FF" stroke-width="2" stroke-linecap="round" stroke-linejoin="round" stroke-miterlimit="10" d="
				M491.9,242.6c1.9-1.4,3.7-2.9,5.6-4.3"/>
			
				<path id="XMLID_429_" fill="#0000FF" stroke="#0000FF" stroke-width="2" stroke-linecap="round" stroke-linejoin="round" stroke-miterlimit="10" d="
				M242.1,350.2"/>
			
				<path id="XMLID_428_" fill="#0000FF" stroke="#0000FF" stroke-width="2" stroke-linecap="round" stroke-linejoin="round" stroke-miterlimit="10" d="
				M214.6,304.4"/>
		</g>
		<g id="XMLID_422_">
			<g id="XMLID_423_">
				<path id="XMLID_352_" opacity="0.75" fill="#0000FF" d="M47.8,514.4c-0.5,0.2-1,0.3-1.5,0.4c-12.2,2.5-28.4-12-36.8-33.6
					c-8.8-22.5-5.8-44,6.6-48.1c0,0,0.1,0,0.1,0c6.1-2,13.4,0.6,20.3,6.5c7,6,13.6,15.4,18,26.7C63.2,488.7,60.2,510.2,47.8,514.4z"
					/>
				
					<path id="XMLID_351_" fill="none" stroke="#0000FF" stroke-width="9" stroke-linecap="round" stroke-linejoin="round" stroke-miterlimit="10" d="
					M47.8,514.4c-0.5,0.2-1,0.3-1.5,0.4c-12.2,2.5-28.4-12-36.8-33.6c-8.8-22.5-5.8-44,6.6-48.1c0,0,0.1,0,0.1,0
					c6.1-2,13.4,0.6,20.3,6.5c7,6,13.6,15.4,18,26.7C63.2,488.7,60.2,510.2,47.8,514.4z"/>
			</g>
		</g>
		<path id="XMLID_417_" opacity="0.5" fill="#0000FF" stroke="#0000FF" stroke-miterlimit="10" d="M50.4,468.7
			c6.2,14.8,5.3,28.9-2.1,31.5c-7.4,2.6-18.4-7.2-24.6-22c-6.2-14.8-5.3-28.9,2.1-31.5S44.2,454,50.4,468.7z"/>
		<g id="XMLID_308_" opacity="0.75">
			<g id="XMLID_413_">
				<path id="XMLID_348_" opacity="0.75" fill="#0000FF" d="M377.7,227.6l-25.8,19.3c-1.4,1.1-3.3,1-4.7-0.2
					c-5.6-4.9-9.3-8.2-11.6-10.2c-1-0.9-1.4-2.2-1.3-3.4l0,0l-0.8,7.1l0,0c-0.3,1.4,0.1,2.8,1.3,3.8c2.3,2.1,6,5.3,11.6,10.2
					c1.3,1.2,3.2,1.2,4.7,0.2l25.8-19.3c0.8-0.6,1.3-1.4,1.5-2.3l0,0l0.9-8l0,0C379.1,225.9,378.6,226.9,377.7,227.6z"/>
				
					<path id="XMLID_340_" fill="none" stroke="#0000FF" stroke-width="2" stroke-linecap="round" stroke-linejoin="round" stroke-miterlimit="10" d="
					M377.7,227.6l-25.8,19.3c-1.4,1.1-3.3,1-4.7-0.2c-5.6-4.9-9.3-8.2-11.6-10.2c-1-0.9-1.4-2.2-1.3-3.4l0,0l-0.8,7.1l0,0
					c-0.3,1.4,0.1,2.8,1.3,3.8c2.3,2.1,6,5.3,11.6,10.2c1.3,1.2,3.2,1.2,4.7,0.2l25.8-19.3c0.8-0.6,1.3-1.4,1.5-2.3l0,0l0.9-8l0,0
					C379.1,225.9,378.6,226.9,377.7,227.6z"/>
			</g>
			<g id="XMLID_409_">
				<path id="XMLID_338_" opacity="0.75" fill="#0000FF" d="M442.1,180.2l-25.6,19.1c-1.4,1.1-3.3,1-4.6-0.2
					c-5.6-4.9-9.2-8.1-11.5-10.1c-1-0.9-1.4-2.2-1.3-3.4l0,0l-0.8,7.1l0,0c-0.3,1.4,0.1,2.8,1.3,3.8c2.3,2,5.9,5.2,11.5,10.1
					c1.3,1.2,3.2,1.2,4.6,0.2l25.6-19.1c0.8-0.6,1.3-1.4,1.5-2.3l0,0l0.9-7.9l0,0C443.5,178.5,443,179.5,442.1,180.2z"/>
				
					<path id="XMLID_336_" fill="none" stroke="#0000FF" stroke-width="2" stroke-linecap="round" stroke-linejoin="round" stroke-miterlimit="10" d="
					M442.1,180.2l-25.6,19.1c-1.4,1.1-3.3,1-4.6-0.2c-5.6-4.9-9.2-8.1-11.5-10.1c-1-0.9-1.4-2.2-1.3-3.4l0,0l-0.8,7.1l0,0
					c-0.3,1.4,0.1,2.8,1.3,3.8c2.3,2,5.9,5.2,11.5,10.1c1.3,1.2,3.2,1.2,4.6,0.2l25.6-19.1c0.8-0.6,1.3-1.4,1.5-2.3l0,0l0.9-7.9l0,0
					C443.5,178.5,443,179.5,442.1,180.2z"/>
			</g>
			<g id="XMLID_405_">
				<path id="XMLID_334_" opacity="0.75" fill="#0000FF" d="M503.7,134.7l-25,18.6c-1.4,1-3.2,1-4.5-0.2c-5.4-4.8-9-7.9-11.2-9.8
					c-1-0.9-1.4-2.1-1.3-3.3l0,0l-0.8,6.9l0,0c-0.2,1.3,0.1,2.7,1.2,3.7c2.3,2,5.8,5.1,11.2,9.8c1.3,1.1,3.1,1.2,4.5,0.2l25-18.6
					c0.8-0.6,1.3-1.4,1.5-2.2l0,0l0.9-7.7l0,0C505.1,133.1,504.6,134,503.7,134.7z"/>
				
					<path id="XMLID_332_" fill="none" stroke="#0000FF" stroke-width="2" stroke-linecap="round" stroke-linejoin="round" stroke-miterlimit="10" d="
					M503.7,134.7l-25,18.6c-1.4,1-3.2,1-4.5-0.2c-5.4-4.8-9-7.9-11.2-9.8c-1-0.9-1.4-2.1-1.3-3.3l0,0l-0.8,6.9l0,0
					c-0.2,1.3,0.1,2.7,1.2,3.7c2.3,2,5.8,5.1,11.2,9.8c1.3,1.1,3.1,1.2,4.5,0.2l25-18.6c0.8-0.6,1.3-1.4,1.5-2.2l0,0l0.9-7.7l0,0
					C505.1,133.1,504.6,134,503.7,134.7z"/>
			</g>
			<g id="XMLID_401_">
				<path id="XMLID_330_" opacity="0.75" fill="#0000FF" d="M564.4,90.9l-24.1,17.5c-1.3,1-3.1,0.9-4.4-0.2
					c-5.3-4.5-8.7-7.5-10.9-9.4c-0.9-0.8-1.3-2-1.2-3.1l0,0l-0.8,6.5l0,0c-0.2,1.2,0.1,2.6,1.2,3.5c2.2,1.9,5.6,4.8,10.9,9.4
					c1.2,1.1,3,1.1,4.4,0.2l24.1-17.5c0.7-0.5,1.2-1.3,1.4-2.1l0,0l0.8-7.3l0,0C565.7,89.3,565.2,90.2,564.4,90.9z"/>
				
					<path id="XMLID_328_" fill="none" stroke="#0000FF" stroke-width="2" stroke-linecap="round" stroke-linejoin="round" stroke-miterlimit="10" d="
					M564.4,90.9l-24.1,17.5c-1.3,1-3.1,0.9-4.4-0.2c-5.3-4.5-8.7-7.5-10.9-9.4c-0.9-0.8-1.3-2-1.2-3.1l0,0l-0.8,6.5l0,0
					c-0.2,1.2,0.1,2.6,1.2,3.5c2.2,1.9,5.6,4.8,10.9,9.4c1.2,1.1,3,1.1,4.4,0.2l24.1-17.5c0.7-0.5,1.2-1.3,1.4-2.1l0,0l0.8-7.3l0,0
					C565.7,89.3,565.2,90.2,564.4,90.9z"/>
			</g>
			<g id="XMLID_397_">
				<path id="XMLID_323_" opacity="0.75" fill="#0000FF" d="M117.1,415.7L117.1,415.7L117.1,415.7
					C117.1,415.6,117.1,415.6,117.1,415.7z"/>
				
					<path id="XMLID_268_" fill="none" stroke="#0000FF" stroke-width="2" stroke-linecap="round" stroke-linejoin="round" stroke-miterlimit="10" d="
					M117.1,415.7L117.1,415.7L117.1,415.7C117.1,415.6,117.1,415.6,117.1,415.7z"/>
			</g>
			<g id="XMLID_393_">
				<path id="XMLID_266_" opacity="0.75" fill="#0000FF" d="M67.9,424.8L67.9,424.8l-0.1,0.6C67.8,425.1,67.8,424.9,67.9,424.8z"/>
				
					<path id="XMLID_265_" fill="none" stroke="#0000FF" stroke-width="2" stroke-linecap="round" stroke-linejoin="round" stroke-miterlimit="10" d="
					M67.9,424.8L67.9,424.8l-0.1,0.6C67.8,425.1,67.8,424.9,67.9,424.8z"/>
			</g>
			<g id="XMLID_389_">
				<path id="XMLID_263_" opacity="0.75" fill="#0000FF" d="M184,369.4l-27.6,20.2c-1.5,1.1-3.6,1.1-5.1-0.1
					c-6.2-5-10.2-8.3-12.8-10.4c-1.1-0.9-1.6-2.2-1.5-3.5l0,0l-0.7,7.4l0,0c-0.2,1.4,0.2,2.9,1.5,3.9c2.6,2.1,6.6,5.4,12.8,10.4
					c1.5,1.2,3.6,1.2,5.1,0.1l27.6-20.2c0.8-0.6,1.4-1.5,1.6-2.4l0,0l0.8-8.3l0,0C185.6,367.6,185,368.7,184,369.4z"/>
				
					<path id="XMLID_262_" fill="none" stroke="#0000FF" stroke-width="2" stroke-linecap="round" stroke-linejoin="round" stroke-miterlimit="10" d="
					M184,369.4l-27.6,20.2c-1.5,1.1-3.6,1.1-5.1-0.1c-6.2-5-10.2-8.3-12.8-10.4c-1.1-0.9-1.6-2.2-1.5-3.5l0,0l-0.7,7.4l0,0
					c-0.2,1.4,0.2,2.9,1.5,3.9c2.6,2.1,6.6,5.4,12.8,10.4c1.5,1.2,3.6,1.2,5.1,0.1l27.6-20.2c0.8-0.6,1.4-1.5,1.6-2.4l0,0l0.8-8.3
					l0,0C185.6,367.6,185,368.7,184,369.4z"/>
			</g>
			<g id="XMLID_385_">
				<path id="XMLID_260_" opacity="0.75" fill="#0000FF" d="M249.4,319.8l-27,20.2c-1.5,1.1-3.5,1.1-5-0.1c-6-5-10-8.3-12.5-10.3
					c-1.1-0.9-1.6-2.2-1.5-3.5l0,0l-0.7,7.3l0,0c-0.2,1.4,0.2,2.9,1.4,3.9c2.5,2.1,6.4,5.3,12.5,10.3c1.4,1.2,3.5,1.2,5,0.1l27-20.2
					c0.8-0.6,1.3-1.5,1.6-2.4l0,0l0.8-8.2l0,0C250.9,318,250.4,319.1,249.4,319.8z"/>
				
					<path id="XMLID_259_" fill="none" stroke="#0000FF" stroke-width="2" stroke-linecap="round" stroke-linejoin="round" stroke-miterlimit="10" d="
					M249.4,319.8l-27,20.2c-1.5,1.1-3.5,1.1-5-0.1c-6-5-10-8.3-12.5-10.3c-1.1-0.9-1.6-2.2-1.5-3.5l0,0l-0.7,7.3l0,0
					c-0.2,1.4,0.2,2.9,1.4,3.9c2.5,2.1,6.4,5.3,12.5,10.3c1.4,1.2,3.5,1.2,5,0.1l27-20.2c0.8-0.6,1.3-1.5,1.6-2.4l0,0l0.8-8.2l0,0
					C250.9,318,250.4,319.1,249.4,319.8z"/>
			</g>
			<g id="XMLID_381_">
				<path id="XMLID_257_" opacity="0.75" fill="#0000FF" d="M313.7,274l-26.3,19.5c-1.5,1.1-3.4,1-4.8-0.2c-5.7-5-9.4-8.3-11.8-10.4
					c-1-0.9-1.5-2.2-1.3-3.5l0,0l-0.8,7.2l0,0c-0.3,1.4,0.2,2.9,1.3,3.9c2.4,2.1,6.1,5.4,11.8,10.4c1.4,1.2,3.3,1.3,4.8,0.2
					l26.3-19.5c0.8-0.6,1.3-1.4,1.5-2.4l0,0l0.9-8.1l0,0C315.2,272.3,314.7,273.3,313.7,274z"/>
				
					<path id="XMLID_253_" fill="none" stroke="#0000FF" stroke-width="2" stroke-linecap="round" stroke-linejoin="round" stroke-miterlimit="10" d="
					M313.7,274l-26.3,19.5c-1.5,1.1-3.4,1-4.8-0.2c-5.7-5-9.4-8.3-11.8-10.4c-1-0.9-1.5-2.2-1.3-3.5l0,0l-0.8,7.2l0,0
					c-0.3,1.4,0.2,2.9,1.3,3.9c2.4,2.1,6.1,5.4,11.8,10.4c1.4,1.2,3.3,1.3,4.8,0.2l26.3-19.5c0.8-0.6,1.3-1.4,1.5-2.4l0,0l0.9-8.1
					l0,0C315.2,272.3,314.7,273.3,313.7,274z"/>
			</g>
			<g id="XMLID_377_">
				<path id="XMLID_251_" opacity="0.75" fill="#0000FF" d="M477.2,226.6c-0.1,1-0.5,2-1.4,2.7l-24.7,19c-1.4,1-3.2,1-4.6,0
					c-5.8-4.6-14.7-11.7-19.7-15.7c-1.1-0.9-1.5-2.2-1.3-3.4l0,0l-0.6,6.7c-0.4,1.4,0,2.9,1.2,3.9c5,4,13.9,11.1,19.7,15.7
					c1.3,1.1,3.2,1.1,4.6,0l24.7-19c0.8-0.6,1.3-1.5,1.4-2.5l0,0L477.2,226.6L477.2,226.6z"/>
				
					<path id="XMLID_250_" fill="none" stroke="#0000FF" stroke-width="2" stroke-linecap="round" stroke-linejoin="round" stroke-miterlimit="10" d="
					M477.2,226.6c-0.1,1-0.5,2-1.4,2.7l-24.7,19c-1.4,1-3.2,1-4.6,0c-5.8-4.6-14.7-11.7-19.7-15.7c-1.1-0.9-1.5-2.2-1.3-3.4l0,0
					l-0.6,6.7c-0.4,1.4,0,2.9,1.2,3.9c5,4,13.9,11.1,19.7,15.7c1.3,1.1,3.2,1.1,4.6,0l24.7-19c0.8-0.6,1.3-1.5,1.4-2.5l0,0
					L477.2,226.6L477.2,226.6z"/>
			</g>
			<g id="XMLID_373_">
				<path id="XMLID_248_" opacity="0.75" fill="#0000FF" d="M534.7,183c-0.1,1-0.5,2-1.4,2.6l-24.3,18.5c-1.3,1-3.2,1-4.5,0
					c-5.7-4.4-14.5-11.4-19.4-15.3c-1.1-0.8-1.5-2.1-1.3-3.3l0,0l-0.6,6.5c-0.4,1.3,0,2.8,1.2,3.8c4.9,3.9,13.7,10.8,19.4,15.3
					c1.3,1,3.2,1,4.5,0l24.3-18.5c0.8-0.6,1.2-1.5,1.4-2.4l0,0L534.7,183L534.7,183z"/>
				
					<path id="XMLID_247_" fill="none" stroke="#0000FF" stroke-width="2" stroke-linecap="round" stroke-linejoin="round" stroke-miterlimit="10" d="
					M534.7,183c-0.1,1-0.5,2-1.4,2.6l-24.3,18.5c-1.3,1-3.2,1-4.5,0c-5.7-4.4-14.5-11.4-19.4-15.3c-1.1-0.8-1.5-2.1-1.3-3.3l0,0
					l-0.6,6.5c-0.4,1.3,0,2.8,1.2,3.8c4.9,3.9,13.7,10.8,19.4,15.3c1.3,1,3.2,1,4.5,0l24.3-18.5c0.8-0.6,1.2-1.5,1.4-2.4l0,0
					L534.7,183L534.7,183z"/>
			</g>
			<g id="XMLID_369_">
				<path id="XMLID_245_" opacity="0.75" fill="#0000FF" d="M587.9,142.7c-0.1,1-0.5,1.9-1.4,2.6l-24.1,18.2c-1.3,1-3.2,1-4.5,0
					c-5.6-4.4-14.4-11.2-19.3-15c-1.1-0.8-1.5-2.1-1.3-3.2l0,0l-0.6,6.4c-0.4,1.3,0,2.8,1.2,3.7c4.9,3.8,13.6,10.7,19.3,15
					c1.3,1,3.2,1,4.5,0l24.1-18.2c0.8-0.6,1.2-1.5,1.3-2.4l0,0L587.9,142.7L587.9,142.7z"/>
				
					<path id="XMLID_244_" fill="none" stroke="#0000FF" stroke-width="2" stroke-linecap="round" stroke-linejoin="round" stroke-miterlimit="10" d="
					M587.9,142.7c-0.1,1-0.5,1.9-1.4,2.6l-24.1,18.2c-1.3,1-3.2,1-4.5,0c-5.6-4.4-14.4-11.2-19.3-15c-1.1-0.8-1.5-2.1-1.3-3.2l0,0
					l-0.6,6.4c-0.4,1.3,0,2.8,1.2,3.7c4.9,3.8,13.6,10.7,19.3,15c1.3,1,3.2,1,4.5,0l24.1-18.2c0.8-0.6,1.2-1.5,1.3-2.4l0,0
					L587.9,142.7L587.9,142.7z"/>
			</g>
			<g id="XMLID_365_">
				<path id="XMLID_242_" opacity="0.75" fill="#0000FF" d="M666.6,162c0,0.9-0.5,1.8-1.3,2.5l-23.6,17.2c-1.3,0.9-3.1,0.9-4.4,0
					c-5.6-4.2-14.2-10.7-18.9-14.3c-1-0.8-1.4-2-1.3-3.1l0,0l-0.5,6.1c-0.4,1.2,0,2.6,1.2,3.5c4.8,3.6,13.4,10.2,18.9,14.3
					c1.3,1,3.1,1,4.4,0l23.6-17.2c0.8-0.6,1.2-1.4,1.3-2.2l0,0L666.6,162L666.6,162z"/>
				
					<path id="XMLID_241_" fill="none" stroke="#0000FF" stroke-width="2" stroke-linecap="round" stroke-linejoin="round" stroke-miterlimit="10" d="
					M666.6,162c0,0.9-0.5,1.8-1.3,2.5l-23.6,17.2c-1.3,0.9-3.1,0.9-4.4,0c-5.6-4.2-14.2-10.7-18.9-14.3c-1-0.8-1.4-2-1.3-3.1l0,0
					l-0.5,6.1c-0.4,1.2,0,2.6,1.2,3.5c4.8,3.6,13.4,10.2,18.9,14.3c1.3,1,3.1,1,4.4,0l23.6-17.2c0.8-0.6,1.2-1.4,1.3-2.2l0,0
					L666.6,162L666.6,162z"/>
			</g>
			<g id="XMLID_361_">
				<path id="XMLID_239_" opacity="0.75" fill="#0000FF" d="M305.6,356.7c-0.1,1-0.5,2-1.4,2.8l-25.1,19.3c-1.4,1.1-3.3,1.1-4.7,0
					c-5.9-4.6-15-11.9-20-15.9c-1.1-0.9-1.5-2.2-1.3-3.4l0,0l-0.6,6.8c-0.4,1.4,0,3,1.2,3.9c5.1,4,14.1,11.3,20,15.9
					c1.4,1.1,3.3,1.1,4.7,0l25.1-19.3c0.8-0.6,1.3-1.6,1.4-2.5l0,0L305.6,356.7L305.6,356.7z"/>
				
					<path id="XMLID_238_" fill="none" stroke="#0000FF" stroke-width="2" stroke-linecap="round" stroke-linejoin="round" stroke-miterlimit="10" d="
					M305.6,356.7c-0.1,1-0.5,2-1.4,2.8l-25.1,19.3c-1.4,1.1-3.3,1.1-4.7,0c-5.9-4.6-15-11.9-20-15.9c-1.1-0.9-1.5-2.2-1.3-3.4l0,0
					l-0.6,6.8c-0.4,1.4,0,3,1.2,3.9c5.1,4,14.1,11.3,20,15.9c1.4,1.1,3.3,1.1,4.7,0l25.1-19.3c0.8-0.6,1.3-1.6,1.4-2.5l0,0
					L305.6,356.7L305.6,356.7z"/>
			</g>
			<g id="XMLID_357_">
				<path id="XMLID_236_" opacity="0.75" fill="#0000FF" d="M362.1,313.6c-0.1,1-0.5,2-1.4,2.8l-25.1,19.3c-1.4,1.1-3.3,1.1-4.7,0
					c-5.9-4.6-15-11.9-20-15.9c-1.1-0.9-1.5-2.2-1.3-3.4l0,0l-0.6,6.8c-0.4,1.4,0,3,1.2,3.9c5.1,4,14.1,11.3,20,15.9
					c1.4,1.1,3.3,1.1,4.7,0l25.1-19.3c0.8-0.6,1.3-1.6,1.4-2.5l0,0L362.1,313.6L362.1,313.6z"/>
				
					<path id="XMLID_235_" fill="none" stroke="#0000FF" stroke-width="2" stroke-linecap="round" stroke-linejoin="round" stroke-miterlimit="10" d="
					M362.1,313.6c-0.1,1-0.5,2-1.4,2.8l-25.1,19.3c-1.4,1.1-3.3,1.1-4.7,0c-5.9-4.6-15-11.9-20-15.9c-1.1-0.9-1.5-2.2-1.3-3.4l0,0
					l-0.6,6.8c-0.4,1.4,0,3,1.2,3.9c5.1,4,14.1,11.3,20,15.9c1.4,1.1,3.3,1.1,4.7,0l25.1-19.3c0.8-0.6,1.3-1.6,1.4-2.5l0,0
					L362.1,313.6L362.1,313.6z"/>
			</g>
			<g id="XMLID_353_">
				<path id="XMLID_233_" opacity="0.75" fill="#0000FF" d="M420.6,269.6c-0.1,1-0.5,2-1.4,2.7l-24.7,19.1c-1.4,1-3.3,1-4.6,0
					c-5.8-4.6-14.7-11.7-19.7-15.7c-1.1-0.9-1.5-2.2-1.3-3.4l0,0l-0.6,6.7c-0.4,1.4,0,2.9,1.2,3.9c5,4,13.9,11.1,19.7,15.7
					c1.3,1.1,3.2,1.1,4.6,0l24.7-19.1c0.8-0.6,1.3-1.5,1.4-2.5l0,0L420.6,269.6L420.6,269.6z"/>
				
					<path id="XMLID_232_" fill="none" stroke="#0000FF" stroke-width="2" stroke-linecap="round" stroke-linejoin="round" stroke-miterlimit="10" d="
					M420.6,269.6c-0.1,1-0.5,2-1.4,2.7l-24.7,19.1c-1.4,1-3.3,1-4.6,0c-5.8-4.6-14.7-11.7-19.7-15.7c-1.1-0.9-1.5-2.2-1.3-3.4l0,0
					l-0.6,6.7c-0.4,1.4,0,2.9,1.2,3.9c5,4,13.9,11.1,19.7,15.7c1.3,1.1,3.2,1.1,4.6,0l24.7-19.1c0.8-0.6,1.3-1.5,1.4-2.5l0,0
					L420.6,269.6L420.6,269.6z"/>
			</g>
			<g id="XMLID_349_">
				<path id="XMLID_230_" opacity="0.75" fill="#0000FF" d="M194.7,440.1c0,1.1-0.6,2.3-1.6,3l-52,39.3c-1.5,1.1-3.5,1.1-4.9-0.1
					c-6.4-5.2-15.1-12.2-20.1-16.3c-1.1-0.9-1.6-2.2-1.4-3.5l0,0l-0.6,7.2c-0.4,1.5,0,3.2,1.3,4.2c5,4.1,13.7,11.1,20.1,16.3
					c1.4,1.2,3.5,1.2,4.9,0.1l52-39.3c1-0.7,1.5-1.8,1.6-3l0,0L194.7,440.1L194.7,440.1z"/>
				
					<path id="XMLID_229_" fill="none" stroke="#0000FF" stroke-width="2" stroke-linecap="round" stroke-linejoin="round" stroke-miterlimit="10" d="
					M194.7,440.1c0,1.1-0.6,2.3-1.6,3l-52,39.3c-1.5,1.1-3.5,1.1-4.9-0.1c-6.4-5.2-15.1-12.2-20.1-16.3c-1.1-0.9-1.6-2.2-1.4-3.5
					l0,0l-0.6,7.2c-0.4,1.5,0,3.2,1.3,4.2c5,4.1,13.7,11.1,20.1,16.3c1.4,1.2,3.5,1.2,4.9,0.1l52-39.3c1-0.7,1.5-1.8,1.6-3l0,0
					L194.7,440.1L194.7,440.1z"/>
			</g>
			<g id="XMLID_345_">
				<path id="XMLID_227_" opacity="0.75" fill="#0000FF" d="M249.4,398.9c-0.1,1.1-0.5,2.1-1.5,2.8l-25.5,19.9
					c-1.4,1.1-3.4,1.1-4.7,0c-6-4.8-15.2-12.2-20.4-16.3c-1.1-0.9-1.5-2.2-1.4-3.5l0,0l-0.6,7c-0.4,1.4,0,3,1.3,4
					c5.1,4.1,14.4,11.6,20.4,16.3c1.4,1.1,3.3,1.1,4.7,0l25.5-19.9c0.9-0.7,1.3-1.6,1.4-2.6l0,0L249.4,398.9L249.4,398.9z"/>
				
					<path id="XMLID_226_" fill="none" stroke="#0000FF" stroke-width="2" stroke-linecap="round" stroke-linejoin="round" stroke-miterlimit="10" d="
					M249.4,398.9c-0.1,1.1-0.5,2.1-1.5,2.8l-25.5,19.9c-1.4,1.1-3.4,1.1-4.7,0c-6-4.8-15.2-12.2-20.4-16.3c-1.1-0.9-1.5-2.2-1.4-3.5
					l0,0l-0.6,7c-0.4,1.4,0,3,1.3,4c5.1,4.1,14.4,11.6,20.4,16.3c1.4,1.1,3.3,1.1,4.7,0l25.5-19.9c0.9-0.7,1.3-1.6,1.4-2.6l0,0
					L249.4,398.9L249.4,398.9z"/>
			</g>
			<g id="XMLID_341_">
				<path id="XMLID_224_" opacity="0.75" fill="#0000FF" d="M328.7,417.2c-0.1,1-0.5,2-1.4,2.7l-24.8,18.8c-1.4,1-3.3,1-4.6,0
					c-5.8-4.5-14.8-11.6-19.9-15.5c-1.1-0.9-1.5-2.1-1.3-3.3l0,0l-0.6,6.6c-0.4,1.3,0,2.9,1.2,3.8c5,3.9,14,11,19.9,15.5
					c1.4,1,3.3,1.1,4.6,0l24.8-18.8c0.8-0.6,1.3-1.5,1.4-2.4l0,0L328.7,417.2L328.7,417.2z"/>
				
					<path id="XMLID_223_" fill="none" stroke="#0000FF" stroke-width="2" stroke-linecap="round" stroke-linejoin="round" stroke-miterlimit="10" d="
					M328.7,417.2c-0.1,1-0.5,2-1.4,2.7l-24.8,18.8c-1.4,1-3.3,1-4.6,0c-5.8-4.5-14.8-11.6-19.9-15.5c-1.1-0.9-1.5-2.1-1.3-3.3l0,0
					l-0.6,6.6c-0.4,1.3,0,2.9,1.2,3.8c5,3.9,14,11,19.9,15.5c1.4,1,3.3,1.1,4.6,0l24.8-18.8c0.8-0.6,1.3-1.5,1.4-2.4l0,0
					L328.7,417.2L328.7,417.2z"/>
			</g>
			<g id="XMLID_337_">
				<path id="XMLID_221_" opacity="0.75" fill="#0000FF" d="M386.5,373.6c-0.1,1-0.5,1.9-1.4,2.6l-24.6,18.3c-1.3,1-3.2,1-4.6,0
					c-5.8-4.4-14.7-11.3-19.7-15.2c-1.1-0.8-1.5-2.1-1.3-3.3l0,0l-0.6,6.5c-0.4,1.3,0,2.8,1.2,3.8c5,3.9,13.9,10.8,19.7,15.2
					c1.3,1,3.2,1,4.6,0l24.6-18.3c0.8-0.6,1.3-1.5,1.4-2.4l0,0L386.5,373.6L386.5,373.6z"/>
				
					<path id="XMLID_220_" fill="none" stroke="#0000FF" stroke-width="2" stroke-linecap="round" stroke-linejoin="round" stroke-miterlimit="10" d="
					M386.5,373.6c-0.1,1-0.5,1.9-1.4,2.6l-24.6,18.3c-1.3,1-3.2,1-4.6,0c-5.8-4.4-14.7-11.3-19.7-15.2c-1.1-0.8-1.5-2.1-1.3-3.3l0,0
					l-0.6,6.5c-0.4,1.3,0,2.8,1.2,3.8c5,3.9,13.9,10.8,19.7,15.2c1.3,1,3.2,1,4.6,0l24.6-18.3c0.8-0.6,1.3-1.5,1.4-2.4l0,0
					L386.5,373.6L386.5,373.6z"/>
			</g>
			<g id="XMLID_333_">
				<path id="XMLID_218_" opacity="0.75" fill="#0000FF" d="M443.9,330.6c0,1-0.5,1.9-1.4,2.6l-24.4,18.1c-1.3,1-3.2,1-4.5,0
					c-5.7-4.4-14.6-11.2-19.6-15c-1.1-0.8-1.5-2.1-1.3-3.2l0,0l-0.6,6.4c-0.4,1.3,0,2.8,1.2,3.7c5,3.8,13.8,10.7,19.6,15
					c1.3,1,3.2,1,4.5,0l24.4-18.1c0.8-0.6,1.3-1.5,1.4-2.3l0,0L443.9,330.6L443.9,330.6z"/>
				
					<path id="XMLID_217_" fill="none" stroke="#0000FF" stroke-width="2" stroke-linecap="round" stroke-linejoin="round" stroke-miterlimit="10" d="
					M443.9,330.6c0,1-0.5,1.9-1.4,2.6l-24.4,18.1c-1.3,1-3.2,1-4.5,0c-5.7-4.4-14.6-11.2-19.6-15c-1.1-0.8-1.5-2.1-1.3-3.2l0,0
					l-0.6,6.4c-0.4,1.3,0,2.8,1.2,3.7c5,3.8,13.8,10.7,19.6,15c1.3,1,3.2,1,4.5,0l24.4-18.1c0.8-0.6,1.3-1.5,1.4-2.3l0,0
					L443.9,330.6L443.9,330.6z"/>
			</g>
			<g id="XMLID_329_">
				<path id="XMLID_215_" opacity="0.75" fill="#0000FF" d="M499.4,288c0,1-0.5,1.9-1.4,2.5l-23.9,17.8c-1.3,1-3.2,1-4.5,0
					c-5.6-4.3-14.3-11-19.2-14.8c-1-0.8-1.5-2-1.3-3.2l0,0l-0.6,6.3c-0.4,1.3,0,2.7,1.2,3.6c4.9,3.8,13.6,10.5,19.2,14.8
					c1.3,1,3.1,1,4.5,0l23.9-17.8c0.8-0.6,1.2-1.4,1.3-2.3l0,0L499.4,288L499.4,288z"/>
				
					<path id="XMLID_214_" fill="none" stroke="#0000FF" stroke-width="2" stroke-linecap="round" stroke-linejoin="round" stroke-miterlimit="10" d="
					M499.4,288c0,1-0.5,1.9-1.4,2.5l-23.9,17.8c-1.3,1-3.2,1-4.5,0c-5.6-4.3-14.3-11-19.2-14.8c-1-0.8-1.5-2-1.3-3.2l0,0l-0.6,6.3
					c-0.4,1.3,0,2.7,1.2,3.6c4.9,3.8,13.6,10.5,19.2,14.8c1.3,1,3.1,1,4.5,0l23.9-17.8c0.8-0.6,1.2-1.4,1.3-2.3l0,0L499.4,288
					L499.4,288z"/>
			</g>
			<g id="XMLID_325_">
				<path id="XMLID_212_" opacity="0.75" fill="#0000FF" d="M553.9,247.2c0,0.9-0.5,1.9-1.4,2.5l-23.8,17.4c-1.3,1-3.1,0.9-4.4,0
					c-5.6-4.2-14.3-10.8-19.1-14.5c-1-0.8-1.5-2-1.3-3.1l0,0l-0.5,6.2c-0.4,1.3,0,2.7,1.2,3.6c4.8,3.7,13.5,10.3,19.1,14.5
					c1.3,1,3.1,1,4.4,0l23.8-17.4c0.8-0.6,1.2-1.4,1.3-2.3l0,0L553.9,247.2L553.9,247.2z"/>
				
					<path id="XMLID_211_" fill="none" stroke="#0000FF" stroke-width="2" stroke-linecap="round" stroke-linejoin="round" stroke-miterlimit="10" d="
					M553.9,247.2c0,0.9-0.5,1.9-1.4,2.5l-23.8,17.4c-1.3,1-3.1,0.9-4.4,0c-5.6-4.2-14.3-10.8-19.1-14.5c-1-0.8-1.5-2-1.3-3.1l0,0
					l-0.5,6.2c-0.4,1.3,0,2.7,1.2,3.6c4.8,3.7,13.5,10.3,19.1,14.5c1.3,1,3.1,1,4.4,0l23.8-17.4c0.8-0.6,1.2-1.4,1.3-2.3l0,0
					L553.9,247.2L553.9,247.2z"/>
			</g>
			<g id="XMLID_321_">
				<path id="XMLID_209_" opacity="0.75" fill="#0000FF" d="M608.8,205.6c0,0.9-0.5,1.8-1.3,2.5l-23.6,17.2c-1.3,0.9-3.1,0.9-4.4,0
					c-5.6-4.2-14.2-10.7-18.9-14.3c-1-0.8-1.4-2-1.3-3.1l0,0l-0.5,6.1c-0.4,1.2,0,2.6,1.2,3.5c4.8,3.6,13.4,10.2,18.9,14.3
					c1.3,1,3.1,1,4.4,0l23.6-17.2c0.8-0.6,1.2-1.4,1.3-2.2l0,0L608.8,205.6L608.8,205.6z"/>
				
					<path id="XMLID_208_" fill="none" stroke="#0000FF" stroke-width="2" stroke-linecap="round" stroke-linejoin="round" stroke-miterlimit="10" d="
					M608.8,205.6c0,0.9-0.5,1.8-1.3,2.5l-23.6,17.2c-1.3,0.9-3.1,0.9-4.4,0c-5.6-4.2-14.2-10.7-18.9-14.3c-1-0.8-1.4-2-1.3-3.1l0,0
					l-0.5,6.1c-0.4,1.2,0,2.6,1.2,3.5c4.8,3.6,13.4,10.2,18.9,14.3c1.3,1,3.1,1,4.4,0l23.6-17.2c0.8-0.6,1.2-1.4,1.3-2.2l0,0
					L608.8,205.6L608.8,205.6z"/>
			</g>
			<g id="XMLID_317_">
				<path id="XMLID_206_" opacity="0.75" fill="#0000FF" d="M646.7,235.9c-0.1,1-0.5,1.9-1.4,2.6l-23.8,18.3c-1.3,1-3.1,1-4.4,0
					c-5.6-4.4-14.2-11.3-19-15.1c-1-0.8-1.4-2.1-1.3-3.3l0,0l-0.6,6.5c-0.4,1.3,0,2.8,1.2,3.7c4.8,3.8,13.4,10.7,19,15.1
					c1.3,1,3.1,1,4.4,0l23.8-18.3c0.8-0.6,1.2-1.5,1.3-2.4l0,0L646.7,235.9L646.7,235.9z"/>
				
					<path id="XMLID_205_" fill="none" stroke="#0000FF" stroke-width="2" stroke-linecap="round" stroke-linejoin="round" stroke-miterlimit="10" d="
					M646.7,235.9c-0.1,1-0.5,1.9-1.4,2.6l-23.8,18.3c-1.3,1-3.1,1-4.4,0c-5.6-4.4-14.2-11.3-19-15.1c-1-0.8-1.4-2.1-1.3-3.3l0,0
					l-0.6,6.5c-0.4,1.3,0,2.8,1.2,3.7c4.8,3.8,13.4,10.7,19,15.1c1.3,1,3.1,1,4.4,0l23.8-18.3c0.8-0.6,1.2-1.5,1.3-2.4l0,0
					L646.7,235.9L646.7,235.9z"/>
			</g>
			<g id="XMLID_313_">
				<path id="XMLID_203_" opacity="0.75" fill="#0000FF" d="M703.6,192.8c-0.1,1-0.5,1.9-1.4,2.6l-23.8,18.3c-1.3,1-3.1,1-4.4,0
					c-5.6-4.4-14.2-11.3-19-15.1c-1-0.8-1.4-2.1-1.3-3.3l0,0l-0.6,6.5c-0.4,1.3,0,2.8,1.2,3.7c4.8,3.8,13.4,10.7,19,15.1
					c1.3,1,3.1,1,4.4,0l23.8-18.3c0.8-0.6,1.2-1.5,1.3-2.4l0,0L703.6,192.8L703.6,192.8z"/>
				
					<path id="XMLID_202_" fill="none" stroke="#0000FF" stroke-width="2" stroke-linecap="round" stroke-linejoin="round" stroke-miterlimit="10" d="
					M703.6,192.8c-0.1,1-0.5,1.9-1.4,2.6l-23.8,18.3c-1.3,1-3.1,1-4.4,0c-5.6-4.4-14.2-11.3-19-15.1c-1-0.8-1.4-2.1-1.3-3.3l0,0
					l-0.6,6.5c-0.4,1.3,0,2.8,1.2,3.7c4.8,3.8,13.4,10.7,19,15.1c1.3,1,3.1,1,4.4,0l23.8-18.3c0.8-0.6,1.2-1.5,1.3-2.4l0,0
					L703.6,192.8L703.6,192.8z"/>
			</g>
			<g id="XMLID_309_">
				<path id="XMLID_200_" opacity="0.75" fill="#0000FF" d="M325.5,488.1c-0.1,1.1-0.5,2.1-1.5,2.9l-26,20.3c-1.4,1.1-3.4,1.1-4.8,0
					c-6.1-4.8-15.5-12.4-20.8-16.6c-1.1-0.9-1.6-2.3-1.4-3.6l0,0l-0.6,7.1c-0.4,1.4,0,3.1,1.3,4.1c5.2,4.2,14.7,11.8,20.8,16.6
					c1.4,1.1,3.4,1.1,4.8,0l26-20.3c0.9-0.7,1.3-1.6,1.5-2.6l0,0L325.5,488.1L325.5,488.1z"/>
				
					<path id="XMLID_199_" fill="none" stroke="#0000FF" stroke-width="2" stroke-linecap="round" stroke-linejoin="round" stroke-miterlimit="10" d="
					M325.5,488.1c-0.1,1.1-0.5,2.1-1.5,2.9l-26,20.3c-1.4,1.1-3.4,1.1-4.8,0c-6.1-4.8-15.5-12.4-20.8-16.6c-1.1-0.9-1.6-2.3-1.4-3.6
					l0,0l-0.6,7.1c-0.4,1.4,0,3.1,1.3,4.1c5.2,4.2,14.7,11.8,20.8,16.6c1.4,1.1,3.4,1.1,4.8,0l26-20.3c0.9-0.7,1.3-1.6,1.5-2.6l0,0
					L325.5,488.1L325.5,488.1z"/>
			</g>
		</g>
		<g id="XMLID_5_">
			
				<path id="XMLID_486_" fill="#0000FF" fill-opacity="0.25" stroke="#0000FF" stroke-width="9" stroke-linecap="round" stroke-linejoin="round" stroke-miterlimit="10" d="
				M12.3,435.1L590,10.3c10-7.4,23.6-7.7,34-0.7c0,0,152.5,116.1,185.5,142.1c1.9,1.5,2.7,3.9,2.4,6.1c0,0,0,0,0,0.1
				c-0.2,1.5-1,2.9-2.3,3.9L262.6,597.1c-7.2,5.8-17.4,5.8-24.7,0.2C173.1,546.9,34.8,438.1,34.8,438.1"/>
		</g>
		<g id="XMLID_6_">
			<g id="XMLID_60_">
				<g id="XMLID_294_">
					<path id="XMLID_295_" fill="#ED1E79" d="M608,36.1L608,36.1c0.2,0,0.6,0.1,0.9,0.4c2.9,2.5,6.4,5.5,10.5,9
						c0.4,0.3,0.6,0.8,0.5,1.3c0,0.5-0.3,1-0.7,1.3l-23.6,17.2c-0.3,0.2-0.6,0.3-0.9,0.3c-0.3,0-0.7-0.1-0.9-0.4
						c-5.2-4.4-8.5-7.3-10.7-9.2c-0.4-0.3-0.6-0.8-0.5-1.3c0-0.5,0.3-1,0.7-1.3l23.8-17.1C607.4,36.2,607.7,36.1,608,36.1 M608,34.1
						c-0.7,0-1.4,0.2-2,0.7l-23.8,17.1c-1.9,1.4-2,4.2-0.3,5.7c2.1,1.8,5.5,4.7,10.7,9.2c0.6,0.6,1.4,0.8,2.3,0.8
						c0.7,0,1.4-0.2,2-0.7l23.6-17.2c1.9-1.4,2-4.2,0.2-5.7c-4.1-3.5-7.7-6.6-10.5-9C609.6,34.4,608.8,34.1,608,34.1L608,34.1z"/>
				</g>
			</g>
			<g id="XMLID_52_">
				<g id="XMLID_287_">
					<path id="XMLID_289_" fill="#ED1E79" d="M646.1,65.5c0.4,0,0.9,0.1,1.2,0.4c12.2,9.4,56.6,43.3,70,53.5c0.5,0.4,0.8,1,0.8,1.6
						c0,0.6-0.3,1.2-0.8,1.6L695,139.4c-0.4,0.3-0.8,0.4-1.2,0.4c-0.5,0-0.9-0.1-1.2-0.4c-10.1-8-38-29.9-46.4-36.6
						c-1.1-0.8-2.4-1.3-3.7-1.3c-1.3,0-2.6,0.4-3.7,1.3l-23,17.9c-0.4,0.3-0.8,0.4-1.2,0.4c-0.5,0-0.9-0.1-1.2-0.4
						c-6-4.7-11.9-9.4-17.7-13.9c-0.5-0.4-0.8-1-0.8-1.6c0-0.6,0.3-1.2,0.8-1.6l49.3-37.7C645.3,65.7,645.7,65.5,646.1,65.5
						 M646.1,63.5c-0.9,0-1.7,0.3-2.4,0.8L594.4,102c-2.1,1.6-2.1,4.7,0,6.3c5.8,4.5,11.7,9.2,17.7,13.9c0.7,0.6,1.6,0.9,2.5,0.9
						c0.9,0,1.7-0.3,2.5-0.8l23-17.9c0.7-0.6,1.6-0.8,2.5-0.8c0.9,0,1.7,0.3,2.5,0.9c8.4,6.6,36.3,28.6,46.4,36.6
						c0.7,0.6,1.6,0.9,2.5,0.9c0.8,0,1.7-0.3,2.4-0.8l22.3-16.8c2.1-1.6,2.1-4.8,0-6.4c-13.8-10.5-57.8-44.1-69.9-53.5
						C647.9,63.8,647,63.5,646.1,63.5L646.1,63.5z"/>
				</g>
			</g>
			<g id="XMLID_48_">
				<g id="XMLID_282_">
					<path id="XMLID_283_" fill="#ED1E79" d="M240.4,515.5c0.5,0,0.9,0.2,1.2,0.4c5,4,14.4,11.5,21.1,16.8c0.5,0.4,0.8,1,0.8,1.6
						c0,0.6-0.3,1.2-0.8,1.6l-26.6,20.7c-0.4,0.3-0.8,0.4-1.2,0.4c-0.5,0-0.9-0.1-1.2-0.4c-6.3-5-16-12.8-21.2-17
						c-0.5-0.4-0.8-1-0.7-1.6c0-0.6,0.3-1.2,0.8-1.6l26.8-20.5C239.5,515.7,240,515.5,240.4,515.5 M240.4,513.5
						c-0.9,0-1.7,0.3-2.4,0.8l-26.8,20.5c-2.1,1.6-2.1,4.7-0.1,6.3c5.4,4.3,15,12.1,21.2,17c0.7,0.6,1.6,0.9,2.5,0.9
						c0.9,0,1.7-0.3,2.5-0.8l26.6-20.7c2-1.6,2.1-4.7,0-6.3c-6.8-5.4-16.6-13.2-21-16.8C242.2,513.8,241.3,513.5,240.4,513.5
						L240.4,513.5z"/>
				</g>
			</g>
			<g id="XMLID_40_">
				<g id="XMLID_275_">
					<path id="XMLID_277_" fill="#ED1E79" d="M736.2,134.1c0.2,0,0.6,0.1,0.9,0.3c3.5,2.8,12.3,9.7,18.4,14.5
						c0.5,0.4,0.6,0.9,0.6,1.1c0,0.3-0.1,0.7-0.6,1.1L732.3,169c-0.3,0.2-0.6,0.3-0.9,0.3c-0.3,0-0.7-0.1-0.9-0.3
						c-5.5-4.3-14-11-18.6-14.7c-0.5-0.4-0.6-0.9-0.5-1.1c0-0.3,0.1-0.7,0.6-1.1l23.4-17.6C735.5,134.2,735.8,134.1,736.2,134.1
						 M736.2,132.1c-0.7,0-1.5,0.2-2.1,0.7l-23.4,17.6c-1.8,1.4-1.8,4-0.1,5.4c4.7,3.7,13.1,10.4,18.6,14.7c0.6,0.5,1.4,0.8,2.2,0.8
						c0.8,0,1.5-0.2,2.1-0.7l23.2-17.8c1.8-1.4,1.8-4,0-5.4c-6-4.7-14.5-11.4-18.4-14.5C737.7,132.3,736.9,132.1,736.2,132.1
						L736.2,132.1z"/>
				</g>
			</g>
			<g id="XMLID_36_">
				<g id="XMLID_91_">
					<path id="XMLID_92_" fill="#ED1E79" d="M243.9,444.6c0.5,0,0.9,0.2,1.3,0.4l19.4,15.7c0.5,0.4,0.8,1,0.7,1.6
						c0,0.6-0.3,1.2-0.8,1.6l-75.3,57.2c-0.4,0.3-0.8,0.4-1.2,0.4c-0.5,0-0.9-0.2-1.3-0.4c-6.5-5.2-15.3-12.5-20.1-16.3
						c-0.5-0.4-0.7-1-0.7-1.6c0-0.6,0.3-1.2,0.8-1.6l75.9-56.7C243.1,444.7,243.5,444.6,243.9,444.6 M243.9,442.6
						c-0.8,0-1.7,0.3-2.4,0.8l-75.9,56.7c-2.1,1.6-2.2,4.7-0.1,6.3c5,4.1,13.7,11.1,20.1,16.3c0.7,0.6,1.6,0.9,2.5,0.9
						c0.9,0,1.7-0.3,2.4-0.8l75.3-57.2c2.1-1.6,2.1-4.7,0.1-6.3l-19.4-15.7C245.7,442.9,244.8,442.6,243.9,442.6L243.9,442.6z"/>
				</g>
			</g>
			<g id="XMLID_32_">
				<g id="XMLID_82_">
					<path id="XMLID_84_" fill="#ED1E79" d="M361.2,422.5c0.4,0,0.8,0.1,1.2,0.4c3.9,3.1,13.6,10.9,20.3,16.2
						c0.4,0.4,0.7,0.9,0.7,1.5c0,0.6-0.3,1.1-0.7,1.5l-25.7,20c-0.3,0.3-0.7,0.4-1.1,0.4c-0.4,0-0.8-0.1-1.2-0.4
						c-6-4.8-15.4-12.4-20.5-16.4c-0.4-0.4-0.7-0.9-0.7-1.5c0-0.6,0.3-1.1,0.7-1.5l25.9-19.8C360.4,422.6,360.8,422.5,361.2,422.5
						 M361.2,420.5c-0.8,0-1.7,0.3-2.4,0.8L333,441.1c-2,1.5-2,4.5-0.1,6.1c5.2,4.2,14.5,11.7,20.5,16.4c0.7,0.6,1.6,0.8,2.4,0.8
						c0.8,0,1.7-0.3,2.4-0.8l25.7-20c2-1.5,2-4.5,0-6.1c-6.6-5.2-16-12.8-20.3-16.2C362.9,420.8,362.1,420.5,361.2,420.5
						L361.2,420.5z"/>
				</g>
			</g>
		</g>
		<path id="XMLID_29_" fill="#D4145A" d="M604.2,101.4l-2.8,2.1c-0.2,0.2-0.2,0.5,0,0.6c0.6,0.4,1.6,1.2,2.2,1.7
			c0.1,0.1,0.4,0.1,0.5,0l2.8-2.1c0.2-0.2,0.2-0.5,0-0.6c-0.7-0.5-1.7-1.3-2.2-1.7C604.6,101.3,604.3,101.3,604.2,101.4z"/>
		<path id="XMLID_26_" fill="#D4145A" d="M720.1,151l-2.8,2.1c-0.2,0.2-0.2,0.5,0,0.6c0.6,0.4,1.6,1.2,2.2,1.7
			c0.1,0.1,0.4,0.1,0.5,0l2.8-2.1c0.2-0.2,0.2-0.5,0-0.6c-0.7-0.5-1.7-1.3-2.2-1.7C720.5,150.9,720.3,150.9,720.1,151z"/>
		<path id="XMLID_1_" fill="#D4145A" d="M340.3,442.3l-2.8,2.1c-0.2,0.2-0.2,0.5,0,0.6c0.6,0.4,1.6,1.2,2.2,1.7
			c0.1,0.1,0.4,0.1,0.5,0l2.8-2.1c0.2-0.2,0.2-0.5,0-0.6c-0.7-0.5-1.7-1.3-2.2-1.7C340.7,442.2,340.5,442.2,340.3,442.3z"/>
		<path id="XMLID_3_" fill="#D4145A" d="M174.6,499.7l-2.8,2.1c-0.2,0.2-0.2,0.5,0,0.6c0.6,0.4,1.6,1.2,2.2,1.7
			c0.1,0.1,0.4,0.1,0.5,0l2.8-2.1c0.2-0.2,0.2-0.5,0-0.6c-0.7-0.5-1.7-1.3-2.2-1.7C175,499.6,174.8,499.6,174.6,499.7z"/>
		
			<path id="XMLID_4_" opacity="0.75" fill="#0000FF" fill-opacity="0.25" stroke="#0000FF" stroke-width="2" stroke-linecap="round" stroke-linejoin="round" stroke-miterlimit="10" d="
			M50.4,468.7c6.2,14.8,5.3,28.9-2.1,31.5c-7.4,2.6-18.4-7.2-24.6-22c-6.2-14.8-5.3-28.9,2.1-31.5S44.2,454,50.4,468.7z"/>
		<path id="XMLID_56_" fill="none" stroke="#ED1E79" stroke-width="2" stroke-miterlimit="10" d="M115.6,412.5
			c-5.2-4.2-8.8-7.2-11.3-9.2c-2.4-2-5.9-2.1-8.4-0.3l-26.4,19.1c-2.2,1.6-2.3,4.9-0.2,6.6c2.4,1.9,6.1,4.9,11.5,9.3
			c2.4,2,5.9,2.1,8.5,0.2l26.1-19.2C117.6,417.4,117.7,414.2,115.6,412.5z"/>
		<g id="XMLID_16_" opacity="0.5">
			<path id="XMLID_304_" fill="#D4145A" d="M620.5,49.7l-23.6,17.2c-1.3,0.9-3.1,0.9-4.3-0.2c-5.2-4.4-8.5-7.3-10.7-9.2
				c-0.9-0.8-1.3-2-1.2-3.1l0,0l-0.7,6.4l0,0c-0.2,1.2,0.1,2.5,1.2,3.4c2.1,1.8,5.5,4.7,10.7,9.2c1.2,1,3,1.1,4.3,0.2l23.6-17.2
				c0.7-0.5,1.2-1.3,1.4-2.1l0,0l0.8-7.1l0,0C621.9,48.1,621.4,49,620.5,49.7z"/>
			<path id="XMLID_300_" fill="#D4145A" d="M115.4,419l-26.1,19.2c-2.5,1.9-6,1.8-8.5-0.2c-5.4-4.4-9.1-7.4-11.5-9.3
				c-1.1-0.9-1.6-2.1-1.5-3.3l-0.8,8l0,0c-0.1,1.3,0.4,2.7,1.5,3.6c2.4,1.9,6.1,4.9,11.5,9.3c2.4,2,5.9,2.1,8.5,0.2l26.1-19.2
				c0.8-0.6,1.3-1.3,1.5-2.2c0.1-0.5,0.2-1,0.2-1.4l0.8-7C116.8,417.6,116.3,418.4,115.4,419z"/>
			<path id="XMLID_296_" fill="#D4145A" d="M718.5,124.2L696.2,141c-1.4,1.1-3.5,1.1-4.9,0c-10.1-8-38-29.9-46.4-36.6
				c-1.4-1.1-3.5-1.1-4.9,0l-23,17.9c-1.5,1.1-3.5,1.1-4.9,0c-6-4.7-12-9.4-17.7-13.9c-1-0.7-1.4-1.8-1.5-2.9l-0.5,6.6
				c-0.2,0.6-0.2,1.2-0.1,1.8l0,0.1l0,0c0.2,0.9,0.6,1.8,1.5,2.5c5.8,4.5,11.7,9.2,17.7,13.9c1.4,1.1,3.5,1.1,4.9,0l23-17.9
				c1.4-1.1,3.5-1.1,4.9,0c8.4,6.6,36.3,28.6,46.4,36.6c1.4,1.1,3.4,1.1,4.9,0l22.3-16.8c0.8-0.6,1.3-1.4,1.5-2.3l0,0l0,0
				c0.1-0.4,0.1-0.7,0.1-1.1l0.7-7.6l0,0C720,122.4,719.5,123.5,718.5,124.2z"/>
			<path id="XMLID_292_" fill="#D4145A" d="M758.1,150.2c0,1-0.5,1.9-1.3,2.5l-23.2,17.8c-1.3,1-3.1,1-4.3,0
				c-5.4-4.3-13.9-10.9-18.6-14.7c-1-0.8-1.4-2-1.3-3.2l0,0l-0.6,6.3c-0.4,1.3,0,2.7,1.2,3.6c4.7,3.7,13.1,10.4,18.6,14.7
				c1.3,1,3,1,4.3,0l23.2-17.8c0.8-0.6,1.2-1.4,1.3-2.3l0,0L758.1,150.2L758.1,150.2z"/>
			<path id="XMLID_288_" fill="#D4145A" d="M265.4,534.6c-0.1,1.1-0.6,2.2-1.5,2.9l-26.6,20.7c-1.5,1.1-3.5,1.1-4.9,0
				c-6.2-5-15.9-12.7-21.2-17c-1.2-0.9-1.6-2.3-1.4-3.7l0,0l-0.6,7.3c-0.4,1.5,0,3.2,1.3,4.2c5.4,4.3,15,12.1,21.2,17
				c1.4,1.2,3.5,1.2,4.9,0l26.6-20.7c0.9-0.7,1.4-1.7,1.5-2.7l0,0L265.4,534.6L265.4,534.6z"/>
			<path id="XMLID_280_" fill="#D4145A" d="M385.4,440.8c-0.1,1.1-0.5,2.1-1.5,2.8l-25.7,20c-1.4,1.1-3.4,1.1-4.8,0
				c-6-4.8-15.3-12.3-20.5-16.4c-1.1-0.9-1.6-2.3-1.4-3.5l0,0l-0.6,7.1c-0.4,1.4,0,3.1,1.3,4.1c5.2,4.2,14.5,11.7,20.5,16.4
				c1.4,1.1,3.4,1.1,4.8,0l25.7-20c0.9-0.7,1.3-1.6,1.4-2.6l0,0L385.4,440.8L385.4,440.8z"/>
			<path id="XMLID_276_" fill="#D4145A" d="M267.4,462.3c0,1.2-0.5,2.4-1.6,3.2l-75.3,57.2c-1.5,1.1-3.5,1.1-4.9-0.1
				c-6.4-5.2-15.1-12.2-20.1-16.3c-1.1-0.9-1.6-2.3-1.4-3.6l0,0l-0.6,7.2l0,0c-0.1,1.2,0.4,2.5,1.4,3.3c5,4.1,13.7,11.1,20.1,16.3
				c1.4,1.2,3.5,1.2,4.9,0.1l75.3-57.2c1-0.8,1.5-1.9,1.6-3l0,0L267.4,462.3L267.4,462.3z"/>
			<path id="XMLID_136_" fill="#D4145A" d="M413.3,422.2c1.4,1.2,3.5,1.2,4.9,0l124.6-97l43.5-33.8c0.9-0.7,1.4-1.7,1.5-2.8l0,0
				l0.7-8.1l0,0c-0.1,1.1-0.6,2.2-1.5,2.9l-43.5,33.8l-124.6,97c-1.5,1.1-3.5,1.1-4.9,0c-5.9-4.7-12.5-10-19.5-15.6
				c-1-0.8-1.5-2-1.5-3.2l-0.7,7.5l0,0c-0.2,1.3,0.3,2.7,1.4,3.7"/>
		</g>
		<g id="XMLID_44_">
			<path id="XMLID_68_" fill="#ED1E79" d="M566.3,263.7c0.5,0,0.9,0.2,1.3,0.4c7.9,6.3,13.3,10.7,18.2,14.6c0.5,0.4,0.8,1,0.8,1.6
				c0,0.6-0.3,1.2-0.8,1.6l-43.5,33.8l-124.6,97c-0.4,0.3-0.8,0.4-1.2,0.4c-0.5,0-0.9-0.1-1.2-0.4c-5.6-4.4-12.1-9.7-19.5-15.6
				c-0.5-0.4-0.8-1-0.7-1.6c0-0.6,0.3-1.2,0.8-1.6l169.4-129.8C565.5,263.9,565.9,263.7,566.3,263.7 M566.3,261.7
				c-0.9,0-1.7,0.3-2.4,0.8L394.5,392.4c-2.1,1.6-2.1,4.7-0.1,6.3c7,5.6,13.6,10.9,19.5,15.6c0.7,0.6,1.6,0.9,2.5,0.9
				c0.9,0,1.7-0.3,2.5-0.8l124.6-97l43.5-33.8c2-1.6,2.1-4.7,0-6.3c-5.6-4.5-11.7-9.3-18.2-14.6C568.1,262,567.2,261.7,566.3,261.7
				L566.3,261.7z"/>
		</g>
	</g>
</g>
<g id="Слой_2">	
	<g id="XMLID_166_" class="key">
		<path id="XMLID_188_" opacity="0.5" fill="#0000FF" d="M509.6,164.9l-24.4,18.3c-1.9,1.4-1.9,4.2-0.1,5.6
			c4.9,3.9,13.7,10.8,19.4,15.3c1.3,1,3.2,1,4.5,0l24.3-18.5c1.9-1.4,1.9-4.2,0-5.6c-6.2-4.9-15.2-11.9-19.3-15.1
			C512.8,163.9,510.9,163.9,509.6,164.9z"/>
		
			<path id="XMLID_187_" fill="none" stroke="#0000FF" stroke-width="2" stroke-linecap="round" stroke-linejoin="round" stroke-miterlimit="10" d="
			M509.6,164.9l-24.4,18.3c-1.9,1.4-1.9,4.2-0.1,5.6c4.9,3.9,13.7,10.8,19.4,15.3c1.3,1,3.2,1,4.5,0l24.3-18.5
			c1.9-1.4,1.9-4.2,0-5.6c-6.2-4.9-15.2-11.9-19.3-15.1C512.8,163.9,510.9,163.9,509.6,164.9z"/>
	</g>
	<g id="XMLID_162_" class="key">
		<path id="XMLID_185_" opacity="0.5" fill="#0000FF" d="M563,124.8l-24.2,18c-1.9,1.4-1.9,4.1-0.1,5.5c4.9,3.8,13.6,10.7,19.3,15
			c1.3,1,3.2,1,4.5,0l24.1-18.2c1.8-1.4,1.9-4.1,0-5.5c-6.2-4.8-15-11.7-19.1-14.9C566.2,123.9,564.3,123.8,563,124.8z"/>
		
			<path id="XMLID_184_" fill="none" stroke="#0000FF" stroke-width="2" stroke-linecap="round" stroke-linejoin="round" stroke-miterlimit="10" d="
			M563,124.8l-24.2,18c-1.9,1.4-1.9,4.1-0.1,5.5c4.9,3.8,13.6,10.7,19.3,15c1.3,1,3.2,1,4.5,0l24.1-18.2c1.8-1.4,1.9-4.1,0-5.5
			c-6.2-4.8-15-11.7-19.1-14.9C566.2,123.9,564.3,123.8,563,124.8z"/>
	</g>
	<g id="XMLID_158_" class="key">
		<path id="XMLID_182_" opacity="0.5" fill="#0000FF" d="M347.2,246.7c-5.6-4.9-9.3-8.2-11.6-10.2c-1.9-1.7-1.8-4.8,0.3-6.4
			l25.9-19.2c1.4-1.1,3.3-1,4.6,0.2c3.1,2.7,7,6.2,11.4,10.1c1.9,1.7,1.8,4.8-0.3,6.4l-25.8,19.3C350.5,248,348.5,247.9,347.2,246.7
			z"/>
		
			<path id="XMLID_181_" fill="none" stroke="#0000FF" stroke-width="2" stroke-linecap="round" stroke-linejoin="round" stroke-miterlimit="10" d="
			M347.2,246.7c-5.6-4.9-9.3-8.2-11.6-10.2c-1.9-1.7-1.8-4.8,0.3-6.4l25.9-19.2c1.4-1.1,3.3-1,4.6,0.2c3.1,2.7,7,6.2,11.4,10.1
			c1.9,1.7,1.8,4.8-0.3,6.4l-25.8,19.3C350.5,248,348.5,247.9,347.2,246.7z"/>
	</g>
	<g id="XMLID_154_" class="key">
		<path id="XMLID_179_" opacity="0.5" fill="#0000FF" d="M411.8,199.1c-5.6-4.9-9.2-8.1-11.5-10.1c-1.9-1.7-1.7-4.8,0.3-6.3
			l25.8-18.9c1.4-1,3.3-1,4.6,0.2c3.1,2.7,7,6.1,11.4,10c1.9,1.7,1.8,4.8-0.3,6.3l-25.6,19.1C415.1,200.4,413.2,200.3,411.8,199.1z"
			/>
		
			<path id="XMLID_178_" fill="none" stroke="#0000FF" stroke-width="2" stroke-linecap="round" stroke-linejoin="round" stroke-miterlimit="10" d="
			M411.8,199.1c-5.6-4.9-9.2-8.1-11.5-10.1c-1.9-1.7-1.7-4.8,0.3-6.3l25.8-18.9c1.4-1,3.3-1,4.6,0.2c3.1,2.7,7,6.1,11.4,10
			c1.9,1.7,1.8,4.8-0.3,6.3l-25.6,19.1C415.1,200.4,413.2,200.3,411.8,199.1z"/>
	</g>
	<g id="XMLID_150_" class="key">
		<path id="XMLID_176_" opacity="0.5" fill="#0000FF" d="M474.2,153.1c-5.4-4.8-9-7.9-11.2-9.8c-1.9-1.6-1.7-4.7,0.3-6.1l25.1-18.4
			c1.4-1,3.2-0.9,4.5,0.2c3,2.6,6.8,5.9,11.1,9.7c1.8,1.6,1.7,4.6-0.3,6.1l-25,18.6C477.4,154.3,475.5,154.2,474.2,153.1z"/>
		
			<path id="XMLID_175_" fill="none" stroke="#0000FF" stroke-width="2" stroke-linecap="round" stroke-linejoin="round" stroke-miterlimit="10" d="
			M474.2,153.1c-5.4-4.8-9-7.9-11.2-9.8c-1.9-1.6-1.7-4.7,0.3-6.1l25.1-18.4c1.4-1,3.2-0.9,4.5,0.2c3,2.6,6.8,5.9,11.1,9.7
			c1.8,1.6,1.7,4.6-0.3,6.1l-25,18.6C477.4,154.3,475.5,154.2,474.2,153.1z"/>
	</g>
	<g id="XMLID_146_" class="key">
		<path id="XMLID_173_" opacity="0.5" fill="#0000FF" d="M535.9,108.2c-5.3-4.5-8.7-7.5-10.9-9.4c-1.8-1.5-1.7-4.4,0.3-5.8
			l24.2-17.4c1.3-1,3.1-0.9,4.3,0.2c2.9,2.5,6.6,5.6,10.7,9.2c1.8,1.5,1.7,4.4-0.2,5.8l-24.1,17.5
			C539,109.4,537.2,109.3,535.9,108.2z"/>
		
			<path id="XMLID_172_" fill="none" stroke="#0000FF" stroke-width="2" stroke-linecap="round" stroke-linejoin="round" stroke-miterlimit="10" d="
			M535.9,108.2c-5.3-4.5-8.7-7.5-10.9-9.4c-1.8-1.5-1.7-4.4,0.3-5.8l24.2-17.4c1.3-1,3.1-0.9,4.3,0.2c2.9,2.5,6.6,5.6,10.7,9.2
			c1.8,1.5,1.7,4.4-0.2,5.8l-24.1,17.5C539,109.4,537.2,109.3,535.9,108.2z"/>
	</g>
	<g id="XMLID_141_" class="key">
		<path id="XMLID_169_" opacity="0.5" fill="#0000FF" d="M151.4,389.5c-6.2-5-10.2-8.3-12.8-10.4c-2.1-1.7-2-5,0.2-6.6l27.7-20.1
			c1.5-1.1,3.6-1,5,0.1c3.4,2.8,7.7,6.3,12.6,10.3c2.1,1.7,2,5-0.2,6.6l-27.6,20.2C154.9,390.8,152.8,390.7,151.4,389.5z"/>
		
			<path id="XMLID_168_" fill="none" stroke="#0000FF" stroke-width="2" stroke-linecap="round" stroke-linejoin="round" stroke-miterlimit="10" d="
			M151.4,389.5c-6.2-5-10.2-8.3-12.8-10.4c-2.1-1.7-2-5,0.2-6.6l27.7-20.1c1.5-1.1,3.6-1,5,0.1c3.4,2.8,7.7,6.3,12.6,10.3
			c2.1,1.7,2,5-0.2,6.6l-27.6,20.2C154.9,390.8,152.8,390.7,151.4,389.5z"/>
	</g>
	<g id="XMLID_137_" class="key">
		<path id="XMLID_165_" opacity="0.5" fill="#0000FF" d="M217.5,339.9c-6-5-10-8.3-12.5-10.3c-2.1-1.7-2-4.9,0.2-6.5l27.1-20
			c1.5-1.1,3.5-1,4.9,0.1c3.4,2.8,7.5,6.2,12.3,10.2c2.1,1.7,2,4.9-0.2,6.5l-27,20.2C220.9,341.1,218.9,341.1,217.5,339.9z"/>
		
			<path id="XMLID_164_" fill="none" stroke="#0000FF" stroke-width="2" stroke-linecap="round" stroke-linejoin="round" stroke-miterlimit="10" d="
			M217.5,339.9c-6-5-10-8.3-12.5-10.3c-2.1-1.7-2-4.9,0.2-6.5l27.1-20c1.5-1.1,3.5-1,4.9,0.1c3.4,2.8,7.5,6.2,12.3,10.2
			c2.1,1.7,2,4.9-0.2,6.5l-27,20.2C220.9,341.1,218.9,341.1,217.5,339.9z"/>
	</g>
	<g id="XMLID_133_" class="key">
		<path id="XMLID_161_" opacity="0.5" fill="#0000FF" d="M282.7,293.4c-5.7-5-9.4-8.3-11.8-10.4c-1.9-1.7-1.8-4.9,0.3-6.4l26.4-19.4
			c1.4-1.1,3.4-1,4.7,0.2c3.2,2.8,7.1,6.2,11.7,10.2c1.9,1.7,1.8,4.9-0.3,6.4l-26.3,19.5C286,294.6,284,294.6,282.7,293.4z"/>
		
			<path id="XMLID_160_" fill="none" stroke="#0000FF" stroke-width="2" stroke-linecap="round" stroke-linejoin="round" stroke-miterlimit="10" d="
			M282.7,293.4c-5.7-5-9.4-8.3-11.8-10.4c-1.9-1.7-1.8-4.9,0.3-6.4l26.4-19.4c1.4-1.1,3.4-1,4.7,0.2c3.2,2.8,7.1,6.2,11.7,10.2
			c1.9,1.7,1.8,4.9-0.3,6.4l-26.3,19.5C286,294.6,284,294.6,282.7,293.4z"/>
	</g>
	<g id="XMLID_129_" class="key">
		<path id="XMLID_157_" opacity="0.5" fill="#0000FF" d="M811.8,157.8C811.8,157.8,811.8,157.8,811.8,157.8"/>
		
			<path id="XMLID_156_" fill="none" stroke="#0000FF" stroke-width="2" stroke-linecap="round" stroke-linejoin="round" stroke-miterlimit="10" d="
			M811.8,157.8C811.8,157.8,811.8,157.8,811.8,157.8"/>
	</g>
	<g id="XMLID_125_" class="key">
		<path id="XMLID_153_" opacity="0.5" fill="#0000FF" d="M303,398.7l-24.9,18.6c-1.9,1.4-1.9,4.2-0.1,5.7c5,3.9,14,11,19.9,15.5
			c1.4,1,3.3,1.1,4.6,0l24.8-18.8c1.9-1.4,1.9-4.2,0-5.7c-6.4-4.9-15.5-12.1-19.7-15.3C306.3,397.7,304.4,397.7,303,398.7z"/>
		
			<path id="XMLID_152_" fill="none" stroke="#0000FF" stroke-width="2" stroke-linecap="round" stroke-linejoin="round" stroke-miterlimit="10" d="
			M303,398.7l-24.9,18.6c-1.9,1.4-1.9,4.2-0.1,5.7c5,3.9,14,11,19.9,15.5c1.4,1,3.3,1.1,4.6,0l24.8-18.8c1.9-1.4,1.9-4.2,0-5.7
			c-6.4-4.9-15.5-12.1-19.7-15.3C306.3,397.7,304.4,397.7,303,398.7z"/>
	</g>
	<g id="XMLID_121_" class="key">
		<path id="XMLID_149_" opacity="0.5" fill="#0000FF" d="M361,355.6l-24.7,18.1c-1.9,1.4-1.9,4.1,0,5.6c5,3.9,13.9,10.8,19.7,15.2
			c1.3,1,3.2,1,4.6,0l24.6-18.3c1.9-1.4,1.9-4.1,0-5.6c-6.3-4.8-15.4-11.8-19.5-15C364.3,354.6,362.4,354.6,361,355.6z"/>
		
			<path id="XMLID_148_" fill="none" stroke="#0000FF" stroke-width="2" stroke-linecap="round" stroke-linejoin="round" stroke-miterlimit="10" d="
			M361,355.6l-24.7,18.1c-1.9,1.4-1.9,4.1,0,5.6c5,3.9,13.9,10.8,19.7,15.2c1.3,1,3.2,1,4.6,0l24.6-18.3c1.9-1.4,1.9-4.1,0-5.6
			c-6.3-4.8-15.4-11.8-19.5-15C364.3,354.6,362.4,354.6,361,355.6z"/>
	</g>
	<g id="XMLID_117_" class="key">
		<path id="XMLID_145_" opacity="0.5" fill="#0000FF" d="M418.6,312.7l-24.5,17.9c-1.9,1.4-1.9,4.1,0,5.5c5,3.8,13.8,10.7,19.6,15
			c1.3,1,3.2,1,4.5,0l24.4-18.1c1.9-1.4,1.9-4.1,0-5.5c-6.3-4.8-15.3-11.7-19.4-14.9C421.8,311.7,419.9,311.7,418.6,312.7z"/>
		
			<path id="XMLID_144_" fill="none" stroke="#0000FF" stroke-width="2" stroke-linecap="round" stroke-linejoin="round" stroke-miterlimit="10" d="
			M418.6,312.7l-24.5,17.9c-1.9,1.4-1.9,4.1,0,5.5c5,3.8,13.8,10.7,19.6,15c1.3,1,3.2,1,4.5,0l24.4-18.1c1.9-1.4,1.9-4.1,0-5.5
			c-6.3-4.8-15.3-11.7-19.4-14.9C421.8,311.7,419.9,311.7,418.6,312.7z"/>
	</g>
	<g id="XMLID_113_" class="key">
		<path id="XMLID_142_" opacity="0.5" fill="#0000FF" d="M474.6,270.5l-24.1,17.6c-1.8,1.4-1.9,4,0,5.4c4.9,3.7,13.6,10.5,19.2,14.8
			c1.3,1,3.1,1,4.5,0l23.9-17.8c1.8-1.4,1.8-4,0-5.4c-6.2-4.7-15-11.5-19-14.6C477.7,269.5,475.9,269.5,474.6,270.5z"/>
		
			<path id="XMLID_140_" fill="none" stroke="#0000FF" stroke-width="2" stroke-linecap="round" stroke-linejoin="round" stroke-miterlimit="10" d="
			M474.6,270.5l-24.1,17.6c-1.8,1.4-1.9,4,0,5.4c4.9,3.7,13.6,10.5,19.2,14.8c1.3,1,3.1,1,4.5,0l23.9-17.8c1.8-1.4,1.8-4,0-5.4
			c-6.2-4.7-15-11.5-19-14.6C477.7,269.5,475.9,269.5,474.6,270.5z"/>
	</g>
	<g id="XMLID_109_" class="key">
		<path id="XMLID_134_" opacity="0.5" fill="#0000FF" d="M529.1,229.9l-24,17.3c-1.8,1.3-1.9,3.9,0,5.3c4.8,3.7,13.5,10.3,19.1,14.5
			c1.3,1,3.1,1,4.4,0l23.8-17.4c1.8-1.3,1.8-4,0-5.3c-6.1-4.6-14.9-11.3-19-14.3C532.2,229,530.4,229,529.1,229.9z"/>
		
			<path id="XMLID_132_" fill="none" stroke="#0000FF" stroke-width="2" stroke-linecap="round" stroke-linejoin="round" stroke-miterlimit="10" d="
			M529.1,229.9l-24,17.3c-1.8,1.3-1.9,3.9,0,5.3c4.8,3.7,13.5,10.3,19.1,14.5c1.3,1,3.1,1,4.4,0l23.8-17.4c1.8-1.3,1.8-4,0-5.3
			c-6.1-4.6-14.9-11.3-19-14.3C532.2,229,530.4,229,529.1,229.9z"/>
	</g>
	<g id="XMLID_105_" class="key">
		<path id="XMLID_130_" opacity="0.5" fill="#0000FF" d="M584.2,188.6l-23.7,17.1c-1.8,1.3-1.8,3.9,0,5.3
			c4.8,3.6,13.4,10.2,18.9,14.3c1.3,1,3.1,1,4.4,0l23.6-17.2c1.8-1.3,1.8-3.9,0-5.3c-6.1-4.6-14.8-11.1-18.8-14.2
			C587.3,187.7,585.5,187.7,584.2,188.6z"/>
		
			<path id="XMLID_128_" fill="none" stroke="#0000FF" stroke-width="2" stroke-linecap="round" stroke-linejoin="round" stroke-miterlimit="10" d="
			M584.2,188.6l-23.7,17.1c-1.8,1.3-1.8,3.9,0,5.3c4.8,3.6,13.4,10.2,18.9,14.3c1.3,1,3.1,1,4.4,0l23.6-17.2c1.8-1.3,1.8-3.9,0-5.3
			c-6.1-4.6-14.8-11.1-18.8-14.2C587.3,187.7,585.5,187.7,584.2,188.6z"/>
	</g>
	<g id="XMLID_101_" class="key">
		<path id="XMLID_126_" opacity="0.5" fill="#0000FF" d="M642.1,145l-23.7,17.1c-1.8,1.3-1.8,3.9,0,5.3c4.8,3.6,13.4,10.2,18.9,14.3
			c1.3,1,3.1,1,4.4,0l23.6-17.2c1.8-1.3,1.8-3.9,0-5.3c-6.1-4.6-14.8-11.1-18.8-14.2C645.2,144.1,643.4,144.1,642.1,145z"/>
		
			<path id="XMLID_124_" fill="none" stroke="#0000FF" stroke-width="2" stroke-linecap="round" stroke-linejoin="round" stroke-miterlimit="10" d="
			M642.1,145l-23.7,17.1c-1.8,1.3-1.8,3.9,0,5.3c4.8,3.6,13.4,10.2,18.9,14.3c1.3,1,3.1,1,4.4,0l23.6-17.2c1.8-1.3,1.8-3.9,0-5.3
			c-6.1-4.6-14.8-11.1-18.8-14.2C645.2,144.1,643.4,144.1,642.1,145z"/>
	</g>
	<g id="XMLID_97_" class="key">
		<path id="XMLID_122_" opacity="0.5" fill="#0000FF" d="M622.1,218l-23.9,18.2c-1.8,1.4-1.9,4.1-0.1,5.6c4.8,3.8,13.4,10.7,19,15.1
			c1.3,1,3.1,1,4.4,0l23.8-18.3c1.8-1.4,1.8-4.1,0-5.6c-6.1-4.8-14.8-11.7-18.8-14.9C625.2,217,623.4,217,622.1,218z"/>
		
			<path id="XMLID_120_" fill="none" stroke="#0000FF" stroke-width="2" stroke-linecap="round" stroke-linejoin="round" stroke-miterlimit="10" d="
			M622.1,218l-23.9,18.2c-1.8,1.4-1.9,4.1-0.1,5.6c4.8,3.8,13.4,10.7,19,15.1c1.3,1,3.1,1,4.4,0l23.8-18.3c1.8-1.4,1.8-4.1,0-5.6
			c-6.1-4.8-14.8-11.7-18.8-14.9C625.2,217,623.4,217,622.1,218z"/>
	</g>
	<g id="XMLID_93_" class="key">
		<path id="XMLID_118_" opacity="0.5" fill="#0000FF" d="M679.1,174.9L655.2,193c-1.8,1.4-1.9,4.1-0.1,5.6
			c4.8,3.8,13.4,10.7,19,15.1c1.3,1,3.1,1,4.4,0l23.8-18.3c1.8-1.4,1.8-4.1,0-5.6c-6.1-4.8-14.8-11.7-18.8-14.9
			C682.2,173.9,680.4,173.9,679.1,174.9z"/>
		
			<path id="XMLID_116_" fill="none" stroke="#0000FF" stroke-width="2" stroke-linecap="round" stroke-linejoin="round" stroke-miterlimit="10" d="
			M679.1,174.9L655.2,193c-1.8,1.4-1.9,4.1-0.1,5.6c4.8,3.8,13.4,10.7,19,15.1c1.3,1,3.1,1,4.4,0l23.8-18.3c1.8-1.4,1.8-4.1,0-5.6
			c-6.1-4.8-14.8-11.7-18.8-14.9C682.2,173.9,680.4,173.9,679.1,174.9z"/>
	</g>
	<g id="XMLID_85_" class="key">
		<path id="XMLID_114_" opacity="0.5" fill="#0000FF" d="M395.1,251l-24.9,18.9c-1.9,1.5-1.9,4.3-0.1,5.8c5,4,13.9,11.1,19.7,15.7
			c1.3,1.1,3.2,1.1,4.6,0l24.7-19.1c1.9-1.5,1.9-4.3,0-5.8c-6.3-5-15.4-12.2-19.6-15.5C398.4,250,396.5,250,395.1,251z"/>
		
			<path id="XMLID_112_" fill="none" stroke="#0000FF" stroke-width="2" stroke-linecap="round" stroke-linejoin="round" stroke-miterlimit="10" d="
			M395.1,251l-24.9,18.9c-1.9,1.5-1.9,4.3-0.1,5.8c5,4,13.9,11.1,19.7,15.7c1.3,1.1,3.2,1.1,4.6,0l24.7-19.1c1.9-1.5,1.9-4.3,0-5.8
			c-6.3-5-15.4-12.2-19.6-15.5C398.4,250,396.5,250,395.1,251z"/>
	</g>
	<g id="XMLID_77_" class="key">
		<path id="XMLID_106_" opacity="0.5" fill="#0000FF" d="M279.7,337.8l-25.2,19.2c-1.9,1.5-2,4.4-0.1,5.9c5.1,4,14.1,11.3,20,15.9
			c1.4,1.1,3.3,1.1,4.7,0l25.1-19.3c1.9-1.5,1.9-4.4,0-5.9c-6.4-5.1-15.6-12.4-19.9-15.7C282.9,336.7,281,336.7,279.7,337.8z"/>
		
			<path id="XMLID_104_" fill="none" stroke="#0000FF" stroke-width="2" stroke-linecap="round" stroke-linejoin="round" stroke-miterlimit="10" d="
			M279.7,337.8l-25.2,19.2c-1.9,1.5-2,4.4-0.1,5.9c5.1,4,14.1,11.3,20,15.9c1.4,1.1,3.3,1.1,4.7,0l25.1-19.3c1.9-1.5,1.9-4.4,0-5.9
			c-6.4-5.1-15.6-12.4-19.9-15.7C282.9,336.7,281,336.7,279.7,337.8z"/>
	</g>
	<g id="XMLID_73_" class="key">
		<path id="XMLID_102_" opacity="0.5" fill="#0000FF" d="M223.1,379.5l-25.7,19.7c-2,1.5-2,4.5-0.1,6c5.1,4.1,14.4,11.6,20.4,16.3
			c1.4,1.1,3.3,1.1,4.7,0l25.5-19.9c2-1.5,2-4.5,0-6c-6.5-5.2-15.9-12.7-20.2-16.1C226.4,378.5,224.5,378.5,223.1,379.5z"/>
		
			<path id="XMLID_100_" fill="none" stroke="#0000FF" stroke-width="2" stroke-linecap="round" stroke-linejoin="round" stroke-miterlimit="10" d="
			M223.1,379.5l-25.7,19.7c-2,1.5-2,4.5-0.1,6c5.1,4.1,14.4,11.6,20.4,16.3c1.4,1.1,3.3,1.1,4.7,0l25.5-19.9c2-1.5,2-4.5,0-6
			c-6.5-5.2-15.9-12.7-20.2-16.1C226.4,378.5,224.5,378.5,223.1,379.5z"/>
	</g>
	<g id="XMLID_69_" class="key">
		<path id="XMLID_98_" opacity="0.5" fill="#0000FF" d="M116.2,466.1c-2-1.6-1.9-4.7,0.1-6.3l52.3-39c1.5-1.1,3.5-1.1,4.9,0.1
			l19.7,16c2,1.6,2,4.7-0.1,6.3l-52,39.3c-1.5,1.1-3.5,1.1-4.9-0.1C129.8,477.2,121.1,470.1,116.2,466.1z"/>
		
			<path id="XMLID_96_" fill="none" stroke="#0000FF" stroke-width="2" stroke-linecap="round" stroke-linejoin="round" stroke-miterlimit="10" d="
			M116.2,466.1c-2-1.6-1.9-4.7,0.1-6.3l52.3-39c1.5-1.1,3.5-1.1,4.9,0.1l19.7,16c2,1.6,2,4.7-0.1,6.3l-52,39.3
			c-1.5,1.1-3.5,1.1-4.9-0.1C129.8,477.2,121.1,470.1,116.2,466.1z"/>
	</g>
	<g id="XMLID_65_" class="key">
		<path id="XMLID_95_" opacity="0.5" fill="#0000FF" d="M298.7,468.3l-26.2,20.1c-2,1.5-2,4.6-0.1,6.1c5.2,4.2,14.7,11.8,20.8,16.6
			c1.4,1.1,3.4,1.1,4.8,0l26-20.3c2-1.6,2-4.6,0-6.1c-6.7-5.3-16.2-12.9-20.6-16.4C302.1,467.2,300.1,467.2,298.7,468.3z"/>
		
			<path id="XMLID_94_" fill="none" stroke="#0000FF" stroke-width="2" stroke-linecap="round" stroke-linejoin="round" stroke-miterlimit="10" d="
			M298.7,468.3l-26.2,20.1c-2,1.5-2,4.6-0.1,6.1c5.2,4.2,14.7,11.8,20.8,16.6c1.4,1.1,3.4,1.1,4.8,0l26-20.3c2-1.6,2-4.6,0-6.1
			c-6.7-5.3-16.2-12.9-20.6-16.4C302.1,467.2,300.1,467.2,298.7,468.3z"/>
	</g>
	
		<text id="XMLID_8_" transform="matrix(0.673 -0.536 0.7776 0.6288 576.985 212.4525)" fill="#FFFFFF" font-family="'AvenirNextCyr-Medium'" font-size="10px">P</text>
	
		<text id="XMLID_7_" transform="matrix(0.673 -0.536 0.7776 0.6288 283.9853 284.5927)" fill="#FFFFFF" font-family="'AvenirNextCyr-Medium'" font-size="10px">C</text>
	
		<text id="XMLID_10_" transform="matrix(0.673 -0.536 0.7776 0.6288 388.5302 278.5478)" fill="#FFFFFF" font-family="'AvenirNextCyr-Medium'" font-size="10px">B</text>
	
		<text id="XMLID_11_" transform="matrix(0.673 -0.536 0.7776 0.6288 152.014 379.6016)" fill="#FFFFFF" font-family="'AvenirNextCyr-Medium'" font-size="10px">B</text>
	
		
	
		<text id="XMLID_12_" transform="matrix(0.673 -0.536 0.7776 0.6288 272.66 366.5667)" fill="#FFFFFF" font-family="'AvenirNextCyr-Medium'" font-size="10px">D</text>
	
		<text id="XMLID_14_" transform="matrix(0.673 -0.536 0.7776 0.6288 354.1689 381.4934)" fill="#FFFFFF" font-family="'AvenirNextCyr-Medium'" font-size="10px">&amp;</text>
	
		<text id="XMLID_18_" transform="matrix(0.673 -0.536 0.7776 0.6288 213.878 409.1924)" fill="#FFFFFF" font-family="'AvenirNextCyr-Medium'" font-size="10px">$</text>
	
		<text id="XMLID_19_" transform="matrix(0.673 -0.536 0.7776 0.6288 295.6926 427.5374)" fill="#FFFFFF" font-family="'AvenirNextCyr-Medium'" font-size="10px">$</text>
	
		<text id="XMLID_20_" transform="matrix(0.673 -0.536 0.7776 0.6288 217.9759 332.8014)" fill="#FFFFFF" font-family="'AvenirNextCyr-Medium'" font-size="10px">$</text>
	
		<text id="XMLID_21_" transform="matrix(0.673 -0.536 0.7776 0.6288 347.514 240.0439)" fill="#FFFFFF" font-family="'AvenirNextCyr-Medium'" font-size="10px">$</text>
	
		<text id="XMLID_15_" transform="matrix(0.673 -0.536 0.7776 0.6288 412.0531 338.5003)" fill="#FFFFFF" font-family="'AvenirNextCyr-Medium'" font-size="10px">$</text>
	
		<text id="XMLID_138_" transform="matrix(0.673 -0.536 0.7776 0.6288 415.0674 189.0105)" fill="#FFFFFF" font-family="'AvenirNextCyr-Medium'" font-size="10px">$</text>
	
		<text id="XMLID_139_" transform="matrix(0.673 -0.536 0.7776 0.6288 468.0705 297.1053)" fill="#FFFFFF" font-family="'AvenirNextCyr-Medium'" font-size="10px">$</text>
	
		<text class="keyletter"  id="XMLID_254_" transform="matrix(0.673 -0.536 0.7776 0.6288 503.0717 191.1037)" fill="#FFFFFF" font-family="'AvenirNextCyr-Medium'" font-size="10px">$</text>
	
		<text id="XMLID_255_" transform="matrix(0.673 -0.536 0.7776 0.6288 523.514 256.2478)" fill="#FFFFFF" font-family="'AvenirNextCyr-Medium'" font-size="10px">$</text>
	
		<text id="XMLID_256_" transform="matrix(0.673 -0.536 0.7776 0.6288 616.9758 244.66)" fill="#FFFFFF" font-family="'AvenirNextCyr-Medium'" font-size="10px">$</text>
</g>

<style>
	.buttonkey:hover {
		fill:red;
	}

	.buttonkey:active {
		animation: anim 0.25s infinite linear;
		
	}

	.keyletter:hover {
		fill:red;
	}

	.keyletter:active {
		animation: anim 0.25s infinite linear;
	}

	@keyframes anim {
		0% {
			transform: translate(0,0);
			-ms-transform: translate(0,0);
			-webkit-transform: translate(0,0);
			-o-transform: translate(0,0);
			-moz-transform: translate(0,0);
			}
		50% {
			transform: translate(0,3px);
			-ms-transform: translate(0,3px); /* IE 9 */
			-webkit-transform: translate(0,3px); /* Safari and Chrome */
			-o-transform: translate(0,3px); /* Opera */
			-moz-transform: translate(0,3px); /* Firefox */
			}
		100% {
			transform: translate(0,0);
			-ms-transform: translate(0,0);
			-webkit-transform: translate(0,0);
			-o-transform: translate(0,0);
			-moz-transform: translate(0,0);
			}
	}

</style>

<g class="buttonkey">
	<path opacity="0.5" fill="#0000FF" d="M451.7,208l-24.8,18.8c-1.9,1.4-1.9,4.3-0.1,5.8c5,4,13.9,11.1,19.7,15.7
	c1.3,1.1,3.2,1.1,4.6,0l24.7-19c1.9-1.5,1.9-4.3,0-5.8c-6.3-5-15.4-12.2-19.5-15.5C454.9,207,453,207,451.7,208z"/>

	<path fill="none" stroke="#0000FF" stroke-width="2" stroke-linecap="round" stroke-linejoin="round" stroke-miterlimit="10" d="
	M451.7,208l-24.8,18.8c-1.9,1.4-1.9,4.3-0.1,5.8c5,4,13.9,11.1,19.7,15.7c1.3,1.1,3.2,1.1,4.6,0l24.7-19c1.9-1.5,1.9-4.3,0-5.8
	c-6.3-5-15.4-12.2-19.5-15.5C454.9,207,453,207,451.7,208z"/>

	<text id="XMLID_9_" transform="matrix(0.673 -0.536 0.7776 0.6288 445.6313 236.6098)" fill="#FFFFFF" font-family="'AvenirNextCyr-Medium'" font-size="10px">K</text>
</g>

<g class="buttonkey">
<path  opacity="0.5" fill="#0000FF" d="M336.2,294.7L311,313.9c-1.9,1.5-2,4.4-0.1,5.9c5.1,4,14.1,11.3,20,15.9c1.4,1.1,3.3,1.1,4.7,0l25.1-19.3c1.9-1.5,1.9-4.4,0-5.9c-6.4-5.1-15.6-12.4-19.9-15.7C339.5,293.7,337.6,293.6,336.2,294.7z"/>

<path fill="none" stroke="#0000FF" stroke-width="2" stroke-linecap="round" stroke-linejoin="round" stroke-miterlimit="10" d="M336.2,294.7L311,313.9c-1.9,1.5-2,4.4-0.1,5.9c5.1,4,14.1,11.3,20,15.9c1.4,1.1,3.3,1.1,4.7,0l25.1-19.3c1.9-1.5,1.9-4.4,0-5.9c-6.4-5.1-15.6-12.4-19.9-15.7C339.5,293.7,337.6,293.6,336.2,294.7z"/>

<text id="XMLID_17_" transform="matrix(0.673 -0.536 0.7776 0.6288 328.7181 321.3901)" fill="#FFFFFF" font-family="'AvenirNextCyr-Medium'" font-size="10px">$</text>
</g>
</svg>
