<?xml version="1.0" encoding="utf-8"?>
<!-- Generator: Adobe Illustrator 19.0.0, SVG Export Plug-In . SVG Version: 6.00 Build 0)  -->
<svg version="1.1" id="Слой_1" xmlns="http://www.w3.org/2000/svg" xmlns:xlink="http://www.w3.org/1999/xlink" x="0px" y="0px"
	 viewBox="0 0 128 128" enable-background="new 0 0 128 128" xml:space="preserve">
<g id="XMLID_1_">
	<path id="XMLID_12_" fill="#0000FF" d="M121.9,57.9C121.9,26,95.9,0,64,0C32.1,0,6.1,26,6.1,57.9v24.3c0,11.8,9.6,21.5,21.5,21.5
		c4.9,0,8.9,4,8.9,8.9v12.2c0,1.8,1.4,3.2,3.2,3.2h48.6c1.8,0,3.2-1.4,3.2-3.2v-12.2c0-4.9,4-8.9,8.9-8.9c11.8,0,21.5-9.6,21.5-21.5
		V57.9z"/>
</g>
<g id="XMLID_2_">
	<path id="XMLID_6_" fill="#FFFFFF" stroke="#FFFFFF" stroke-miterlimit="10" d="M121.9,57.9C121.9,26,95.9,0,64,0
		C32.1,0,6.1,26,6.1,57.9v24.3c0,11.8,9.6,21.5,21.5,21.5c4.9,0,8.9,4,8.9,8.9v12.2c0,1.8,1.4,3.2,3.2,3.2h48.6
		c1.8,0,3.2-1.4,3.2-3.2v-12.2c0-4.9,4-8.9,8.9-8.9c11.8,0,21.5-9.6,21.5-21.5V57.9z M100.5,97.3c-8.5,0-15.4,6.9-15.4,15.4v8.9
		h-5.7v-8.9c0-1.8-1.4-3.2-3.2-3.2c-1.8,0-3.2,1.4-3.2,3.2v8.9h-5.7v-8.9c0-1.8-1.4-3.2-3.2-3.2s-3.2,1.4-3.2,3.2v8.9h-5.7v-8.9
		c0-1.8-1.4-3.2-3.2-3.2c-1.8,0-3.2,1.4-3.2,3.2v8.9h-5.7v-8.9c0-8.5-6.9-15.4-15.4-15.4c-8.3,0-15-6.7-15-15l0-24.3
		C12.5,29.5,35.6,6.4,64,6.4c28.4,0,51.5,23.1,51.5,51.5l0,24.3C115.5,90.5,108.8,97.3,100.5,97.3z"/>
	<path id="XMLID_5_" fill="#FFFFFF" stroke="#FFFFFF" stroke-miterlimit="10" d="M67.1,79.4c-0.4-1.3-1.7-2.2-3.1-2.2
		c-1.4,0-2.6,0.9-3.1,2.2l-6.1,18.2c-0.3,1-0.2,2.1,0.4,2.9c0.6,0.8,1.6,1.3,2.6,1.3h12.2c1,0,2-0.5,2.6-1.3
		c0.6-0.8,0.8-1.9,0.4-2.9L67.1,79.4z"/>
	<path id="XMLID_4_" fill="#FFFFFF" stroke="#FFFFFF" stroke-miterlimit="10" d="M37.9,55.3c-8.5,0-15.4,6.9-15.4,15.4
		c0,8.5,6.9,15.4,15.4,15.4s15.4-6.9,15.4-15.4C53.2,62.2,46.3,55.3,37.9,55.3z"/>
	<path id="XMLID_3_" fill="#FFFFFF" stroke="#FFFFFF" stroke-miterlimit="10" d="M90.1,55.3c-8.5,0-15.4,6.9-15.4,15.4
		c0,8.5,6.9,15.4,15.4,15.4c8.5,0,15.4-6.9,15.4-15.4C105.5,62.2,98.6,55.3,90.1,55.3z"/>
</g>
</svg>
