<?xml version="1.0" encoding="utf-8"?>
<!-- Generator: Adobe Illustrator 19.0.0, SVG Export Plug-In . SVG Version: 6.00 Build 0)  -->
<svg version="1.1" id="quote" width="80" height="64" xmlns="http://www.w3.org/2000/svg" xmlns:xlink="http://www.w3.org/1999/xlink" x="0px" y="0px"
	 viewBox="0 0 80 64" style="enable-background:new 0 0 80 64;" xml:space="preserve">
<style>
	.b_white {
		fill:blue;
	}
</style>
<path class="b_white" d="M76.6,2.1L76.6,2.1c0,0.8-0.5,1.6-1.3,1.9c-6.9,3.1-12,7.2-15.2,12.1C56.7,21.3,55,26.6,55,32
	c0,1.1,0.3,1.9,0.7,2.4c0.4,0.5,0.9,0.8,1.3,0.8c0.4,0,1-0.3,1.8-0.7c1.9-1.1,4.2-1.6,7-1.6c3.9,0,7.2,1.5,9.9,4.5
	c2.9,3,4.2,6.4,4.2,10.5c0,4.3-1.6,8.1-4.8,11.3C71.9,62.4,68,64,63.3,64c-5.6,0-10.4-2.1-14.3-6.4s-5.9-10.2-5.9-17.7
	c0-9.3,2.8-17.6,8.4-24.7c5.1-6.6,12.5-11.6,22.2-15C75.1-0.4,76.6,0.6,76.6,2.1z"/>
<path class="b_white" d="M33.4,2.1L33.4,2.1c0,0.8-0.5,1.6-1.3,1.9C25.3,7.1,20.2,11.2,17,16.1c-3.4,5.2-5.1,10.5-5.1,15.9
	c0,1.1,0.3,1.9,0.7,2.4c0.4,0.5,0.9,0.8,1.3,0.8c0.4,0,1-0.3,1.8-0.7c1.9-1.1,4.2-1.6,7-1.6c3.9,0,7.2,1.5,9.9,4.5
	c2.9,3,4.2,6.4,4.2,10.5c0,4.3-1.6,8.1-4.8,11.3c-3.2,3.2-7.2,4.8-11.8,4.8c-5.6,0-10.4-2.1-14.3-6.4C2,53.3,0,47.3,0,39.8
	c0-9.3,2.8-17.6,8.4-24.7C13.5,8.5,21,3.6,30.6,0.1C32-0.4,33.4,0.6,33.4,2.1z"/>
</svg>
