<?xml version="1.0" encoding="UTF-8" standalone="no"?>
<svg width="188px" height="146px" viewBox="0 0 188 146" version="1.1" xmlns="http://www.w3.org/2000/svg" xmlns:xlink="http://www.w3.org/1999/xlink" xmlns:sketch="http://www.bohemiancoding.com/sketch/ns">
    <!-- Generator: Sketch 3.3.2 (12043) - http://www.bohemiancoding.com/sketch -->
    <title>Imported Layers Copy 3</title>
    <desc>Created with Sketch.</desc>
    <defs></defs>
    <g id="Главная-страница" stroke="none" stroke-width="1" fill="none" fill-rule="evenodd" sketch:type="MSPage">
        <g id="Main-(1920x1080)" sketch:type="MSArtboardGroup" transform="translate(-780.000000, -2374.000000)" fill="#FFFFFF">
            <path d="M959.166792,2419.33586 C961.604526,2418.9938 963.588448,2420.4877 963.97907,2423.26587 C964.419303,2426.3934 962.025959,2429.56472 957.850792,2430.15029 C955.414626,2430.49235 953.429659,2428.9995 953.037992,2426.21924 C952.598281,2423.09275 954.991626,2419.92142 959.166792,2419.33586 L959.166792,2419.33586 Z M967.848214,2448.23656 C967.848214,2448.23656 963.332559,2466.58563 954.633903,2467.80682 C948.922881,2468.60773 945.448014,2466.44015 944.334637,2460.03857 C942.234259,2465.06984 939.036692,2469.99525 934.450014,2470.6387 C928.533759,2471.46881 925.010848,2469.12864 924.032726,2462.17956 C923.419637,2457.81885 924.751303,2449.43689 927.009392,2439.55947 C924.951837,2443.72777 922.067081,2447.85696 918.108114,2450.46932 C918.134748,2450.632 918.169737,2450.78322 918.193237,2450.95268 C919.855992,2462.76565 909.393792,2474.15521 897.561281,2475.81544 C890.949948,2476.74306 887.61817,2473.24271 887.61817,2473.24271 L877.885514,2517.55371 C877.885514,2517.55371 875.993503,2519.23636 873.210059,2519.62691 C870.425048,2520.01798 868.587348,2519.56799 868.587348,2519.56799 L880.532659,2467.50647 C877.690203,2473.14572 873.563081,2479.18282 868.677692,2479.8685 C863.458603,2480.60111 859.934648,2478.26094 858.956526,2471.31186 C858.801948,2470.21217 858.755992,2469.11404 858.762781,2468.02425 C855.717181,2474.62971 850.952948,2482.35572 845.082648,2483.17957 C838.749137,2484.06809 835.574548,2481.6789 834.596426,2474.72982 C834.434537,2473.57747 834.387014,2472.42563 834.402159,2471.28422 C829.356448,2479.10357 821.302214,2487.93396 810.061381,2489.5118 C795.445948,2491.56258 782.744459,2482.00584 780.396548,2465.32742 C775.994737,2434.05475 809.188748,2392.54642 832.853248,2389.22545 C843.292992,2387.76075 851.231814,2393.7332 852.308114,2401.3789 C853.579203,2410.41213 849.782126,2418.74091 838.646259,2420.30415 C835.166692,2420.79221 830.746603,2419.64037 830.746603,2419.64037 C830.746603,2419.64037 830.001392,2419.39009 829.854648,2418.3488 C829.707903,2417.3049 830.354937,2416.86012 830.354937,2416.86012 C830.354937,2416.86012 843.285681,2412.92072 842.062637,2404.23372 C841.133603,2397.6314 835.870126,2395.53473 830.650514,2396.26734 C815.686237,2398.36713 786.349359,2426.93255 791.044137,2460.29042 C793.04947,2474.53585 802.574803,2481.70445 813.36287,2480.19075 C828.257692,2478.10034 837.017448,2459.15319 837.017448,2459.15319 L837.082726,2459.14432 C838.575759,2455.47347 840.132503,2453.04778 840.132503,2453.04778 C840.132503,2453.04778 842.025037,2451.36513 844.810048,2450.97458 C847.591926,2450.58403 849.43067,2451.03455 849.43067,2451.03455 C849.43067,2451.03455 842.167603,2462.96744 843.448614,2472.07106 C843.791192,2474.50248 844.84347,2475.41863 846.721381,2475.15479 C853.333759,2474.22665 860.578548,2457.61862 860.578548,2457.61862 C860.578548,2457.61862 860.651659,2457.56283 860.769681,2457.49452 C862.425126,2452.84547 864.492603,2449.6293 864.492603,2449.6293 C864.492603,2449.6293 866.384614,2447.94665 869.169103,2447.5561 C871.954114,2447.16502 873.790248,2447.61606 873.790248,2447.61606 C873.790248,2447.61606 866.526659,2459.54895 867.808192,2468.65257 C868.150248,2471.084 869.481392,2471.96104 871.081481,2471.7363 C875.676514,2471.09182 881.365603,2460.69349 882.664892,2458.2094 L885.302637,2446.70877 C885.302637,2446.70877 887.19517,2445.02612 889.979137,2444.63557 C892.764148,2444.24502 894.601326,2444.69554 894.601326,2444.69554 L891.925459,2454.42644 C891.925459,2454.42644 898.631314,2443.06712 905.591492,2442.08996 C910.546859,2441.3949 914.52097,2442.23075 916.674614,2446.05855 C924.653126,2441.08621 930.506192,2425.48402 930.506192,2425.48402 L930.54797,2425.47777 C936.945714,2401.74495 945.648026,2376.23249 945.648026,2376.23249 C945.648026,2376.23249 947.540559,2374.54984 950.323481,2374.15929 C953.10797,2373.76874 954.946192,2374.21925 954.946192,2374.21925 C954.946192,2374.21925 930.879581,2445.2738 932.884914,2459.52027 C933.227492,2461.95222 934.557592,2462.82874 936.158726,2462.604 C941.377292,2461.87192 944.886626,2448.97803 944.886626,2448.97803 L944.982714,2448.96447 C946.62197,2442.53161 949.752692,2437.66512 949.752692,2437.66512 C949.752692,2437.66512 951.644703,2435.98247 954.429192,2435.59192 C957.213681,2435.20085 959.050859,2435.65188 959.050859,2435.65188 C959.050859,2435.65188 951.787792,2447.58477 953.068803,2456.6884 C953.411381,2459.11982 954.999459,2460.31545 956.391181,2460.11992 C962.30587,2459.2898 965.265826,2447.53576 965.265826,2447.53576 C965.265826,2447.53576 966.032448,2446.93142 966.847114,2447.17337 C967.661781,2447.41166 967.848214,2448.23656 967.848214,2448.23656 L967.848214,2448.23656 Z M909.090903,2454.35552 C908.650148,2451.22747 906.66727,2449.73462 903.882259,2450.1257 C896.225437,2451.19984 890.397959,2461.23108 889.745181,2464.15682 L888.540414,2469.71212 C888.540414,2469.71212 891.907181,2470.93956 895.736637,2470.40197 C901.998081,2469.52388 910.167203,2462.00071 909.090903,2454.35552 L909.090903,2454.35552 Z" id="Imported-Layers-Copy-3" sketch:type="MSShapeGroup"></path>
        </g>
    </g>
</svg>