<?xml version="1.0" encoding="utf-8"?>
<!-- Generator: Adobe Illustrator 19.0.0, SVG Export Plug-In . SVG Version: 6.00 Build 0)  -->
<svg version="1.1" id="Слой_1" xmlns="http://www.w3.org/2000/svg" xmlns:xlink="http://www.w3.org/1999/xlink" x="0px" y="0px"
	 viewBox="0 0 152 90" enable-background="new 0 0 152 90" xml:space="preserve">
<g>
	<path d="M55.4,51.5c0-0.9-0.1-1.8-0.7-2.6c-0.9-1.2-2.1-1.2-3.1-1.2h-1.3v7.8h1C53,55.5,55.4,55.4,55.4,51.5L55.4,51.5z M16.7,64.9
		c0-1.3-1.1-1.3-1.7-1.3h-2.7v2.7h2.5C15.5,66.3,16.7,66.3,16.7,64.9L16.7,64.9z M0,90h152V0H0V90z M65.2,47.5v-2.7h10v2.6h-3.4V58
		h-3.3V47.4L65.2,47.5L65.2,47.5z M55,28.8h9.6v2.5h-6.4v2.4h6v2.5h-6v3.1h7v2.6H55V28.8L55,28.8z M48.8,61.1h3.1v5.4l4.9-5.4h3.9
		L56,66l5,8.3h-3.7l-3.5-6l-2,2.1v3.8h-3.1L48.8,61.1L48.8,61.1z M47,58.1V44.9h4.1c1.6,0,4,0.1,5.6,1.5c1.3,1.2,1.9,3,1.9,5
		c0,1.1-0.2,2-0.3,2.5c-1.2,4-4.8,4.2-6.2,4.2L47,58.1L47,58.1z M60.5,44.9h3.2v13.2h-3.2V44.9z M37.5,28.8h4.8l2,7.4l0.5,2.1
		c0.2-0.9,0.2-1,0.4-1.6l2.1-7.9H52V42h-3.1l0.2-9.4v-1.3L49,31.8c-0.2,0.7-0.2,0.8-0.3,1.4l-2.5,8.9h-2.8L41,33.5l-0.6-2.3
		c0.1,1,0.1,1.3,0.1,2.5l0.2,8.3h-3.2V28.8L37.5,28.8z M37.6,74.3h-3.1V61.1h3.2l2.8,4.9c1,1.8,1.3,2.4,2,3.6l-0.1-8.5h3.1v13.2
		h-3.2l-2.4-4.2c-1.2-1.9-1.4-2.3-2.3-4.2V74.3L37.6,74.3z M44,49.9v2.5h-6v3.1h7v2.6H34.8V44.9h9.6v2.5H38v2.4L44,49.9L44,49.9
		L44,49.9z M29,28.3c0.8,0,1.6,0.1,2.4,0.4c4,1.4,4.2,5.8,4.2,6.7c0,2.3-1,4.4-2.5,5.6c-1.3,1.1-2.7,1.4-4.1,1.4
		c-4.1,0-6.5-3.2-6.5-7C22.6,31.7,24.8,28.3,29,28.3L29,28.3z M21.4,44.9h5.9c1.4,0,3.1,0,4.3,1.3c0.6,0.7,1,1.7,1,2.9
		c0,2.6-1.8,3.3-2.7,3.6l3,5.3h-3.6l-2.6-4.8h-2.1V58h-3.3V44.8h0.1L21.4,44.9L21.4,44.9z M25.5,61.1h3.4l4.8,13.2h-3.5l-0.6-2.1
		h-4.8l-0.6,2.1h-3.5L25.5,61.1L25.5,61.1z M9.2,28.8h3.3v4.8h4.8v-4.8h3.3V42h-3.3v-5.7h-4.8V42H9.2V28.8L9.2,28.8z M19.7,68.6
		c0.5,0.5,0.7,1.2,0.7,2c0,1-0.5,2.4-2.2,3.2c-1,0.4-2,0.5-3.5,0.5H9.2V61.1h5c1.4,0,2.6,0.1,3.4,0.3c1.6,0.5,2.3,1.8,2.3,3
		c0,0.7-0.2,1.1-0.2,1.3c-0.6,1.3-1.8,1.6-2.5,1.7C17.9,67.6,19,67.8,19.7,68.6L19.7,68.6z M14.6,44.5c1.5,0,2.8,0.5,3.8,1.3
		c0.9,0.7,1.3,1.4,1.7,2.1l-2.6,1.3c-0.2-0.4-0.4-0.9-1-1.4s-1.3-0.6-1.8-0.6c-2.1,0-3.2,2-3.2,4.2c0,2.9,1.5,4.4,3.2,4.4
		s2.4-1.2,2.8-1.9l2.6,1.3c-0.5,0.8-0.9,1.5-2,2.2c-0.6,0.4-1.8,1.1-3.6,1.1c-3.4,0-6.2-2.5-6.2-7C8.2,47.6,10.9,44.5,14.6,44.5
		L14.6,44.5z M142.9,82H140V18l-16.7-6.3V82H9.2v-3h83.5V15.8l30.6-7.6l19.5,7.7V82H142.9L142.9,82z M15.1,68.7h-2.8v3.2h2.3
		c1.1,0,2.5-0.1,2.5-1.6C17.1,68.7,15.8,68.7,15.1,68.7L15.1,68.7z M27.1,64.3c-0.2,0.7-0.4,1.4-0.5,2c-0.3,1-0.8,2.5-1.1,3.5h3.3
		L27.1,64.3L27.1,64.3z M29.3,49.1c0-1.7-1.2-1.7-1.9-1.7h-2.8v3.5h2.7C27.8,50.9,29.3,50.9,29.3,49.1L29.3,49.1z M29.1,39.5
		c1.5,0,3.2-1.1,3.3-3.8c0.1-1.4-0.3-2.8-1.1-3.5c-0.6-0.6-1.4-1-2.3-1c-2,0-3.2,1.7-3.2,4.2C25.8,38.4,27.5,39.5,29.1,39.5
		L29.1,39.5z"/>
</g>
</svg>
