<?xml version="1.0" encoding="utf-8"?>
<!-- Generator: Adobe Illustrator 19.0.0, SVG Export Plug-In . SVG Version: 6.00 Build 0)  -->
<svg version="1.1" id="Слой_1" xmlns="http://www.w3.org/2000/svg" xmlns:xlink="http://www.w3.org/1999/xlink" x="0px" y="0px"
	 viewBox="0 0 172 88" enable-background="new 0 0 172 88" xml:space="preserve">
<g>
	<path id="XMLID_17_" d="M115.5,35.8c2.6,2.7,6.6,2.9,6.6,2.9l3.8,0.3c2.8,0.2,3.4,1.6,3.4,1.6c2.4,4.3,8.6,6.6,8.6,6.6
		c-3.9-2.2-6.7-7.2-6.7-7.2c-1.8-2.7-6.3-2.7-6.3-2.7h-2.6C118.8,37.2,115.5,35.8,115.5,35.8"/>
	<path id="XMLID_16_" d="M143.7,48.7c-2-0.9-4.5-1.1-4.5-1.1c2.4,0.8,3.2,1.6,3.2,1.6c1.8,1.1,0.6,3,0.6,3c-1.5,2.7-7.6,1.4-7.6,1.4
		c6.4,4.3,9.1,1.1,9.1,1.1c1.7-2,1.3-3,0.8-4.2c0,0,5.8,1.9,11.9-3.7C157.3,46.8,150.8,51.9,143.7,48.7"/>
	<path id="XMLID_15_" d="M33.2,2.9c0,0-3.8,0.5-5.6,0.4c0,0-0.4,0.1-0.4,0.3c0,0,0.1,0.5,0.9,0.5C28.2,4.1,31.5,4,33.2,2.9"/>
	<path id="XMLID_14_" d="M72.9,30.8c0,0,5.1,0.4,13.7,0c2.1-0.1,3.1,0.2,3.1,0.2c3.8,0.6,4.4,2.3,4.4,2.3s6.7,13.8,20,13.5h6.2
		c5.6,0,13.3,5.5,13.3,5.5c-1.6-1.2-4.7-4.2-4.7-4.2c-4-3.6-10.5-3.6-10.5-3.6h-6.6c-12.6,0-15.9-11.3-15.9-11.3
		c-1.6-3.5-5.3-3.3-5.3-3.3c-0.3,0-0.6,0-0.8,0c-12.5,0.6-16.5-0.4-16.5-0.4c-2.5-0.7-5.4-1.7-8.1-3.2c0,0,0.6-2.8-0.6-5.1
		c0,0,4.5,1.8,8.7,0.8c0,0-6.7-1.7-11.4-5.1c0,0,2.3,6.6,0.4,9c0,0-1.2,4.5-12.6,0.8c0,0-4.7-1.8-8.3-1.8c0,0-2.9,0.1-2.9,1.6
		c0,0,0,0.7,0.7,1c0,0,0.8,0.6,0.3,1.9c0,0,1.2-0.8,0.8-2.1c0,0-0.1-0.6,0.5-0.8c0,0,1.6-0.6,6,1c0,0,7.1,3.2,11.2,3.2
		c0,0,4.4-0.3,6-2.2C64,28.7,67.7,30.2,72.9,30.8"/>
	<path d="M21.9,19.3c1.5,0,2.7-1.3,2.7-1.3c3.1-3.4,7.5-3.6,7.5-3.6c5.7-0.4,12.8,5.2,12.8,5.2c-4.9-6.5-10.1-7-10.1-7
		c-1.3-0.2-1.8-1.6-1.8-1.6c-1.7-3-3.5-3.2-3.5-3.2c0.9,1.3,0.8,3,0.8,3c0,3.2-4.8,3.6-4.8,3.6c-1.9,3.7-3.5,3.5-3.5,3.5
		c-0.8,0-1.1-0.5-1.1-0.5c-0.2-0.3,0.1-0.6,0.1-0.6c0.5-0.3,1-0.7,1-0.7c3.2-2.5,3.3-5.3,3.3-5.3c-0.3-3.2-3.1-3.3-3.1-3.3
		c-1.3,0-1.8,0.8-1.8,0.8c-0.5,0.6-1.7,2.9-1.7,2.9c-0.9,1.6-1.8,1.3-1.8,1.3c-1,0.1-1.8-0.9-1.8-0.9l-0.1-0.1
		c-0.4-0.5-0.1-1.1-0.1-1.1c1.2-2,3.8-2.5,3.8-2.5c0.1,0,0.2-0.1,0.3-0.1c0,0,0.2-0.1,0.5-0.1l0,0C22.8,6.5,23,4.8,23,4.8
		c-1.1-0.6-2.2-0.6-2.2-0.6c-2,0.1-2.7,2.1-2.7,2.1l-0.5-0.5c0,0-0.2-0.3,0.1-0.6c0,0,1.5-1.9,7.1-2.7c0,0,4.6-0.8,10.6,0
		c0,0-3.7,3.9-8.1,2.2c0,0-0.1,1.4,3.8,2.1c0,0,4.1,0.4,9.2,5.4c0,0-1.4-3-5.8-6.4c0,0-0.4-0.2,0-0.6c0,0,1.9-2.2,4.5-2.2
		c0,0,13.4,0.7,20.8,8.5c0,0-0.3-1.3-1.4-3.2c0,0-0.2-0.2-0.1-0.4c0,0,0.1-0.3,1.4-0.1c0,0,4.7,0.8,15.8,4.8l11.9,4.2
		c0,0,4.1,1.5,6.5,2.6c0,0-4.6-0.2-7.1,1.1c0,0-0.1,0.1-0.1,0.2c0,0,0,0.1,0.2,0c0,0,3.9-1.1,7.7,0.6c0,0,3.9,1.6,6.9,4
		c0,0,2.1,1.8,3.4,3.3c0,0,3.1,2.9,6.6,4.9c0,0-2.9-2.7-5.2-5.3c0,0-3.4-4.1-5-5.4c0,0,11.7,5.5,22.4,11.5c1.9,1.1,8,4.6,8,4.6
		c5.9,3.7,11.8,6,11.8,6c5.3,2.4,9.7-0.1,9.7-0.1l0.2-0.1c2.9-1.5,3.5-1,3.5-1c1.4,0.5,1,2,1,2c1.2-1.3,1.1-2,1.1-2
		c0-2.2-2.4-2-2.4-2c-0.6,0.1-2.7,1.2-4,2l-0.4,0.2c-3.4,1.8-8.2,0.1-8.2,0.1c-6.4-2.5-11.9-6-11.9-6s-10.9-6.5-20.4-11.2
		c0,0-11.7-6.1-27.5-12.9c0,0-30-13.9-52.2-13.9c0,0-11.4-0.1-15.4,4.3c0,0-0.4,0.7-0.3,1.3c0,0,0,0.2-0.1,0.3c0,0-1.7,1.1-3.1,2.7
		c0,0-0.8,0.8-0.1,1.9c0,0,0.5,0.8,0.9,1.4l0,0c0.2,0.3,1.4,1.7,3.1,1.6c0,0,0.5,0,0.7,0.1c0,0,0.4,0.4,1,0.6h0.8c0,0,0.2,0,0.2-0.2
		c0,0,0-0.4-0.1-0.7c0,0-0.5-0.6-0.3-1.3c0,0,0.2-1.2,0.9-2.1c0,0,0.8-0.8,1.8-0.1c0,0,1.8,1.6,0.9,3.5c0,0-0.8,1.5-1.6,1.5
		c0,0-0.4,0.1-0.8-0.3l-0.6-0.1c0,0-0.2,0-0.2,0.1v0.4c0,0,0,0.2,0.1,0.4c0,0,0.2,0.3,0,0.6c0,0-0.5,0.5-0.3,1.2
		C19.7,17.3,20.2,19.3,21.9,19.3L21.9,19.3z M21.2,5.3c0,0-0.8,1.3-2.3,1.1C19,6.4,19.3,4.8,21.2,5.3L21.2,5.3z M16.9,6.7
		c0.6-0.2,0.6,0.1,0.6,0.1c0,0.3-0.3,0.4-0.3,0.4c-1.5,0.9-2.8,2.4-2.8,2.4C14.2,9.8,14,9.7,14,9.7c-0.3-0.2,0-0.6,0-0.6
		C15.2,7.8,16.9,6.7,16.9,6.7L16.9,6.7z"/>
	<path id="XMLID_10_" d="M47,13c-3.1,4.4-0.6,7.5-0.6,7.5c-8.4-0.3-10.8,2.1-10.8,2.1c-4.1,3.2-2.6,6.9-2.6,6.9
		c2.3,3.7,5.1,1.1,5.1,1.1c-3.9,0.8-3.8-2.7-3.8-2.7c0.8-6,8.6-5.7,8.6-5.7c6.7,0,17.1,1.9,17.1,1.9c-7.8-1.8-10.2-3.8-10.2-3.8
		C46.3,18.3,47,13,47,13"/>
	<path id="XMLID_9_" d="M108.9,77.2c0.3-1.1,0.4-2.3,0.4-4.4V61.2h-2.5v12.3c0,1.5-0.1,2.4-0.3,3.2c-0.7,3.4-3.3,4.7-7.1,4.7
		c-1.8,0-4-0.4-5.2-1.9c-1.1-1.2-1.3-2.9-1.3-5.8V61.2h-4.1V74c0,2.6,0.3,5,2.1,6.8c1.7,1.7,4.9,2.4,8.5,2.4
		C104.7,83.2,107.9,81.4,108.9,77.2"/>
	<path d="M137.8,82.8h4.9l-10.5-21.5h-2.6l-10.7,21.5h2.6l2.9-6h10.6L137.8,82.8L137.8,82.8z M129.8,65.3l4.5,9.9H125L129.8,65.3
		L129.8,65.3z"/>
	<path d="M39.8,82.8h4.9L34.1,61.2h-2.5L20.8,82.8h2.6l2.9-6H37L39.8,82.8L39.8,82.8z M31.8,65.3l4.5,9.9H27L31.8,65.3L31.8,65.3z"
		/>
	<path id="XMLID_4_" d="M67.1,83.2c2.6,0,6.1-0.5,8.5-1.6v-8.7h-4.1v7.8c-1.3,0.5-3.2,0.8-4.6,0.8c-5.5,0-9-3.7-9-9.2
		c0-6,4-9.7,9.8-9.7c2.6,0,5.2,1,7.2,2.5v-2.5c-2.2-1.1-5-1.7-7.5-1.7c-4,0-8.3,1.2-11.1,4.3c-1.8,2-3,4.7-3,7.4
		C53.1,80.8,59.9,83.2,67.1,83.2"/>
	<path d="M167.3,82.8h4.7l-6.3-8.7c2.2-0.8,4.7-2.8,4.7-6.1c0-1.8-0.5-3.2-1.4-4.2c-1.8-1.9-4.9-2.4-8-2.4h-7.8v21.5h4.1v-8.2h4.3
		L167.3,82.8L167.3,82.8z M160.3,62.7c3.3,0,5.9,1.4,5.9,5c0,1.8-0.7,3.2-1.7,4c-1,0.8-2.4,1.2-4.6,1.2h-2.6V62.7H160.3L160.3,62.7z
		"/>
	<path id="XMLID_1_" d="M3.4,87.2c3.7-1.8,5.3-5.7,5.3-9.6V61.2H4.6v13.5c0,1.9,0,3.8-0.2,5.7C4,83.9,2.8,86,0,88
		C1.1,88,2.3,87.7,3.4,87.2"/>
</g>
</svg>
