<?xml version="1.0" encoding="utf-8"?>
<!-- Generator: Adobe Illustrator 19.0.0, SVG Export Plug-In . SVG Version: 6.00 Build 0)  -->
<svg version="1.1" id="Слой_1" xmlns="http://www.w3.org/2000/svg" xmlns:xlink="http://www.w3.org/1999/xlink" x="0px" y="0px"
	 viewBox="0 0 170 50" enable-background="new 0 0 170 50" xml:space="preserve">
<g>
	<path id="XMLID_13_" d="M34.6,8.7H21.7l-9.9,11.8V0H0v49.3h11.8V38.8l3.3-4.3l7.3,14.8h12.1L22.4,24.8L34.6,8.7"/>
	<path id="XMLID_12_" d="M35.6,20h10.9v29.4H35.6V20z"/>
	<path id="XMLID_11_" d="M35.6,8.7h10.9v9.5H35.6V8.7z"/>
	<path id="XMLID_10_" d="M67,19.2c-2.8,0-5.3,0.7-7.3,1.9V20H48.9v29.4h10.9v-19c0-2.3,1.6-4.1,3.6-4.1s3.6,1,3.6,3.3
		c0,0.2,0,0.4,0,0.5v19.2h10.9V26.5C77.9,22.4,73,19.2,67,19.2"/>
	<path id="XMLID_9_" d="M158.6,22.2V20h-10.9v29.4h10.9V32.7c0-1,0.7-4.3,7.4-4.3v-9C166.1,19.4,161.1,19.8,158.6,22.2"/>
	<path d="M101.8,8.7v12.7c-2.3-1.2-4.9-2-7.6-2c-8.5,0-14.9,6.8-14.9,15.2s6.9,15.2,15.4,15.2c2.6,0,5-1.5,7.1-3v2.4h10.9V8.7H101.8
		L101.8,8.7z M95.8,43c-3.6,0-6.4-2.2-6.4-8.2s2.9-8.2,6.4-8.2c3.6,0,6.4,2.4,6.4,8.2C102.2,40.5,99.3,43,95.8,43L95.8,43z"/>
	<path d="M135,40.4c-1,1.6-2.7,2.7-4.6,2.7c-2.9,0-5.2-2.3-5.5-5.1h21c0.2-1.1,0.2-2.2,0.2-3.4c0-8.3-6.2-15.1-16-15.1
		s-16,6.7-16,15.1s6.1,15.1,16,15.1c9.2,0,13.6-3.9,15.2-9.3H135L135,40.4z M130.4,26.7c2.7,0,4.9,2,5.4,4.6H125
		C125.5,28.8,127.7,26.7,130.4,26.7L130.4,26.7z"/>
	<path id="Fill-9" d="M164.9,39.9c-2.8,0-5.1,2.3-5.1,5c0,2.8,2.3,5,5.1,5s5.1-2.3,5.1-5C170,42.2,167.7,39.9,164.9,39.9L164.9,39.9
		z M164.9,48.7c-2,0-3.7-1.7-3.7-3.8s1.7-3.8,3.7-3.8s3.7,1.7,3.7,3.8C168.6,47,167,48.7,164.9,48.7L164.9,48.7z"/>
	<path d="M167,43.9c0-2-2.8-1.6-2.8-1.6h-1.3v5.4h1.3v-1.9c0.1,0,0.3,0,0.6,0l1.2,1.9h1.3l-1.4-2.2C166.6,45.4,167,44.9,167,43.9
		L167,43.9z M164.2,44.6v-1.5c1.2,0,1.6,0.1,1.6,0.7C165.7,44.5,165.3,44.6,164.2,44.6L164.2,44.6z"/>
</g>
</svg>
