<?xml version="1.0" encoding="utf-8"?>
<!-- Generator: Adobe Illustrator 19.0.0, SVG Export Plug-In . SVG Version: 6.00 Build 0)  -->
<svg version="1.1" id="Слой_1" xmlns="http://www.w3.org/2000/svg" xmlns:xlink="http://www.w3.org/1999/xlink" x="0px" y="0px"
	 viewBox="0 0 146 80" enable-background="new 0 0 146 80" xml:space="preserve">
<g>
	<path fill-rule="evenodd" clip-rule="evenodd" d="M146,40c0,22.1-32.7,40-73,40C32.7,80,0,62.1,0,40C0,17.9,32.7,0,73,0
		C113.3,0,146,17.9,146,40L146,40z M73,3.1C34.3,3.1,2.9,19.6,2.9,40c0,20.4,31.4,36.9,70.1,36.9c38.7,0,70.1-16.5,70.1-36.9
		C143.1,19.6,111.7,3.1,73,3.1L73,3.1z"/>
	<path fill-rule="evenodd" clip-rule="evenodd" d="M141.3,40c0,19.3-30.6,34.9-68.3,34.9C35.3,74.9,4.7,59.3,4.7,40
		C4.7,20.7,35.3,5.1,73,5.1C110.7,5.1,141.3,20.7,141.3,40L141.3,40z M116.8,23.7h-11.7l-1.4,4.5h7.6l-8.7,3.3l-0.6,1.8l13.3-4.8
		L116.8,23.7L116.8,23.7z M42.1,31.5h-4.8c0,0,4.4-12.9,4.8-13.8c0.6-1.7,1-1.6,1-1.6h-6.6c0.8,0.4,0.1,2.1,0.1,2.1
		s-5.3,16-5.6,16.8c-0.4,0.8-0.6,0.9-0.6,0.9h11.4l1.6-4.8C43.2,31.6,42.1,31.5,42.1,31.5L42.1,31.5z M62.1,35.9h5.4
		c0,0-0.4-0.6-0.1-1.2c0.3-0.9,3.2-9.4,3.2-9.4l1.2,10.6h4.9L83,17c0,0,0.3-0.9,0.6-0.9l-5.2,0c0,0,0.1,0.7,0,1.2
		c-0.2,0.5-3.1,9.1-3.1,9.1l-1.1-10.2h-5.6c0,0,0.3,0.5,0.1,1.1c-0.2,0.4-5.9,17.7-5.9,17.7S62.4,35.9,62.1,35.9L62.1,35.9z
		 M86.7,16.1c0,0,0.5,0.8-0.1,2.7c-0.6,1.9-5.3,15.6-5.3,15.6s-0.4,1.3-0.9,1.5l7.4,0c0,0,8.9,0.4,11.7-9.9c0,0,3.5-10.1-6.6-10
		H86.7L86.7,16.1z M87.5,31.4c0,0,0,0,0.8,0c1.3,0,3.6-0.3,5.1-4.4c2.6-6.8-1-6.6-1-6.6h-1.4L87.5,31.4L87.5,31.4z M22.1,51.9h11.7
		l1.4-4.5h-7.6l8.7-3.3l0.6-1.8l-13.3,4.8L22.1,51.9L22.1,51.9z M42.6,60.1c-0.2,0-0.2-0.6-0.2-0.6l2.2-6.2c0,0,2.7,5.7,2.9,6.2
		c0.2,0.4,0.1,0.7,0.1,0.7H54c-0.6,0-1.2-1.3-1.2-1.3l-3.2-6.3c4.5,0,5.9-4.8,5.9-4.8c2.2-7.7-5.2-7.5-5.2-7.5h-7.6
		c0.6,0.7,0.1,2.1,0.1,2.1S38,57,37.7,58.2c-0.4,1.1-1,1.9-1,1.9S42.9,60.1,42.6,60.1L42.6,60.1z M47.2,44.8l-1.2,4h1.2
		c0,0,2.3,0.2,3.1-1.7c0,0,1-2.3-1.8-2.3C47.8,44.8,47.2,44.8,47.2,44.8L47.2,44.8z M109.1,60.2c-0.5,0-0.1-1.2-0.1-1.2l1.9-5.7
		c0,0,2.6,5.8,2.8,6.2c0.2,0.4,0.1,0.7,0.1,0.7h6.7c-0.6,0-1.3-1.3-1.3-1.3l-3.2-6.3c4.5,0,5.8-4.7,5.8-4.7c2.3-8.1-5.1-7.7-5.1-7.7
		H109c0.6,0.7,0.1,2.1,0.1,2.1s-4.9,14.8-5.3,15.9c-0.4,1.1-1.1,1.9-1.1,1.9L109.1,60.2L109.1,60.2z M113.5,48.9
		c0,0,2.3,0.2,2.9-1.7c0.8-2.3-1.2-2.2-1.2-2.2h-1.7l-1.2,3.9H113.5L113.5,48.9z M63.4,60.6c6.6,0,10.6-7.1,10.6-12.2
		c0-5.3-2-8.7-6.6-8.7c-5.9,0-9.7,4.9-10.7,10.9C55.8,56.2,58.6,60.6,63.4,60.6L63.4,60.6z M63.8,55.9c1.7,0.3,3.5-1,4.4-5.1
		c1.4-6.3-1.2-6.3-1.7-6.4c-1.5-0.2-3.4,1.7-4.2,5.5C61.9,51.6,61.5,55.4,63.8,55.9L63.8,55.9z M75.5,40.3c0,0,0.5,0.3,0.5,1.5
		c0,1.3,0,17.2,0,17.2s-0.1,0.9-0.4,1.1h4.9c0,0,0-0.4,0.5-1.1c0.5-0.7,10.7-15.6,10.7-15.6s2.3-3.1,2.9-3.1h-7.1
		c0,0,0.6,0.4,0.1,1.1c-0.4,0.7-6.7,11-6.7,11l0.1-10.3c0,0,0-1.7,0.6-1.8L75.5,40.3L75.5,40.3z M105.3,45l1.6-4.7l-11.9,0
		c0,0,0.4,0.4-0.1,2.1c-0.6,1.7-5.4,15.9-5.4,15.9s-0.9,1.9-1.1,1.9c-0.2,0,12.3,0,12.3,0l1.5-4.7c0,0-0.2,0.3-1.3,0.3
		c-1.2,0-5.2,0-5.2,0l1.1-3.2h4c0,0,0.9-0.1,1,0.2l1.7-5.1c0,0-0.1,0.5-1.2,0.5c-1.1,0-3.9,0-3.9,0l1.2-3.5h5
		C104.4,44.5,105.1,44.4,105.3,45L105.3,45z M43,35.9h5.9c0,0,0-0.5,0.1-0.8c0.3-0.6,1-2,1-2H56l0,1.7c0,0,0,0.6-0.4,1.1h5.9
		c0,0-0.4-0.3-0.5-1.1l-0.7-17.4c0,0,0-1.1,0.5-1.4h-5.8c0,0,0.4,0.6-0.4,1.8c-0.8,1.3-10.7,17.4-10.7,17.4S43.5,35.7,43,35.9
		L43,35.9z M55.9,22.8l-3.3,5.8h3.3L55.9,22.8L55.9,22.8z"/>
</g>
</svg>
