<svg xmlns="http://www.w3.org/2000/svg" viewBox="0 0 110 110">
	<path d="M81.1,63.7H77v14h4.2c3.6,0,4.2-3.2,4.2-7C85.3,66.9,84.8,63.7,81.1,63.7z"/>
	<path d="M13.4,48.6c0.9,0,1.4-0.3,1.7-0.9c0.7-1.1,0.8-3.4,0.8-7.5c0-4.1-0.1-6.4-0.8-7.5c-0.3-0.5-0.9-0.9-1.7-0.9
		s-1.4,0.3-1.7,0.9c-0.7,1.1-0.8,3.4-0.8,7.5c0,4.1,0.1,6.4,0.8,7.5C12,48.2,12.5,48.6,13.4,48.6z"/>
	<path d="M41.5,63.7h-4.2v13.2h4.2c3.6,0,4.2-3,4.2-6.6S45.1,63.7,41.5,63.7z"/>
	<path d="M98.7,47.7c0.7-1.1,0.8-3.4,0.8-7.5s-0.1-6.4-0.8-7.5c-0.3-0.5-0.9-0.9-1.7-0.9s-1.4,0.3-1.7,0.9
		c-0.7,1.1-0.8,3.4-0.8,7.5s0.1,6.4,0.8,7.5c0.3,0.5,0.8,0.9,1.7,0.9S98.4,48.2,98.7,47.7z"/>
	<path d="M110,33.9c0-6.5-4.2-10.7-10.7-10.7c-5.9,0-11.7-0.1-17.6,0.1c-2.1,0.1-2.9-0.6-3.2-2.7
		C77,8.4,67.2-0.1,55.2,0C43.4,0.1,33.7,8.8,32.3,20.6c-0.2,2-0.8,2.7-2.8,2.6c-6.3-0.1-12.6-0.1-18.8,0C4.2,23.3,0,27.6,0,34.1
		c0,21.7,0,43.3,0,65c0,6.8,4.1,10.9,10.8,10.9c14.8,0,29.5,0,44.3,0c14.8,0,29.5,0,44.3,0c6.4,0,10.6-4.1,10.6-10.7
		C110,77.5,110,55.7,110,33.9z M37.3,28.9h9.5v3.2h-5.9v6.4H46v3.2h-5.1v6.6h5.9v3.2h-9.5V28.9z M46,20.9c1.3-4.3,5.1-7.2,9.6-7.2
		c4.4,0,8.2,3.1,9.4,7.4c0.5,1.6,0.1,2.1-1.5,2.1c-2.7-0.1-5.4,0-8.1,0c-2.6,0-5.2-0.1-7.8,0C45.7,23.3,45.5,22.6,46,20.9z
		 M22.1,28.9h3.2l5.3,13.4V28.9h3.5v22.6H31l-5.3-13.4v13.4h-3.5V28.9z M9,30.6c1-1.1,2.2-1.9,4.4-1.9c2.2,0,3.4,0.8,4.4,1.9
		c1.7,1.9,1.6,5.2,1.6,9.6c0,4.4,0,7.7-1.6,9.6c-1,1.1-2.2,1.9-4.4,1.9c-2.2,0-3.4-0.8-4.4-1.9c-1.7-1.9-1.6-5.2-1.6-9.6
		C7.3,35.8,7.3,32.5,9,30.6z M26.7,63.7h-7.2v36.9h-6.8V63.7H5.6v-6.1h21.2V63.7z M46.7,100.6l-5.6-17.6h-3.8v17.6h-6.8v-43h10.9
		c7.9,0,11,3.8,11,12.7c0,5.3-1.1,9.1-5,11.2l6.4,19.1H46.7z M64.7,100.6h-6.8v-43h6.8V100.6z M66.1,32.1h-3.8v19.4h-3.5V32.1H55
		v-3.2h11.1V32.1z M55.6,8.4c-8.2,0-14.9,6.7-14.9,14.9c0,0.9-0.7,1.6-1.6,1.6s-1.6-0.7-1.6-1.6c0-10,8.1-18.1,18.1-18.1
		c7.8,0,14.6,4.9,17.1,12.2l3.1-0.8l-2.5,9.2L66.7,19l3-0.8C67.5,12.3,61.9,8.4,55.6,8.4z M71.3,28.9l2.2,17.1l3.1-17.1h3.9
		l3.1,17.1l2.2-17.1h3.9l-4.2,22.6h-3.7l-3.2-17.1l-3.2,17.1h-3.7l-4.3-22.6H71.3z M81,83.8h-4v16.8h-6.8v-43H81c7.8,0,11,4,11,13
		C92.1,79.3,89.2,83.8,81,83.8z M92.6,49.9C90.9,48,91,44.7,91,40.2c0-4.4,0-7.7,1.6-9.6c1-1.1,2.2-1.9,4.4-1.9
		c2.2,0,3.4,0.8,4.4,1.9c1.7,1.9,1.6,5.2,1.6,9.6s0,7.7-1.6,9.6c-1,1.1-2.2,1.9-4.4,1.9C94.8,51.8,93.6,50.9,92.6,49.9z M103.4,57.6
		v30.9H97V57.6H103.4z M100.2,100.8c-2.4,0-4.2-1.9-4.2-4.2s1.9-4.3,4.2-4.3s4.2,1.9,4.2,4.3C104.4,98.9,102.6,100.8,100.2,100.8z"
		/>
</svg>
