<?xml version="1.0" encoding="utf-8"?>
<!-- Generator: Adobe Illustrator 19.0.0, SVG Export Plug-In . SVG Version: 6.00 Build 0)  -->
<svg version="1.1" id="Слой_1" xmlns="http://www.w3.org/2000/svg" xmlns:xlink="http://www.w3.org/1999/xlink" x="0px" y="0px"
	 viewBox="0 0 48 48" enable-background="new 0 0 48 48" xml:space="preserve">
<path id="XMLID_14_" opacity="0.5" fill="#FF0000" d="M47.6,20.2c0-6.5-5.2-11.8-11.6-11.8c-2.8,0-5.4,1-7.4,2.7l-1.3-4.8
	c-0.4-1.3-1.7-2.1-3-1.8l-14,3.8C9,8.7,8.2,10,8.6,11.3l9.1,34.5c0.4,1.3,1.7,2.1,3,1.8l14-3.8c1.3-0.4,2.1-1.7,1.7-3L34,31.9
	c0.6,0.1,1.2,0.2,1.9,0.2C42.4,32,47.6,26.7,47.6,20.2z"/>
<g id="XMLID_10_">
	<polygon id="XMLID_60_" fill="#FFFFFF" points="6,12.3 20,8.5 26.8,34 12.8,37.8 	"/>
	<path id="XMLID_57_" fill="#0000FF" d="M19.3,9.8l6.3,23.5l-12,3.3L7.3,13L19.3,9.8 M20.7,7.3L4.8,11.6L12.1,39L28,34.7L20.7,7.3
		L20.7,7.3z"/>
</g>
<g id="XMLID_51_">
	<g id="XMLID_52_">
		<path id="XMLID_53_" fill="#0000FF" d="M19.1,2c1.1,0,2.1,0.7,2.4,1.9L30.8,39c0.4,1.3-0.4,2.7-1.8,3.1l-14.2,3.8
			C14.6,46,14.4,46,14.2,46c-1.1,0-2.1-0.7-2.4-1.9L2.5,9C2.1,7.7,2.9,6.3,4.3,5.9l14.2-3.8C18.6,2,18.9,2,19.1,2 M19.1,0L19.1,0
			c-0.4,0-0.8,0.1-1.2,0.2L3.7,4C1.3,4.6-0.1,7.1,0.5,9.5l9.3,35.1c0.5,2,2.3,3.4,4.3,3.4c0.4,0,0.8-0.1,1.2-0.2L29.5,44
			c2.4-0.6,3.8-3.1,3.2-5.5L23.4,3.4C22.9,1.4,21.1,0,19.1,0L19.1,0z"/>
	</g>
</g>
<line id="XMLID_11_" fill="#FFFFFF" stroke="#0000FF" stroke-width="2" stroke-linecap="round" stroke-linejoin="round" stroke-miterlimit="10" x1="10.2" y1="7.2" x2="13.8" y2="6.2"/>
<path id="XMLID_7_" fill="#0000FF" stroke="#0000FF" stroke-width="2" stroke-miterlimit="10" d="M27.6,26.4
	C26,27.9,22.5,28,22.5,28s2.4-3,1.9-3.5l0,0c-2.5-2.1-4.1-5.3-4.1-8.8c0-6.3,5.1-11.5,11.3-11.5s11.3,5.1,11.3,11.5
	c0,6.3-5.1,11.5-11.3,11.5C30.2,27.2,28.8,26.9,27.6,26.4L27.6,26.4z"/>
<path id="XMLID_6_" fill="#FFFFFF" stroke="#0000FF" stroke-width="2" stroke-linecap="round" stroke-linejoin="round" stroke-miterlimit="10" d="
	M39.4,2c3,1.3,5.4,3.8,6.4,7"/>
<path id="XMLID_5_" fill="#FFFFFF" d="M27.4,20.4c-0.2,0-0.5-0.1-0.6-0.3l-4.4-4.5L27,11c0.3-0.3,0.9-0.3,1.2,0s0.3,0.9,0,1.2
	l-3.4,3.4l3.2,3.2c0.3,0.3,0.3,0.9,0,1.2C27.8,20.3,27.6,20.4,27.4,20.4z"/>
<path id="XMLID_4_" fill="#FFFFFF" d="M35.4,20.4c-0.2,0-0.4-0.1-0.6-0.3c-0.3-0.3-0.3-0.9,0-1.2l3.2-3.2l-3.4-3.4
	c-0.3-0.3-0.3-0.9,0-1.2s0.9-0.3,1.2,0l4.6,4.6L36,20.2C35.9,20.3,35.7,20.4,35.4,20.4z"/>
<path id="XMLID_3_" fill="#FFFFFF" d="M30.2,20.4c-0.1,0-0.2,0-0.3,0c-0.5-0.1-0.7-0.6-0.6-1.1l2.5-7.8c0.1-0.5,0.6-0.7,1.1-0.6
	c0.5,0.1,0.7,0.6,0.6,1.1L31,19.8C30.9,20.2,30.6,20.4,30.2,20.4z"/>
<g id="XMLID_9_">
	<g id="XMLID_15_">
		<path id="XMLID_16_" fill="#0000FF" d="M21.4,38.6c0.7,0,1.4,0.5,1.6,1.2c0.2,0.9-0.3,1.8-1.2,2c-0.1,0-0.3,0.1-0.4,0.1
			c-0.7,0-1.4-0.5-1.6-1.2c-0.2-0.9,0.3-1.8,1.2-2C21.1,38.6,21.2,38.6,21.4,38.6 M21.4,37.6L21.4,37.6c-0.2,0-0.5,0-0.7,0.1
			c-1.4,0.4-2.2,1.8-1.9,3.2c0.3,1.2,1.4,2,2.5,2c0.2,0,0.5,0,0.7-0.1c1.4-0.4,2.2-1.8,1.9-3.2C23.6,38.4,22.6,37.6,21.4,37.6
			L21.4,37.6z"/>
	</g>
</g>
</svg>
