<?xml version="1.0" encoding="utf-8"?>
<!-- Generator: Adobe Illustrator 19.0.0, SVG Export Plug-In . SVG Version: 6.00 Build 0)  -->
<svg version="1.1" id="Слой_1" xmlns="http://www.w3.org/2000/svg" xmlns:xlink="http://www.w3.org/1999/xlink" x="0px" y="0px"
	 viewBox="0 0 48 48" enable-background="new 0 0 48 48" xml:space="preserve">
<circle id="XMLID_65_" opacity="0.5" fill="#FF0000" cx="33.8" cy="18.1" r="5.3"/>
<line id="XMLID_63_" fill="#FFFFFF" stroke="#0000FF" stroke-width="2" stroke-linecap="round" stroke-linejoin="round" stroke-miterlimit="10" x1="2.6" y1="45.8" x2="20.4" y2="45.8"/>
<polygon id="XMLID_62_" opacity="0.5" fill="#FF0000" points="27.7,8.6 6.3,14.3 14.2,41 26.2,41.1 36.4,41.1 "/>
<polygon id="XMLID_56_" fill="#FFFFFF" stroke="#0000FF" stroke-width="2" stroke-miterlimit="10" points="22.8,5.3 1.4,11 9.4,41 
	21.4,41.1 31.6,38.3 "/>
<polygon id="XMLID_55_" fill="#0000FF" stroke="#0000FF" stroke-width="2" stroke-linecap="round" stroke-linejoin="round" stroke-miterlimit="10" points="
	24.1,41.1 6,41.1 22.5,22.1 "/>
<polygon id="XMLID_54_" fill="#FFFFFF" stroke="#0000FF" stroke-width="2" stroke-linecap="round" stroke-linejoin="round" stroke-miterlimit="10" points="
	20.7,41.1 2.6,41.1 7.1,19.6 "/>
<line id="XMLID_22_" fill="#FFFFFF" stroke="#0000FF" stroke-width="2" stroke-linecap="round" stroke-linejoin="round" stroke-miterlimit="10" x1="40.6" y1="41.1" x2="45.5" y2="41.1"/>
<line id="XMLID_21_" fill="#FFFFFF" stroke="#0000FF" stroke-width="2" stroke-linecap="round" stroke-linejoin="round" stroke-miterlimit="10" x1="27.2" y1="21.8" x2="37.6" y2="18.8"/>
<line id="XMLID_20_" opacity="0.5" fill="none" stroke="#FF0000" stroke-width="2" stroke-miterlimit="10" x1="44" y1="4.3" x2="32.4" y2="41.1"/>
<line id="XMLID_19_" fill="#FFFFFF" stroke="#0000FF" stroke-width="2" stroke-linecap="round" stroke-linejoin="round" stroke-miterlimit="10" x1="2.6" y1="41.1" x2="37.6" y2="41"/>
<line id="XMLID_18_" fill="#FFFFFF" stroke="#0000FF" stroke-width="2" stroke-linecap="round" stroke-linejoin="round" stroke-miterlimit="10" x1="43" y1="2.2" x2="30.8" y2="41.1"/>
<line id="XMLID_17_" opacity="0.5" fill="none" stroke="#FF0000" stroke-width="2" stroke-miterlimit="10" x1="46.9" y1="18.4" x2="42.6" y2="31.9"/>
<line id="XMLID_8_" fill="#FFFFFF" stroke="#0000FF" stroke-width="2" stroke-linecap="round" stroke-linejoin="round" stroke-miterlimit="10" x1="45.7" y1="16.8" x2="41.4" y2="30.2"/>
<g id="XMLID_64_">
	<path id="XMLID_49_" fill="#FFFFFF" d="M31.2,18.1c-1.9,0-3.5-1.6-3.5-3.5s1.6-3.5,3.5-3.5s3.5,1.6,3.5,3.5S33.1,18.1,31.2,18.1z"
		/>
	<path id="XMLID_14_" fill="#0000FF" d="M31.2,12.1c1.4,0,2.5,1.1,2.5,2.5s-1.1,2.5-2.5,2.5c-1.4,0-2.5-1.1-2.5-2.5
		S29.8,12.1,31.2,12.1 M31.2,10.1c-2.5,0-4.5,2-4.5,4.5s2,4.5,4.5,4.5s4.5-2,4.5-4.5S33.7,10.1,31.2,10.1L31.2,10.1z"/>
</g>
</svg>
