<?xml version="1.0" encoding="utf-8"?>
<!-- Generator: Adobe Illustrator 19.0.0, SVG Export Plug-In . SVG Version: 6.00 Build 0)  -->
<svg version="1.1" id="Слой_1" xmlns="http://www.w3.org/2000/svg" xmlns:xlink="http://www.w3.org/1999/xlink" x="0px" y="0px"
	 viewBox="-935 517 48 48" enable-background="new -935 517 48 48" xml:space="preserve">
<path id="XMLID_65_" opacity="0.5" fill="#FF0000" enable-background="new    " d="M-893.1,530.7l-1.6-2.6c-0.2-0.3-0.6-0.5-1-0.4
	l-7.7,1.4l-3.1-5.2l-5.3,3.1l-3.3-2.6l-6.7,8.5l-4.9,2.9l1.1,1.9l-4,5.1l13.1,10.4l1.5,2.5l1.2,6.4c0,0.2,0.1,0.4,0.3,0.5l1.3,1.2
	c0.2,0.2,0.5,0.3,0.8,0.2l22.8-4.2c0.5-0.1,0.9-0.6,0.8-1.1L-893,531C-893,530.9-893,530.8-893.1,530.7z"/>
<rect id="XMLID_64_" x="-926.1" y="523.1" transform="matrix(-0.6207 0.784 -0.784 -0.6207 -1060.3364 1588.5054)" fill="#FFFFFF" stroke="#0000FF" stroke-width="2" stroke-linecap="round" stroke-linejoin="round" stroke-miterlimit="10" width="23.4" height="29.4"/>
<rect id="XMLID_63_" x="-924.5" y="522.8" transform="matrix(-0.8619 0.5071 -0.5071 -0.8619 -1426.8807 1463.6967)" fill="#FFFFFF" stroke="#0000FF" stroke-width="2" stroke-linecap="round" stroke-linejoin="round" stroke-miterlimit="10" width="23.4" height="29.4"/>
<path id="XMLID_62_" fill="#FFFFFF" stroke="#FFFFFF" stroke-linecap="round" stroke-linejoin="round" stroke-miterlimit="10" d="
	M-901.8,527.3"/>
<path id="XMLID_60_" fill="#FFFFFF" stroke="#FFFFFF" stroke-linecap="round" stroke-linejoin="round" stroke-miterlimit="10" d="
	M-918.4,530.3"/>
<path id="XMLID_59_" fill="#FFFFFF" stroke="#FFFFFF" stroke-linecap="round" stroke-linejoin="round" stroke-miterlimit="10" d="
	M-903.4,531.5"/>
<path id="XMLID_58_" fill="#FFFFFF" stroke="#FFFFFF" stroke-linecap="round" stroke-linejoin="round" stroke-miterlimit="10" d="
	M-914.9,533.6"/>
<polygon id="XMLID_57_" fill="#0000FF" points="-917.4,557.4 -915.5,559.1 -891.3,554.7 -896.7,525.9 -898.7,522.6 "/>
<rect id="XMLID_56_" x="-920.3" y="524.7" transform="matrix(-0.9838 0.1791 -0.1791 -0.9838 -1704.5905 1234.1132)" fill="#0000FF" stroke="#0000FF" stroke-width="2" stroke-linecap="round" stroke-linejoin="round" stroke-miterlimit="10" width="24.6" height="30.8"/>
<line id="XMLID_55_" fill="none" stroke="#FFFFFF" stroke-width="2" stroke-linecap="round" stroke-linejoin="round" stroke-miterlimit="10" x1="-918.4" y1="530.3" x2="-901.8" y2="527.3"/>
<line id="XMLID_54_" fill="none" stroke="#FFFFFF" stroke-width="2" stroke-linecap="round" stroke-linejoin="round" stroke-miterlimit="10" x1="-914.9" y1="533.6" x2="-903.4" y2="531.5"/>
<path id="XMLID_52_" display="none" fill="none" stroke="#FFFFFF" stroke-width="2" stroke-linecap="round" stroke-linejoin="round" stroke-miterlimit="10" d="
	M-1846.4,1065c0.7,3.8,4.3,6.3,8.1,5.7c3.8-0.7,6.3-4.3,5.7-8.1c-0.7-3.8-4.3-6.3-8.1-5.7l1.2,6.9L-1846.4,1065z"/>
<path id="XMLID_50_" fill="#FFFFFF" d="M-913.2,546.3c0.7,3.8,4.3,6.3,8.1,5.7c3.8-0.7,6.3-4.3,5.7-8.1c-0.7-3.8-4.3-6.3-8.1-5.7
	l1.2,6.9L-913.2,546.3z"/>
<path id="XMLID_49_" fill="none" stroke="#FFFFFF" stroke-width="2" stroke-linecap="round" stroke-linejoin="round" stroke-miterlimit="10" d="
	M-909.1,543.5l-1.2-6.9c-3.8,0.7-6.3,4.3-5.7,8.1L-909.1,543.5z"/>
</svg>
