<?xml version="1.0" encoding="utf-8"?>
<!-- Generator: Adobe Illustrator 19.0.0, SVG Export Plug-In . SVG Version: 6.00 Build 0)  -->
<svg version="1.1" xmlns="http://www.w3.org/2000/svg" xmlns:xlink="http://www.w3.org/1999/xlink" x="0px" y="0px"
	 viewBox="-655 361 48 48" style="enable-background:new -655 361 48 48;" xml:space="preserve">
<style type="text/css">
	.st0{opacity:0.5;}
	.st1{fill:none;stroke:#FF0000;stroke-width:2;stroke-linecap:round;stroke-linejoin:round;stroke-miterlimit:10;}
	.st2{fill:#FF0000;}
	.st3{fill:none;stroke:#111111;stroke-width:2;stroke-linecap:round;stroke-linejoin:round;stroke-miterlimit:10;}
	.st4{fill:none;stroke:#0000FF;stroke-width:2;stroke-miterlimit:10;}
	.st5{fill:#FFFFFF;stroke:#0000FF;stroke-width:2;stroke-miterlimit:10;}
	.st6{fill:none;stroke:#0000FF;stroke-width:2;stroke-linecap:round;stroke-linejoin:round;stroke-miterlimit:10;}
	.st7{fill:#7D7DFF;stroke:#0000FF;stroke-width:2;stroke-miterlimit:10;}
	.st8{fill:#222051;stroke:#0000FF;stroke-width:2;stroke-miterlimit:10;}
	.st9{fill:#0000FF;}
</style>
<g id="Слой_2" class="st0">
	<g>
		<line id="XMLID_54_" class="st1" x1="-622.6" y1="379.9" x2="-617.7" y2="378.4"/>
		<circle id="XMLID_53_" class="st2" cx="-627.6" cy="400.1" r="6.6"/>
		<circle id="XMLID_52_" class="st2" cx="-639.5" cy="374.4" r="2.6"/>
		<circle id="XMLID_50_" class="st2" cx="-615.1" cy="378.1" r="2.6"/>
		<circle id="XMLID_48_" class="st2" cx="-623.4" cy="380.9" r="2.6"/>
		<polyline id="XMLID_44_" class="st1" points="-624.5,382.4 -625.6,385.9 -627.7,393.1 		"/>
		<path id="XMLID_38_" class="st2" d="M-652.8,393.9c0-1.5,1.2-2.6,2.6-2.6c1.5,0,2.6,1.2,2.6,2.6s-1.2,2.6-2.6,2.6
			C-651.6,396.6-652.8,395.4-652.8,393.9"/>
		<path id="XMLID_32_" class="st1" d="M-649.9,387.2c-0.2-0.7-0.3-1.4-0.3-2.1c0-3.8,2.7-6.9,6.2-7.7"/>
	</g>
</g>
<g id="Слой_1">
	<path id="XMLID_56_" class="st3" d="M-654,392.4"/>
	<line id="XMLID_55_" class="st4" x1="-622.9" y1="378.1" x2="-619.2" y2="377"/>
	<line id="XMLID_51_" class="st4" x1="-644.9" y1="386.4" x2="-649.2" y2="390.7"/>
	<path id="XMLID_49_" class="st3" d="M-646.3,391.4"/>
	<circle id="XMLID_47_" class="st4" cx="-616.5" cy="376.4" r="2.6"/>
	<line id="XMLID_46_" class="st4" x1="-614.5" y1="378.1" x2="-611.8" y2="381.2"/>
	<circle id="XMLID_45_" class="st5" cx="-610.6" cy="383.6" r="2.6"/>
	<line id="XMLID_43_" class="st6" x1="-628.1" y1="388.1" x2="-628.8" y2="390.7"/>
	<line id="XMLID_42_" class="st6" x1="-626.1" y1="381.5" x2="-626.8" y2="383.9"/>
	<circle id="XMLID_41_" class="st5" cx="-625.4" cy="378.9" r="2.6"/>
	<circle id="XMLID_40_" class="st4" cx="-640.8" cy="372.6" r="2.6"/>
	<line id="XMLID_39_" class="st4" x1="-643.7" y1="386.5" x2="-641.2" y2="375.2"/>
	<line id="XMLID_37_" class="st4" x1="-615.1" y1="374" x2="-613.9" y2="369.4"/>
	<circle id="XMLID_36_" class="st5" cx="-613.3" cy="366.9" r="2.6"/>
	<circle id="XMLID_35_" class="st5" cx="-630.1" cy="397.4" r="6.6"/>
	<circle id="XMLID_34_" class="st7" cx="-643.2" cy="384.2" r="2.6"/>
	<polyline id="XMLID_33_" class="st8" points="-634.8,392.6 -636.4,391 -637.4,390 -638.6,388.9 -639.5,387.9 -641.4,386.1 	"/>
	<path id="XMLID_31_" class="st6" d="M-638.1,378.2c1.7,1.4,2.8,3.6,2.8,6c0,1.1-0.2,2.1-0.6,3"/>
	<path id="XMLID_30_" class="st6" d="M-650.7,386.4c-0.2-0.8-0.3-1.5-0.3-2.1c0-3.8,2.7-6.9,6.2-7.7"/>
	<path id="XMLID_27_" class="st4" d="M-654,392.4c0-1.5,1.2-2.6,2.6-2.6c1.5,0,2.6,1.2,2.6,2.6s-1.2,2.5-2.6,2.5
		C-652.8,394.9-654,393.9-654,392.4"/>
</g>
<g id="Слой_3">
	<circle id="XMLID_29_" class="st9" cx="-630.1" cy="397.4" r="2"/>
	<path id="XMLID_28_" class="st9" d="M-628.7,393c-0.5-0.2-1-0.2-1.5-0.2c-0.8,0-1.6,0.2-2.3,0.6l0.8,0.8c0.4-0.2,0.9-0.3,1.4-0.3
		c0.4,0,0.7,0.1,1.1,0.2c1.8,0.6,2.7,2.6,2.1,4.3c-0.5,1.4-1.8,2.3-3.2,2.3c-0.4,0-0.7-0.1-1.1-0.2c-1.8-0.6-2.7-2.6-2.1-4.3
		c0-0.1,0.1-0.3,0.2-0.4l-0.8-0.8c-0.2,0.3-0.3,0.6-0.4,0.9c-0.8,2.4,0.5,5,2.8,5.8c0.5,0.2,1,0.2,1.5,0.2c1.9,0,3.7-1.2,4.3-3.1
		C-625,396.4-626.3,393.9-628.7,393z"/>
</g>
</svg>
