<?xml version="1.0" encoding="utf-8"?>
<!-- Generator: Adobe Illustrator 19.0.0, SVG Export Plug-In . SVG Version: 6.00 Build 0)  -->
<svg version="1.1" id="Слой_1" xmlns="http://www.w3.org/2000/svg" xmlns:xlink="http://www.w3.org/1999/xlink" x="0px" y="0px"
	 viewBox="-935 517 48 48" enable-background="new -935 517 48 48" xml:space="preserve">
<g id="XMLID_13_" opacity="0.5" enable-background="new    ">
	<path id="XMLID_49_" fill="#FF0000" d="M-911.8,563.9h-14.7c-1.4,0-2.5-1.1-2.5-2.5l0.1-36.3c0-1.4,1.1-2.5,2.5-2.5h14.7
		c1.4,0,2.5,1.1,2.5,2.5l-0.1,36.3C-909.3,562.7-910.4,563.9-911.8,563.9z"/>
</g>
<line id="XMLID_12_" fill="none" stroke="#0000FF" stroke-width="2" stroke-linecap="round" stroke-linejoin="round" stroke-miterlimit="10" x1="-924.9" y1="522" x2="-921.1" y2="522"/>
<g id="XMLID_11_">
	<polygon id="XMLID_37_" fill="#FFFFFF" points="-931.3,524.7 -914.8,524.6 -914.9,552.9 -931.3,553 	"/>
	<g id="XMLID_32_">
		<path id="XMLID_33_" fill="#0000FF" d="M-915.3,525.1l-0.1,27.3h-15.4v-27.2L-915.3,525.1 M-914.3,524.1h-17.4l-0.1,29.4h17.4
			L-914.3,524.1L-914.3,524.1z"/>
	</g>
</g>
<g id="XMLID_10_">
	<g id="XMLID_39_">
		<path id="XMLID_40_" fill="#0000FF" d="M-922.7,555c0.9,0,1.6,0.7,1.6,1.6c0,0.9-0.7,1.6-1.6,1.6l0,0c-0.9,0-1.6-0.7-1.6-1.6
			C-924.3,555.7-923.6,555-922.7,555L-922.7,555 M-922.7,554L-922.7,554L-922.7,554c-1.5,0-2.6,1.2-2.6,2.6c0,0.7,0.3,1.4,0.8,1.9
			s1.2,0.8,1.9,0.8c1.5,0,2.6-1.2,2.6-2.6c0-0.7-0.3-1.4-0.8-1.9C-921.3,554.2-922,554-922.7,554L-922.7,554z"/>
	</g>
</g>
<path id="XMLID_9_" opacity="0.5" fill="#FF0000" enable-background="new    " d="M-892.5,537.1h-7.3c-1.3,0-2.4-1.1-2.4-2.4v-7.3
	c0-1.3,1.1-2.4,2.4-2.4h7.3c1.3,0,2.4,1.1,2.4,2.4v7.3C-890.1,536.1-891.1,537.1-892.5,537.1z"/>
<path id="XMLID_8_" opacity="0.5" fill="#FF0000" enable-background="new    " d="M-899.2,549.9h-10.5c-1.9,0-3.5-1.6-3.5-3.5v-10.5
	c0-1.9,1.6-3.5,3.5-3.5h10.5c1.9,0,3.5,1.6,3.5,3.5v10.5C-895.7,548.4-897.2,549.9-899.2,549.9z"/>
<path id="XMLID_7_" fill="#FFFFFF" stroke="#0000FF" stroke-width="2" stroke-linecap="round" stroke-linejoin="round" stroke-miterlimit="10" d="
	M-896,553.6h-7.3c-1.3,0-2.4-1.1-2.4-2.4v-7.3c0-1.3,1.1-2.4,2.4-2.4h7.3c1.3,0,2.4,1.1,2.4,2.4v7.3
	C-893.6,552.5-894.7,553.6-896,553.6z"/>
<g id="XMLID_6_">
	<g id="XMLID_43_">
		<path id="XMLID_44_" fill="#0000FF" d="M-915.7,519c1.4,0,2.5,1.1,2.5,2.5l-0.1,36.3c0,1.4-1.1,2.5-2.5,2.5h-14.7l0,0
			c-1.4,0-2.5-1.1-2.5-2.5l0.1-36.2c0-1.4,1.1-2.6,2.5-2.6H-915.7L-915.7,519 M-915.7,517L-915.7,517L-915.7,517h-14.7
			c-2.5,0-4.5,2-4.5,4.5l-0.1,36.4c0,1.2,0.5,2.4,1.3,3.2c0.8,0.8,2,1.3,3.2,1.3h14.7c2.5,0,4.5-2,4.5-4.5l0.1-36.3
			c0-1.2-0.5-2.4-1.3-3.2C-913.3,517.5-914.5,517-915.7,517L-915.7,517z"/>
	</g>
</g>
<path id="XMLID_5_" fill="#FFFFFF" stroke="#0000FF" stroke-width="2" stroke-linecap="round" stroke-linejoin="round" stroke-miterlimit="10" d="
	M-896.6,532.4h-6c-1.1,0-2-0.9-2-2v-6c0-1.1,0.9-2,2-2h6c1.1,0,2,0.9,2,2v6C-894.6,531.5-895.5,532.4-896.6,532.4z"/>
<path id="XMLID_4_" fill="#0000FF" stroke="#0000FF" stroke-width="2" stroke-miterlimit="10" d="M-903,546.3h-10.5
	c-1.9,0-3.5-1.6-3.5-3.5v-10.5c0-1.9,1.6-3.5,3.5-3.5h10.5c1.9,0,3.5,1.6,3.5,3.5v10.5C-899.5,544.7-901.1,546.3-903,546.3z"/>
<path id="XMLID_3_" fill="none" stroke="#FFFFFF" stroke-linecap="round" stroke-linejoin="round" stroke-miterlimit="10" d="
	M-904.3,543.3h-5.6c-1,0-1.8-0.8-1.8-1.8v-5.6c0-1,0.8-1.8,1.8-1.8h5.6c1,0,1.8,0.8,1.8,1.8v5.6
	C-902.5,542.5-903.3,543.3-904.3,543.3z"/>
<path id="XMLID_2_" fill="none" stroke="#FFFFFF" stroke-linecap="round" stroke-linejoin="round" stroke-miterlimit="10" d="
	M-906.5,541.2h-5.6c-1,0-1.8-0.8-1.8-1.8v-5.6c0-1,0.8-1.8,1.8-1.8h5.6c1,0,1.8,0.8,1.8,1.8v5.6
	C-904.7,540.3-905.5,541.2-906.5,541.2z"/>
<path id="XMLID_1_" fill="none" stroke="#FFFFFF" stroke-linecap="round" stroke-linejoin="round" stroke-miterlimit="10" d="
	M-904.7,534.1v5.2c0,1-0.8,1.8-1.8,1.8h-5.1l0,0V536c0-1,0.8-1.8,1.8-1.8L-904.7,534.1L-904.7,534.1z"/>
</svg>
