<?xml version="1.0" encoding="UTF-8" standalone="no"?>
<svg width="150px" height="199px" viewBox="0 0 150 199" version="1.1" xmlns="http://www.w3.org/2000/svg" xmlns:xlink="http://www.w3.org/1999/xlink" xmlns:sketch="http://www.bohemiancoding.com/sketch/ns">
    <!-- Generator: Sketch 3.3.2 (12043) - http://www.bohemiancoding.com/sketch -->
    <title>Imported Layers Copy 2</title>
    <desc>Created with Sketch.</desc>
    <defs></defs>
    <g id="Главная-страница" stroke="none" stroke-width="1" fill="none" fill-rule="evenodd" sketch:type="MSPage">
        <g id="Main-(1920x1080)" sketch:type="MSArtboardGroup" transform="translate(-885.000000, -2404.000000)" fill="#FFFFFF">
            <g id="Block-4-ЛУЧШИЕ-ПРОЕКТЫ" sketch:type="MSLayerGroup" transform="translate(0.000000, 2024.000000)">
                <g id="Group" transform="translate(640.000000, 280.000000)" sketch:type="MSShapeGroup">
                    <g id="Case-2">
                        <g id="Imported-Layers-Copy-2" transform="translate(245.000000, 100.000000)">
                            <path d="M75,173 C57.616921,173 44,165.879142 44,156.788502 C44,152.904671 46.5439853,149.183408 51.1632962,146.310367 C55.3826403,143.685919 61.2681999,141.804938 67.7358916,141.013834 C68.2683209,140.949316 68.8056736,141.112346 69.2084537,141.463614 C69.6114682,141.81465 69.8421642,142.319699 69.8421642,142.849953 L69.8421642,156.679353 C70.0763768,157.115026 71.872007,158.13576 75.0114879,158.13576 C78.1544855,158.13576 79.9545702,157.101614 80.1958163,156.655996 L80.1585392,155.312901 C80.1580703,155.296019 80.1578358,155.279138 80.1578358,155.262257 L80.1578358,142.849953 C80.1578358,142.319699 80.3885318,141.81465 80.7913118,141.463614 C81.1943264,141.112578 81.7288657,140.949316 82.2641084,141.013834 C88.7318001,141.804938 94.6175941,143.685919 98.8369383,146.310367 C103.456015,149.183408 106,152.904671 106,156.788502 C106,165.879142 92.3833134,173 75,173 L75,173 Z M66.0910108,144.986928 C55.3446599,146.750203 47.7511533,151.560188 47.7511533,156.788502 C47.7511533,159.84238 50.4824618,162.940657 55.244551,165.288762 C60.49007,167.875516 67.5061334,169.300012 75,169.300012 C82.4938666,169.300012 89.50993,167.875516 94.755449,165.288762 C99.5175382,162.940657 102.248847,159.84238 102.248847,156.788502 C102.248847,151.560188 94.6553401,146.750203 83.9089892,144.986928 L83.9089892,155.236588 L83.9483763,156.650678 C83.9488452,156.667559 83.9490796,156.68444 83.9490796,156.701321 C83.9490796,159.676343 80.190424,161.835748 75.0114879,161.835748 C69.8426331,161.835748 66.0910108,159.687674 66.0910108,156.728377 L66.0910108,144.986928 L66.0910108,144.986928 Z" id="Fill-1"></path>
                            <path d="M74.0056383,185.994302 L74.001636,185.994302 C44.4822912,185.994302 21.2016461,173.749368 21.0012939,158.104523 C20.9085339,150.868826 25.8059802,143.942879 34.7912239,138.591 C43.3428027,133.497759 55.0618771,130.142098 67.7895401,129.136653 C68.3129043,129.09406 68.8299119,129.277212 69.2157842,129.635471 C69.601421,129.99373 69.8206077,130.49941 69.8206077,131.027097 L69.8206077,157.30684 C70.0558038,157.752653 71.8589738,158.797141 75.0116372,158.797141 C78.167832,158.797141 79.9754752,157.738928 80.2177342,157.282941 L80.1803006,155.908589 C80.1798297,155.891315 80.1795943,155.874041 80.1795943,155.856767 L80.1795943,130.892927 C80.1795943,130.371393 80.3936015,129.872812 80.7714691,129.515026 C81.1491012,129.157477 81.6597522,128.974088 82.1751118,129.002957 C94.7709331,129.757099 106.406665,132.842765 114.939409,137.691803 C123.914058,142.792144 128.90709,149.549609 128.998673,156.719996 C129.099908,164.599328 123.407174,171.97795 112.970024,177.496417 C102.933344,182.803099 89.5787265,185.813989 75.3664324,185.998088 C74.9099307,186.004004 74.4595503,185.994302 74.0056383,185.994302 L74.0056383,185.994302 Z M66.0951072,133.172425 C54.7770056,134.305067 44.4689048,137.370375 36.8892121,141.879067 C29.1485286,146.483497 24.9266784,152.207633 25.0009639,157.997162 C25.0808734,164.231751 30.0413599,170.148541 38.9685014,174.679815 C48.275272,179.403979 60.7186691,181.994118 74.0061551,181.994118 L74.0103732,181.994118 C74.4460093,181.994118 74.8783646,182.003762 75.3165784,181.998352 C88.8819903,181.822869 101.571912,178.976797 111.04811,173.972942 C120.125931,169.179385 125.080559,163.047593 124.999009,156.701975 C124.925661,150.968901 120.631869,145.399078 112.908526,141.01553 C105.347347,136.724193 95.110016,133.903526 83.9048658,133 L83.9048658,155.772338 L83.9442347,157.210782 C83.9447034,157.227954 83.9449378,157.245126 83.9449378,157.262297 C83.9449378,160.288557 80.188016,162.485153 75.0114691,162.485153 C69.8449987,162.485153 66.0951072,160.300083 66.0951072,157.28982 L66.0951072,133.172425 L66.0951072,133.172425 Z" id="Fill-2" opacity="0.75"></path>
                            <path d="M73.7975605,199 C54.3302501,199 36.0137427,194.868683 22.2222709,187.367245 C8.03807762,179.652376 0.146856898,169.190603 0.0020005737,157.909258 C-0.136647622,147.096075 6.93556004,136.758438 19.9160663,128.800143 C32.4728103,121.101657 49.5260786,116.247446 67.9338684,115.131379 C68.4719062,115.096769 68.9991373,115.290356 69.391399,115.661148 C69.7838906,116.031478 70.0062336,116.548556 70.0062336,117.088938 L70.0062336,156.792499 C70.2977857,157.22905 72.0206562,158.168835 74.989751,158.168835 C77.9406813,158.168835 79.6642416,157.229973 79.9806262,156.780039 L79.8976213,155.549297 C79.8948621,155.505226 79.8932526,155.461156 79.8932526,155.417085 L79.8932526,116.96088 C79.8932526,116.426266 80.1105371,115.914957 80.4949811,115.545088 C80.8794252,115.17545 81.3926305,114.98094 81.9297485,115.001475 C120.456242,116.626544 149.719289,134.239499 149.997965,155.97085 C150.144891,167.429631 142.330237,178.21028 127.99291,186.32709 C114.023242,194.235776 95.4075948,198.732347 75.5753845,198.988694 C74.9807837,198.996308 74.3887122,199 73.7975605,199 L73.7975605,199 Z M66.1088174,119.166931 C49.1483524,120.468252 33.5601928,125.037862 22.021896,132.115811 C10.2812897,139.317576 3.88156047,148.44227 4.00166016,157.808368 C4.12704149,167.598479 11.2827328,176.846758 24.1501636,183.849543 C37.3627374,191.040009 54.9951178,195 73.7991017,195 C74.3729624,195 74.9475119,194.996541 75.5243579,194.989163 C94.6872631,194.741304 112.615644,190.427393 126.007105,182.841964 C139.026325,175.467505 146.125985,165.924793 145.998307,155.972362 C145.879356,146.689038 139.371927,137.79883 127.674722,130.938997 C116.16513,124.189836 100.64655,119.976913 83.7907992,119 L83.7907992,155.302334 L83.8828833,156.671211 C83.8858685,156.71525 83.887476,156.759288 83.887476,156.803326 C83.887476,159.836437 80.1453257,162.037892 74.989765,162.037892 C69.843849,162.037892 66.1088174,159.847504 66.1088174,156.830303 L66.1088174,119.166931 L66.1088174,119.166931 Z" id="Fill-3" opacity="0.5"></path>
                            <path d="M74.9913747,162 C69.7814391,162 66,159.837393 66,156.858076 L66,56.8624785 C66,56.2892911 66.2677397,55.7479991 66.7261819,55.3950535 C67.1846241,55.0423407 67.7820168,54.9168541 68.3467987,55.0549126 C70.6645311,55.6229781 72.7795093,55.8872217 75.0029539,55.8872217 C77.1980412,55.8872217 79.3000223,55.6262375 81.6184637,55.065622 C82.1823004,54.9291932 82.7785115,55.055611 83.2357721,55.4087895 C83.6925602,55.7617351 83.9595909,56.3023286 83.9595909,56.874352 L83.9595909,155.356194 L83.9992911,156.77985 C83.9997637,156.796846 84,156.813841 84,156.830837 C84,159.825985 80.2114716,162 74.9913747,162 L74.9913747,162 Z M69.7809665,156.808719 C70.0170406,157.24734 71.826942,158.27498 74.9913747,158.27498 C78.159352,158.27498 79.9737433,157.233837 80.2169067,156.785205 L80.1793333,155.433023 C80.1788607,155.416027 80.1786244,155.399032 80.1786244,155.382037 L80.1786244,59.1694299 C78.4318179,59.4695268 76.7462158,59.6122416 75.0029539,59.6122416 C73.2641819,59.6122416 71.5391159,59.4637064 69.7809665,59.1605829 L69.7809665,156.808719 L69.7809665,156.808719 Z" id="Fill-4"></path>
                            <path d="M74.9998827,59 C58.4578738,59 45,45.7664241 45,29.5001153 C45,13.2338066 58.4578738,0 74.9998827,0 C91.5421262,0 105,13.2338066 105,29.5001153 C105,45.7664241 91.5421262,59 74.9998827,59 L74.9998827,59 Z M74.9998827,3.69085926 C60.5274136,3.69085926 48.7534162,15.2688541 48.7534162,29.5001153 C48.7534162,43.7313766 60.5274136,55.3091407 74.9998827,55.3091407 C89.4723518,55.3091407 101.246584,43.7313766 101.246584,29.5001153 C101.246584,15.2688541 89.4723518,3.69085926 74.9998827,3.69085926 L74.9998827,3.69085926 Z" id="Fill-5"></path>
                            <path d="M87.9274767,16.6151946 C88.4162925,19.6126706 86.3824248,22.4387313 83.384905,22.9275399 C80.3873851,23.4161193 77.5612831,21.3822814 77.0724674,18.3848054 C76.5838808,15.3873294 78.6175193,12.5612687 81.6152683,12.0724601 C84.6127881,11.5838807 87.4388902,13.6177186 87.9274767,16.6151946" id="Fill-6" opacity="0.5"></path>
                            <path d="M137.106977,116 C136.905872,116 136.702686,115.967013 136.504586,115.898483 L82.2466214,97.1006852 C81.5006827,96.842131 81,96.1366241 81,95.3437709 L81,64.8585322 C81,64.2577943 81.2889443,63.6939928 81.7757577,63.3453047 C82.2625711,62.9966165 82.886922,62.9055534 83.4518659,63.1016179 L137.710061,81.8991836 C138.157578,82.0541303 138.528583,82.3756389 138.747256,82.7972704 L147.790751,100.239111 C148.108821,100.852625 148.061434,101.592978 147.668007,102.160264 L138.624512,115.203662 C138.271769,115.712872 137.699659,116 137.106977,116 L137.106977,116 Z M84.6984873,94.0187096 L136.389008,111.926784 L143.99356,100.958788 L135.807883,85.1718807 L84.6984873,67.4649817 L84.6984873,94.0187096 L84.6984873,94.0187096 Z" id="Fill-7"></path>
                            <path d="M127.526048,82 C127.319469,82 127.11289,81.9658656 126.914752,81.8978306 L82.2647994,66.5572309 C81.5078894,66.2972485 81,65.5872065 81,64.7890231 C81,63.9908396 81.5078894,63.2807977 82.2647994,63.0205815 L137.321327,44.102184 C138.112471,43.8300441 138.991078,44.1145752 139.470595,44.7998347 L148.662315,57.9270768 C149.062342,58.4987109 149.110646,59.2445237 148.787529,59.8624496 L139.608471,77.4161731 C139.38665,77.8407488 139.010071,78.164324 138.556112,78.3200329 L128.136876,81.8978306 C127.938972,81.9658656 127.732628,82 127.526048,82 L127.526048,82 Z M88.6335828,64.7887893 L127.526283,78.1512314 L136.627258,75.0258311 L144.934979,59.1386136 L137.205023,48.0989462 L88.6335828,64.7887893 L88.6335828,64.7887893 Z" id="Fill-8" opacity="0.501690765"></path>
                            <path d="M12.055204,116 C11.4539907,116 10.8736463,115.713027 10.5155914,115.20409 L1.33677117,102.160032 C0.937681831,101.592586 0.889612903,100.853096 1.21226092,100.239678 L10.3910812,82.7974509 C10.6131362,82.3760457 10.9894807,82.0547098 11.443439,81.8998463 L66.5128434,63.1014603 C67.0859188,62.9057332 67.7194907,62.9965153 68.213311,63.3450162 C68.7068968,63.6935171 69,64.257016 69,64.8574313 L69,95.3439485 C69,96.136376 68.4923452,96.8417363 67.7354355,97.0999196 L12.6660311,115.898538 C12.465314,115.967031 12.2589694,116 12.055204,116 L12.055204,116 Z M5.06434061,100.959202 L12.7835069,111.928971 L65.2482789,94.0195986 L65.2482789,67.4624815 L13.3729961,85.1705541 L5.06434061,100.959202 L5.06434061,100.959202 Z" id="Fill-9"></path>
                            <path d="M22.4695129,82 C22.2629338,82 22.0561202,81.9658837 21.8582169,81.8978849 L11.443439,78.319883 C10.9897152,78.164023 10.6129017,77.8406195 10.3910812,77.4162693 L1.21226092,59.8615806 C0.889612903,59.2446837 0.937681831,58.4999677 1.33677117,57.9291044 L10.5155914,44.8011182 C10.9951083,44.1152878 11.873011,43.8295056 12.6660311,44.1024358 L67.7354355,63.0217751 C68.4923452,63.2818532 69,63.9915183 69,64.7890444 C69,65.5865706 68.4923452,66.2964693 67.7354355,66.5563138 L23.0810435,81.8976512 C22.8829057,81.9658837 22.6760921,82 22.4695129,82 L22.4695129,82 Z M13.3729961,75.0281306 L22.4695129,78.1532741 L61.3685302,64.7890444 L12.7835069,48.0975441 L5.06434061,59.1378952 L13.3729961,75.0281306 L13.3729961,75.0281306 Z" id="Fill-10" opacity="0.501690765"></path>
                        </g>
                    </g>
                </g>
            </g>
        </g>
    </g>
</svg>