<?xml version="1.0" encoding="utf-8"?>
<!-- Generator: Adobe Illustrator 19.0.0, SVG Export Plug-In . SVG Version: 6.00 Build 0)  -->
<svg version="1.1" id="Слой_1" xmlns="http://www.w3.org/2000/svg" xmlns:xlink="http://www.w3.org/1999/xlink" x="0px" y="0px"
	 viewBox="0 0 48 48" enable-background="new 0 0 48 48" xml:space="preserve">
<path id="XMLID_22_" opacity="0.5" fill="#FF0000" d="M44.3,14.6h-6.4c-0.6,0-1.1-0.5-1.1-1.1V7.1c0-0.6,0.5-1.1,1.1-1.1h6.4
	c0.6,0,1.1,0.5,1.1,1.1v6.4C45.3,14.2,44.9,14.6,44.3,14.6z"/>
<path id="XMLID_21_" opacity="0.5" fill="#FF0000" d="M40,36.2h-5.8c-0.5,0-1-0.4-1-1v-5.8c0-0.5,0.4-1,1-1H40c0.5,0,1,0.4,1,1v5.8
	C40.9,35.7,40.5,36.2,40,36.2z"/>
<path id="XMLID_20_" fill="none" stroke="#0000FF" stroke-width="2" stroke-linecap="round" stroke-linejoin="round" stroke-miterlimit="10" d="
	M41.6,11.7h-6.4c-0.6,0-1.1-0.5-1.1-1.1V4.2c0-0.6,0.5-1.1,1.1-1.1h6.4c0.6,0,1.1,0.5,1.1,1.1v6.4C42.6,11.2,42.2,11.7,41.6,11.7z"
	/>
<path id="XMLID_19_" fill="none" stroke="#0000FF" stroke-width="2" stroke-miterlimit="10" d="M32.3,27.7H21.6
	c-1,0-1.8-0.8-1.8-1.8V15.2c0-1,0.8-1.8,1.8-1.8h10.7c1,0,1.8,0.8,1.8,1.8v10.7C34.1,26.9,33.3,27.7,32.3,27.7z"/>
<line id="XMLID_18_" fill="none" stroke="#0000FF" stroke-width="2" stroke-linecap="round" stroke-linejoin="round" stroke-miterlimit="10" x1="23.7" y1="17" x2="30.2" y2="23.4"/>
<line id="XMLID_17_" fill="none" stroke="#0000FF" stroke-width="2" stroke-linecap="round" stroke-linejoin="round" stroke-miterlimit="10" x1="30.2" y1="17" x2="23.7" y2="23.4"/>
<path id="XMLID_16_" fill="#FFFFFF" stroke="#FFFFFF" stroke-miterlimit="10" d="M35.1,32.6h-3.8c-1.1,0-2-0.9-2-2v-3.8
	c0-1.1,0.9-2,2-2h3.8c1.1,0,2,0.9,2,2v3.8C37.1,31.7,36.2,32.6,35.1,32.6z"/>
<path id="XMLID_15_" fill="#7D7DFF" stroke="#0000FF" stroke-width="2" stroke-miterlimit="10" d="M37.7,34.2h-5.8c-0.5,0-1-0.4-1-1
	v-5.8c0-0.5,0.4-1,1-1h5.8c0.5,0,1,0.4,1,1v5.8C38.7,33.7,38.2,34.2,37.7,34.2z"/>
<path id="XMLID_14_" opacity="0.5" fill="#FF0000" d="M27.3,45.9H8.9c-1.4,0-2.5-1.1-2.5-2.5V31.5c0-1.4,1.1-2.5,2.5-2.5h18.4
	c1.4,0,2.5,1.1,2.5,2.5v11.9C29.8,44.8,28.7,45.9,27.3,45.9z"/>
<g opacity="0.5">
	
		<path id="XMLID_13_" fill="none" stroke="#FF0000" stroke-width="2" stroke-linecap="round" stroke-linejoin="round" stroke-miterlimit="10" d="
		M17,13.2c-0.6,1-1.1,2.1-1.4,3.2"/>
	
		<path id="XMLID_12_" fill="none" stroke="#FF0000" stroke-width="2" stroke-linecap="round" stroke-linejoin="round" stroke-miterlimit="10" d="
		M21.5,8.3c-0.9,0.6-1.7,1.3-2.4,2.1"/>
	
		<path id="XMLID_11_" fill="none" stroke="#FF0000" stroke-width="2" stroke-linecap="round" stroke-linejoin="round" stroke-miterlimit="10" d="
		M28,6.1c-1.2,0.1-2.5,0.3-3.7,0.8"/>
</g>
<path id="XMLID_10_" fill="#0000FF" d="M23.5,43.5H5.1c-1.4,0-2.5-1.1-2.5-2.5V29.1c0-1.4,1.1-2.5,2.5-2.5h18.4
	c1.4,0,2.5,1.1,2.5,2.5V41C26,42.4,24.9,43.5,23.5,43.5z"/>
<g>
	
		<path id="XMLID_9_" fill="none" stroke="#0000FF" stroke-width="2" stroke-linecap="round" stroke-linejoin="round" stroke-miterlimit="10" d="
		M13.6,20c-0.1,1.4,0,2.8,0.2,4.2"/>
	
		<path id="XMLID_8_" fill="none" stroke="#0000FF" stroke-width="2" stroke-linecap="round" stroke-linejoin="round" stroke-miterlimit="10" d="
		M16,12.2c-0.6,1.1-1.1,2.3-1.5,3.5"/>
	
		<path id="XMLID_7_" fill="none" stroke="#0000FF" stroke-width="2" stroke-linecap="round" stroke-linejoin="round" stroke-miterlimit="10" d="
		M20.8,6.8c-0.9,0.6-1.8,1.4-2.6,2.3"/>
	
		<path id="XMLID_6_" fill="none" stroke="#0000FF" stroke-width="2" stroke-linecap="round" stroke-linejoin="round" stroke-miterlimit="10" d="
		M27.8,4.5c-1.3,0.1-2.7,0.3-4,0.8"/>
	
		<line id="XMLID_5_" fill="none" stroke="#0000FF" stroke-width="2" stroke-linecap="round" stroke-linejoin="round" stroke-miterlimit="10" x1="13.8" y1="24.2" x2="16.1" y2="21.6"/>
	
		<line id="XMLID_4_" fill="none" stroke="#0000FF" stroke-width="2" stroke-linecap="round" stroke-linejoin="round" stroke-miterlimit="10" x1="13.8" y1="24.2" x2="11.2" y2="21.9"/>
</g>
<ellipse id="XMLID_3_" fill="#FFFFFF" cx="13.7" cy="33.1" rx="2.6" ry="3.2"/>
<path id="XMLID_2_" fill="#FFFFFF" d="M13.6,40.3L10,39.9c-0.4,0-0.9-1.2-0.9-1.2s1.4-1.7,2.3-1.7c0.9,0,1.2,0.5,2.3,0.5
	s1.1-0.5,1.9-0.5s2.6,1.7,2.6,1.7l-0.1,0.8C18.1,39.9,13.6,40.3,13.6,40.3z"/>
<circle id="XMLID_1_" fill="none" stroke="#0000FF" stroke-width="2" stroke-linecap="round" stroke-linejoin="round" stroke-miterlimit="10" cx="13.6" cy="34.2" r="6.1"/>
</svg>
