<?xml version="1.0" encoding="UTF-8" standalone="no"?>
<svg width="157px" height="160px" viewBox="0 0 157 160" version="1.1" xmlns="http://www.w3.org/2000/svg" xmlns:xlink="http://www.w3.org/1999/xlink" xmlns:sketch="http://www.bohemiancoding.com/sketch/ns">
    <!-- Generator: Sketch 3.3.2 (12043) - http://www.bohemiancoding.com/sketch -->
    <title>Logo</title>
    <desc>Created with Sketch.</desc>
    <defs></defs>
    <g id="Главная-страница" stroke="none" stroke-width="1" fill="none" fill-rule="evenodd" sketch:type="MSPage">
        <g id="1920x1080" sketch:type="MSArtboardGroup" transform="translate(-883.000000, -2411.000000)" fill="#FFFFFF">
            <g id="Block-4" sketch:type="MSLayerGroup" transform="translate(0.000000, 2016.000000)">
                <g id="UHP" transform="translate(640.000000, 273.000000)" sketch:type="MSShapeGroup">
                    <g id="Logo" transform="translate(243.000000, 122.000000)">
                        <path d="M7.4207987,1.22598726 L7.4207987,36.4443312 C7.4207987,39.7044586 8.85622727,40.8784713 11.1408831,40.8784713 C13.4235,40.8784713 14.8589286,39.7044586 14.8589286,36.4443312 L14.8589286,1.22598726 L21.6435714,1.22598726 L21.6435714,35.9877707 C21.6435714,43.2927389 17.9897532,47.4659873 10.9441234,47.4659873 C3.89849351,47.4659873 0.244675325,43.2927389 0.244675325,35.9877707 L0.244675325,1.22598726 L7.4207987,1.22598726" id="Fill-1"></path>
                        <path d="M32.9322792,13.8129936 L32.9322792,46.8789809 L26.4738701,46.8789809 L26.4738701,1.22598726 L35.4769026,1.22598726 L42.8487662,28.5523567 L42.8487662,1.22598726 L49.2429481,1.22598726 L49.2429481,46.8789809 L41.8700649,46.8789809 L32.9322792,13.8129936" id="Fill-2"></path>
                        <path d="M54.3974416,1.22598726 L61.5745844,1.22598726 L61.5745844,46.8789809 L54.3974416,46.8789809 L54.3974416,1.22598726 Z" id="Fill-3"></path>
                        <path d="M66.2060844,12.1824204 C66.2060844,4.87847134 70.0566623,0.704203822 77.1022922,0.704203822 C84.1489416,0.704203822 87.9974805,4.87847134 87.9974805,12.1824204 L87.9974805,35.9225478 C87.9974805,38.4652229 87.5407532,40.6175796 86.6283182,42.3143949 C86.9535325,43.1612739 87.476526,43.2927389 88.6499481,43.2927389 L89.3034351,43.2927389 L89.3034351,49.6835669 L88.3247338,49.6835669 C85.1276429,49.6835669 83.1049935,48.5095541 82.1262922,46.5528662 C80.6898442,47.0736306 78.9944481,47.4007643 77.1022922,47.4007643 C70.0566623,47.4007643 66.2060844,43.2264968 66.2060844,35.9225478 L66.2060844,12.1824204 L66.2060844,12.1824204 Z M73.3832273,36.3780892 C73.3832273,39.6392357 74.8196753,40.8784713 77.1022922,40.8784713 C79.3859286,40.8784713 80.8203377,39.6392357 80.8203377,36.3780892 L80.8203377,11.7258599 C80.8203377,8.46573248 79.3859286,7.22649682 77.1022922,7.22649682 C74.8196753,7.22649682 73.3832273,8.46573248 73.3832273,11.7258599 L73.3832273,36.3780892 L73.3832273,36.3780892 Z" id="Fill-4"></path>
                        <path d="M99.4819286,1.22598726 L99.4819286,36.4443312 C99.4819286,39.7044586 100.917357,40.8784713 103.199974,40.8784713 C105.48463,40.8784713 106.920058,39.7044586 106.920058,36.4443312 L106.920058,1.22598726 L113.704701,1.22598726 L113.704701,35.9877707 C113.704701,43.2927389 110.050883,47.4659873 103.005253,47.4659873 C95.9586039,47.4659873 92.3058052,43.2927389 92.3058052,35.9877707 L92.3058052,1.22598726 L99.4819286,1.22598726" id="Fill-5"></path>
                        <path d="M125.77637,20.4657325 L135.62761,20.4657325 L135.62761,26.9870064 L125.77637,26.9870064 L125.77637,40.357707 L138.172234,40.357707 L138.172234,46.8789809 L118.599227,46.8789809 L118.599227,1.22598726 L138.172234,1.22598726 L138.172234,7.74726115 L125.77637,7.74726115 L125.77637,20.4657325" id="Fill-6"></path>
                        <path d="M7.74805195,102.929936 L0.570909091,102.929936 L0.570909091,57.2769427 L7.74805195,57.2769427 L7.74805195,76.8428025 L15.9028766,76.8428025 L15.9028766,57.2769427 L23.210513,57.2769427 L23.210513,102.929936 L15.9028766,102.929936 L15.9028766,83.3650955 L7.74805195,83.3650955 L7.74805195,102.929936" id="Fill-7"></path>
                        <path d="M27.8430325,68.2333758 C27.8430325,60.9294268 31.6925909,56.7551592 38.7382208,56.7551592 C45.7848701,56.7551592 49.6344286,60.9294268 49.6344286,68.2333758 L49.6344286,91.9735032 C49.6344286,99.2774522 45.7848701,103.45172 38.7382208,103.45172 C31.6925909,103.45172 27.8430325,99.2774522 27.8430325,91.9735032 L27.8430325,68.2333758 L27.8430325,68.2333758 Z M35.0201753,92.4290446 C35.0201753,95.6901911 36.4556039,96.9294268 38.7382208,96.9294268 C41.0218571,96.9294268 42.4572857,95.6901911 42.4572857,92.4290446 L42.4572857,67.7778344 C42.4572857,64.5166879 41.0218571,63.2774522 38.7382208,63.2774522 C36.4556039,63.2774522 35.0201753,64.5166879 35.0201753,67.7778344 L35.0201753,92.4290446 L35.0201753,92.4290446 Z" id="Fill-8"></path>
                        <path d="M53.6797273,68.2333758 C53.6797273,60.9294268 57.5303052,56.7551592 64.5759351,56.7551592 C71.6225844,56.7551592 75.4711234,60.9294268 75.4711234,68.2333758 L75.4711234,91.9735032 C75.4711234,99.2774522 71.6225844,103.45172 64.5759351,103.45172 C57.5303052,103.45172 53.6797273,99.2774522 53.6797273,91.9735032 L53.6797273,68.2333758 L53.6797273,68.2333758 Z M60.8568701,92.4290446 C60.8568701,95.6901911 62.2933182,96.9294268 64.5759351,96.9294268 C66.8595714,96.9294268 68.2939805,95.6901911 68.2939805,92.4290446 L68.2939805,67.7778344 C68.2939805,64.5166879 66.8595714,63.2774522 64.5759351,63.2774522 C62.2933182,63.2774522 60.8568701,64.5166879 60.8568701,67.7778344 L60.8568701,92.4290446 L60.8568701,92.4290446 Z" id="Fill-9"></path>
                        <path d="M89.5001948,84.7347771 L87.2818052,88.9080255 L87.2818052,102.929936 L80.1046623,102.929936 L80.1046623,57.2769427 L87.2818052,57.2769427 L87.2818052,77.1689172 L96.6763182,57.2769427 L103.853461,57.2769427 L93.8707078,77.6254777 L103.853461,102.929936 L96.4815974,102.929936 L89.5001948,84.7347771" id="Fill-10"></path>
                        <path d="M130.341604,102.929936 L123.100234,102.929936 L121.860545,94.6476433 L113.053253,94.6476433 L111.814584,102.929936 L105.224662,102.929936 L112.531279,57.2769427 L123.034987,57.2769427 L130.341604,102.929936 L130.341604,102.929936 Z M113.966708,88.451465 L120.881844,88.451465 L117.424786,65.364586 L113.966708,88.451465 L113.966708,88.451465 Z" id="Fill-11"></path>
                        <path d="M140.84837,102.929936 L133.671227,102.929936 L133.671227,57.2769427 L140.84837,57.2769427 L140.84837,76.8428025 L149.003195,76.8428025 L149.003195,57.2769427 L156.310831,57.2769427 L156.310831,102.929936 L149.003195,102.929936 L149.003195,83.3650955 L140.84837,83.3650955 L140.84837,102.929936" id="Fill-12"></path>
                        <path d="M21.8403312,124.610446 L21.8403312,130.545732 C21.8403312,137.850701 18.3170065,141.82828 11.1408831,141.82828 L7.74805195,141.82828 L7.74805195,158.980892 L0.570909091,158.980892 L0.570909091,113.327898 L11.1408831,113.327898 C18.3170065,113.327898 21.8403312,117.306497 21.8403312,124.610446 L21.8403312,124.610446 Z M7.74805195,119.849172 L7.74805195,135.305987 L11.1408831,135.305987 C13.4235,135.305987 14.6631883,134.263439 14.6631883,131.002293 L14.6631883,124.153885 C14.6631883,120.893758 13.4235,119.849172 11.1408831,119.849172 L7.74805195,119.849172 L7.74805195,119.849172 Z" id="Fill-13"></path>
                        <path d="M25.4941494,113.327898 L32.6712922,113.327898 L32.6712922,152.459618 L44.4799351,152.459618 L44.4799351,158.980892 L25.4941494,158.980892 L25.4941494,113.327898" id="Fill-14"></path>
                        <path d="M70.8375844,158.980892 L63.5962143,158.980892 L62.356526,150.698599 L53.5492338,150.698599 L52.3105649,158.980892 L45.7206429,158.980892 L53.0272597,113.327898 L63.5309675,113.327898 L70.8375844,158.980892 L70.8375844,158.980892 Z M54.4626883,144.50242 L61.3778247,144.50242 L57.9197468,121.415541 L54.4626883,144.50242 L54.4626883,144.50242 Z" id="Fill-15"></path>
                        <path d="M94.9799026,141.958726 L94.9799026,148.024459 C94.9799026,155.328408 91.3260844,159.502675 84.2804545,159.502675 C77.2338052,159.502675 73.579987,155.328408 73.579987,148.024459 L73.579987,124.284331 C73.579987,116.980382 77.2338052,112.806115 84.2804545,112.806115 C91.3260844,112.806115 94.9799026,116.980382 94.9799026,124.284331 L94.9799026,128.72051 L88.1942403,128.72051 L88.1942403,123.82879 C88.1942403,120.567643 86.7598312,119.328408 84.4751753,119.328408 C82.1925584,119.328408 80.7571299,120.567643 80.7571299,123.82879 L80.7571299,148.48 C80.7571299,151.741146 82.1925584,152.916178 84.4751753,152.916178 C86.7598312,152.916178 88.1942403,151.741146 88.1942403,148.48 L88.1942403,141.958726 L94.9799026,141.958726" id="Fill-16"></path>
                        <path d="M106.528578,132.567643 L116.379818,132.567643 L116.379818,139.088917 L106.528578,139.088917 L106.528578,152.459618 L118.924442,152.459618 L118.924442,158.980892 L99.3514351,158.980892 L99.3514351,113.327898 L118.924442,113.327898 L118.924442,119.849172 L106.528578,119.849172 L106.528578,132.567643" id="Fill-17"></path>
                        <path d="M133.01774,112.806115 C139.999143,112.806115 143.587714,116.980382 143.587714,124.284331 L143.587714,125.719236 L136.802052,125.719236 L136.802052,123.82879 C136.802052,120.567643 135.497117,119.328408 133.213481,119.328408 C130.930864,119.328408 129.624909,120.567643 129.624909,123.82879 C129.624909,133.219873 143.651942,134.979873 143.651942,148.024459 C143.651942,155.328408 139.999143,159.502675 132.952494,159.502675 C125.906864,159.502675 122.253045,155.328408 122.253045,148.024459 L122.253045,145.219873 L129.037688,145.219873 L129.037688,148.48 C129.037688,151.741146 130.473117,152.916178 132.757773,152.916178 C135.04039,152.916178 136.475818,151.741146 136.475818,148.48 C136.475818,139.088917 122.448786,137.328917 122.448786,124.284331 C122.448786,116.980382 126.037357,112.806115 133.01774,112.806115" id="Fill-18"></path>
                    </g>
                </g>
            </g>
        </g>
    </g>
</svg>