<?xml version="1.0" encoding="utf-8"?>
<!-- Generator: Adobe Illustrator 19.0.0, SVG Export Plug-In . SVG Version: 6.00 Build 0)  -->
<svg version="1.1" id="Слой_1" xmlns="http://www.w3.org/2000/svg" xmlns:xlink="http://www.w3.org/1999/xlink" x="0px" y="0px"
	 viewBox="0 0 154 120" enable-background="new 0 0 154 120" xml:space="preserve">
<path d="M147,37c2-0.3,3.6,1,3.9,3.2c0.4,2.6-1.6,5.2-5,5.7c-2,0.3-3.6-0.9-3.9-3.2
	C141.7,40.1,143.6,37.5,147,37L147,37z M154,61.1c0,0-3.7,15.1-10.8,16.1c-4.7,0.7-7.5-1.1-8.4-6.4c-1.7,4.1-4.3,8.2-8.1,8.7
	c-4.9,0.7-7.7-1.2-8.5-7c-0.5-3.6,0.6-10.5,2.4-18.6c-1.7,3.4-4.1,6.8-7.3,9c0,0.1,0.1,0.3,0.1,0.4c1.4,9.7-7.2,19.1-16.9,20.5
	c-5.4,0.8-8.2-2.1-8.2-2.1l-8,36.5c0,0-1.6,1.4-3.8,1.7c-2.3,0.3-3.8,0-3.8,0L82.4,77c-2.3,4.6-5.7,9.6-9.7,10.2
	c-4.3,0.6-7.2-1.3-8-7c-0.1-0.9-0.2-1.8-0.2-2.7c-2.5,5.4-6.4,11.8-11.2,12.5c-5.2,0.7-7.8-1.2-8.6-7c-0.1-0.9-0.2-1.9-0.2-2.8
	c-4.1,6.4-10.7,13.7-20,15c-12,1.7-22.4-6.2-24.3-19.9c-3.6-25.7,23.6-59.9,43-62.6c8.6-1.2,15.1,3.7,15.9,10
	c1,7.4-2.1,14.3-11.2,15.6c-2.9,0.4-6.5-0.5-6.5-0.5s-0.6-0.2-0.7-1.1c-0.1-0.9,0.4-1.2,0.4-1.2s10.6-3.2,9.6-10.4
	c-0.8-5.4-5.1-7.2-9.4-6.6C29.3,20.1,5.2,43.6,9.1,71c1.6,11.7,9.5,17.6,18.3,16.4c12.2-1.7,19.4-17.3,19.4-17.3l0.1,0
	c1.2-3,2.5-5,2.5-5s1.6-1.4,3.8-1.7c2.3-0.3,3.8,0,3.8,0s-6,9.8-4.9,17.3c0.3,2,1.1,2.8,2.7,2.5c5.4-0.8,11.4-14.4,11.4-14.4
	s0.1,0,0.2-0.1c1.4-3.8,3.1-6.5,3.1-6.5s1.6-1.4,3.8-1.7c2.3-0.3,3.8,0,3.8,0s-6,9.8-4.9,17.3c0.3,2,1.4,2.7,2.7,2.5
	c3.8-0.5,8.4-9.1,9.5-11.1l2.2-9.5c0,0,1.6-1.4,3.8-1.7c2.3-0.3,3.8,0,3.8,0l-2.2,8c0,0,5.5-9.4,11.2-10.2c4.1-0.6,7.3,0.1,9.1,3.3
	c6.5-4.1,11.3-16.9,11.3-16.9l0,0c5.2-19.5,12.4-40.5,12.4-40.5s1.6-1.4,3.8-1.7c2.3-0.3,3.8,0,3.8,0s-19.7,58.5-18.1,70.2
	c0.3,2,1.4,2.7,2.7,2.5c4.3-0.6,7.2-11.2,7.2-11.2l0.1,0c1.3-5.3,3.9-9.3,3.9-9.3s1.6-1.4,3.8-1.7c2.3-0.3,3.8,0,3.8,0
	s-6,9.8-4.9,17.3c0.3,2,1.6,3,2.7,2.8c4.8-0.7,7.3-10.4,7.3-10.4s0.6-0.5,1.3-0.3C153.8,60.4,154,61.1,154,61.1L154,61.1z
	 M105.9,65.6c-0.4-2.6-2-3.8-4.3-3.5c-6.3,0.9-11.1,9.2-11.6,11.7l-1,4.6c0,0,2.8,1,5.9,0.6C100.1,78.2,106.8,71.9,105.9,65.6
	L105.9,65.6z"/>
</svg>