<?xml version="1.0" encoding="utf-8"?>
<!-- Generator: Adobe Illustrator 19.0.0, SVG Export Plug-In . SVG Version: 6.00 Build 0)  -->
<svg version="1.1" id="Слой_1" xmlns="http://www.w3.org/2000/svg" xmlns:xlink="http://www.w3.org/1999/xlink" x="0px" y="0px"
	 viewBox="0 0 147 90" enable-background="new 0 0 147 90" xml:space="preserve">

				<path d="M13.1,87.5l8.9-9l-3-3l-5.6,5.6L3.3,70.9L0,74.3L13.1,87.5"/>
				<path d="M16.8,62.7L19,65l4.6-4.6l2.7,2.7l-4.6,4.6l2.8,2.9l5.7-5.7l2.7,2.7l-9,9.1L10.8,63.4l9-9.1
					l2.7,2.7L16.8,62.7"/>
				<path d="M45.9,54.4L37,51.8l0,0c1-2,0.6-4.6-1.2-6.5c-1.9-2-5.3-1.9-7.5,0.3h0l-6.6,6.7l13.1,13.2
					l3.3-3.4L27.5,51.6l2.1-2.2c1-1,2.5-1,3.4-0.1c0.9,0.9,0.9,2.5-0.1,3.4l-2,2L42.4,58L45.9,54.4"/>
				<path d="M42.6,36c-2.1,2.1-1.4,4.6,1.1,7.2c2.5,2.6,5.1,3.3,7.1,1.2c2.1-2.1,1.4-4.6-1.2-7.2
					C47.2,34.6,44.6,33.9,42.6,36L42.6,36z M39.9,33.4c4.1-4.1,9.5-3.7,13.4,0.1c3.8,3.9,4.2,9.3,0.1,13.5
					c-4.1,4.1-9.5,3.7-13.3-0.1C36.3,43,35.8,37.5,39.9,33.4L39.9,33.4z"/>
				<path d="M57.2,26.5L54.8,19l3.9-3.9l3.3,12.8l5.1,5.2l-3.3,3.4l-5.1-5.1l-12.1-3.9l3.7-3.7
					L57.2,26.5L57.2,26.5"/>
				<path d="M118.6,71.6l13.1-13.2l-3.5-3.5l-13.1,13.2L118.6,71.6"/>
				<path d="M68.4,21.1l10.2-4.9l-7.5,7.6l3,3.1l13.1-13.2L83,9.4l-9.9,4.8l0,0l4.9-9.8l-4.3-4.3
					L60.7,13.4l3,3.1l7.5-7.6l-4.9,10.3L68.4,21.1"/>
				<path d="M91.1,23l-2.2,2.3l5,5.1L91.3,33l-5-5.1l-2.9,2.9l6.1,6.2l-2.7,2.7l-9.4-9.5l13.1-13.2
					l9.4,9.5l-2.7,2.7L91.1,23"/>
				<path d="M103.8,56.8l8.9,9l3-3l-5.6-5.6l10.1-10.2l-3.3-3.3L103.8,56.8"/>
				<path d="M139.1,65.9l-4.2,14v0l9-9.1l3.1,3.1l-13.1,13.2l-4.1-4.1l3.6-14.4v0l-9,9l-3-3l13.1-13.2
					L139.1,65.9"/>
				<path d="M101.3,54.3l2.5-9v0c2,1,4.6,0.6,6.4-1.2c1.9-2,1.9-5.3-0.3-7.5l-7-7.1L89.7,42.6l3.3,3.3
					l10.6-10.7l2.6,2.6c1,1,1,2.5,0.1,3.4c-0.9,0.9-2.4,0.9-3.4-0.1l-2.4-2.4l-2.8,11.8L101.3,54.3"/>
				<path d="M37.7,90.2h-22l57.6-58l57.6,58h-22L73.4,54.3L37.7,90.2z"/>
				<path d="M13.1,87.5l8.9-9l-3-3l-5.6,5.6L3.3,70.9L0,74.3L13.1,87.5"/>
				<path d="M16.8,62.7L19,65l4.6-4.6l2.7,2.7l-4.6,4.6l2.8,2.9l5.7-5.7l2.7,2.7l-9,9.1L10.8,63.4
					l9-9.1l2.7,2.7L16.8,62.7"/>
				<path d="M45.9,54.4L37,51.8l0,0c1-2,0.6-4.6-1.2-6.5c-1.9-2-5.3-1.9-7.5,0.3h0l-6.6,6.7
					l13.1,13.2l3.3-3.4L27.5,51.6l2.1-2.2c1-1,2.5-1,3.4-0.1c0.9,0.9,0.9,2.5-0.1,3.4l-2,2L42.4,58L45.9,54.4"/>
				<path d="M42.6,36c-2.1,2.1-1.4,4.6,1.1,7.2c2.5,2.6,5.1,3.3,7.1,1.2c2.1-2.1,1.4-4.6-1.2-7.2
					C47.2,34.6,44.6,33.9,42.6,36L42.6,36z M39.9,33.4c4.1-4.1,9.5-3.7,13.4,0.1c3.8,3.9,4.2,9.3,0.1,13.5
					c-4.1,4.1-9.5,3.7-13.3-0.1C36.3,43,35.8,37.5,39.9,33.4L39.9,33.4z"/>
				<path d="M57.2,26.5L54.8,19l3.9-3.9l3.3,12.8l5.1,5.2l-3.3,3.4l-5.1-5.1l-12.1-3.9l3.7-3.7
					L57.2,26.5L57.2,26.5"/>
				<path d="M118.6,71.6l13.1-13.2l-3.5-3.5l-13.1,13.2L118.6,71.6"/>
				<path d="M68.4,21.1l10.2-4.9l-7.5,7.6l3,3.1l13.1-13.2L83,9.4l-9.9,4.8l0,0l4.9-9.8l-4.3-4.3
					L60.7,13.4l3,3.1l7.5-7.6l-4.9,10.3L68.4,21.1"/>
				<path d="M91.1,23l-2.2,2.3l5,5.1L91.3,33l-5-5.1l-2.9,2.9l6.1,6.2l-2.7,2.7l-9.4-9.5l13.1-13.2
					l9.4,9.5l-2.7,2.7L91.1,23"/>
				<path d="M103.8,56.8l8.9,9l3-3l-5.6-5.6l10.1-10.2l-3.3-3.3L103.8,56.8"/>
				<path d="M139.1,65.9l-4.2,14v0l9-9.1l3.1,3.1l-13.1,13.2l-4.1-4.1l3.6-14.4v0l-9,9l-3-3
					l13.1-13.2L139.1,65.9"/>
				<path d="M101.3,54.3l2.5-9v0c2,1,4.6,0.6,6.4-1.2c1.9-2,1.9-5.3-0.3-7.5l-7-7.1L89.7,42.6
					l3.3,3.3l10.6-10.7l2.6,2.6c1,1,1,2.5,0.1,3.4c-0.9,0.9-2.4,0.9-3.4-0.1l-2.4-2.4l-2.8,11.8L101.3,54.3"/>
				<path d="M37.7,90.2h-22l57.6-58l57.6,58h-22L73.4,54.3L37.7,90.2z"/>
</svg>
