<?xml version="1.0" encoding="utf-8"?>
<!-- Generator: Adobe Illustrator 16.0.2, SVG Export Plug-In . SVG Version: 6.00 Build 0)  -->
<!DOCTYPE svg PUBLIC "-//W3C//DTD SVG 1.1//EN" "http://www.w3.org/Graphics/SVG/1.1/DTD/svg11.dtd">
<svg version="1.1"
	 id="svg2" xmlns:dc="http://purl.org/dc/elements/1.1/" xmlns:cc="http://creativecommons.org/ns#" xmlns:rdf="http://www.w3.org/1999/02/22-rdf-syntax-ns#" xmlns:svg="http://www.w3.org/2000/svg" xmlns:sodipodi="http://sodipodi.sourceforge.net/DTD/sodipodi-0.dtd" xmlns:inkscape="http://www.inkscape.org/namespaces/inkscape" sodipodi:docname="MTS_plane_red.svg" inkscape:version="0.48.4 r9939"
	 xmlns="http://www.w3.org/2000/svg" xmlns:xlink="http://www.w3.org/1999/xlink" x="0px" y="0px" width="626.332px"
	 height="326.107px" viewBox="236.912 16.585 626.332 326.107" enable-background="new 236.912 16.585 626.332 326.107"
	 xml:space="preserve">
<sodipodi:namedview  inkscape:cy="177.16251" inkscape:cx="575.77543" inkscape:zoom="0.26905301" showgrid="false" id="namedview20" guidetolerance="10" gridtolerance="10" objecttolerance="10" borderopacity="1" bordercolor="#666666" pagecolor="#ffffff" inkscape:current-layer="svg2" inkscape:window-maximized="0" inkscape:window-y="100" inkscape:window-x="615" inkscape:window-height="738" inkscape:window-width="1018" inkscape:pageshadow="2" inkscape:pageopacity="0">
	</sodipodi:namedview>
<g id="g10" transform="matrix(1.25,0,0,-1.25,18.351687,356.5784)">
	<g id="g12">
		<g>
			<g id="g14">
				<g id="g20" transform="translate(374.0098,89.3281)">
					<path id="path22" inkscape:connector-curvature="0" d="M0,0c0-7.211-5.843-13.064-13.049-13.064h-104.466
						c-7.211,0-13.048,5.853-13.048,13.064v104.463c0,7.206,5.837,13.049,13.048,13.049h104.466c7.206,0,13.049-5.843,13.049-13.049
						V0z"/>
				</g>
				<g id="g24" transform="translate(308.7178,93.1611)">
					<path id="path26" inkscape:connector-curvature="0" fill="#FFFFFF" d="M0,0c-24.399,0-35.304,19.447-35.304,38.708
						c0,27.132,18.815,58.059,35.304,58.059c16.52,0,35.345-30.927,35.345-58.059C35.345,19.447,24.43,0,0,0"/>
				</g>
				<g id="g28" transform="translate(492.2598,157.5552)">
					<path id="path30" inkscape:connector-curvature="0" d="M0.001,0h18.841v-48.635h19.597V0h18.841l1.134,16.499
						H-1.129L0.001,0z"/>
				</g>
				<g id="g32" transform="translate(452.3154,115.458)">
					<path id="path34" inkscape:connector-curvature="0" d="M0,0l10.433,24.966h1.139l2.166-31.504h18.95
						l-4.325,65.134H10.043L-5.725,21.593h-1.139l-16.406,37.003h-18.058l-4.331-65.134h18.446l1.9,31.504h1.147L-12.464,0H0z"/>
				</g>
				<g id="g36" transform="translate(606.0605,125.1758)">
					<path id="path38" inkscape:connector-curvature="0" d="M0,0.001c0,0-7.795-1.005-16.711-1.005
						c-10.927,0-13.066,3.502-13.066,12.13v10.375c0,8.874,1.881,12.251,13.066,12.251c8.039,0,15.83-1.129,15.83-1.129l1.13,16.007
						c0,0-9.925,1.378-18.467,1.378c-22.736,0-31.025-7.507-31.025-25.757V8.371c0-20.12,10.045-25.756,30.9-25.756
						c8.413,0,19.598,1.378,19.598,1.378L0,0.001z"/>
				</g>
			</g>
		</g>
	</g>
</g>
</svg>
