<svg xmlns="http://www.w3.org/2000/svg" viewBox="0 0 108 110"><path d="M4.4-.1v24.4c0 2.3 1 3.1 2.6 3.1s2.6-.8 2.6-3.1V-.1h4.7V24c0 5.1-2.5 8-7.4 8s-7.4-2.9-7.4-8V-.1h4.9m17.7 8.7v22.9h-4.5V-.1h6.2l5.1 18.9V-.1h4.4v31.6h-5.1L22.1 8.6M36.9-.1h5v31.6h-5V-.1zm8.2 7.6c0-5.1 2.7-8 7.5-8 4.9 0 7.5 2.9 7.5 8v16.4c0 1.8-.3 3.3-.9 4.4.2.6.6.7 1.4.7h.5v4.4h-.7c-2.2 0-3.6-.8-4.3-2.2-1 .4-2.2.6-3.5.6-4.9 0-7.5-2.9-7.5-8V7.5zM50 24.2c0 2.3 1 3.1 2.6 3.1s2.6-.9 2.6-3.1v-17c0-2.3-1-3.1-2.6-3.1C51 4 50 4.9 50 7.2v17zM68.1-.1v24.4c0 2.3 1 3.1 2.6 3.1s2.6-.8 2.6-3.1V-.1H78V24c0 5.1-2.5 8-7.4 8s-7.4-2.9-7.4-8V-.1h4.9m18.2 13.3h6.8v4.5h-6.8V27h8.6v4.5H81.3V-.1h13.5v4.5h-8.6v8.8M4.6 70.3h-5V38.7h5v13.6h5.6V38.7h5.1v31.6h-5.1V56.8H4.6v13.5m13.9-24c0-5.1 2.7-8 7.5-8 4.9 0 7.5 2.9 7.5 8v16.4c0 5.1-2.7 8-7.5 8-4.9 0-7.5-2.9-7.5-8V46.3zm5 16.8c0 2.3 1 3.1 2.6 3.1s2.6-.9 2.6-3.1V46c0-2.3-1-3.1-2.6-3.1s-2.6.9-2.6 3.1v17.1zm12.9-16.8c0-5.1 2.7-8 7.5-8 4.9 0 7.5 2.9 7.5 8v16.4c0 5.1-2.7 8-7.5 8-4.9 0-7.5-2.9-7.5-8V46.3zm5 16.8c0 2.3 1 3.1 2.6 3.1s2.6-.9 2.6-3.1V46c0-2.3-1-3.1-2.6-3.1s-2.6.9-2.6 3.1v17.1zm19.8-5.4l-1.5 2.9v9.7h-5V38.7h5v13.8l6.5-13.8h5l-6.9 14.1 6.9 17.5H66l-4.8-12.6m28.3 12.6h-5l-.9-5.7h-6.1l-.9 5.7H72l5.1-31.6h7.3l5.1 31.6zm-11.4-10h4.8l-2.4-16-2.4 16zm18.6 10h-5V38.7h5v13.6h5.6V38.7h5.1v31.6h-5.1V56.8h-5.6v13.5M14.4 85.4v4.1c0 5.1-2.4 7.8-7.4 7.8H4.6v11.9h-5V77.5H7c4.9 0 7.4 2.8 7.4 7.9zm-9.8-3.3v10.7H7c1.6 0 2.4-.7 2.4-3V85c0-2.3-.9-3-2.4-3H4.6v.1zm12.3-4.6h5v27.1H30v4.5H16.9V77.5m31.4 31.7h-5l-.9-5.7h-6.1l-.9 5.7h-4.6L36 77.5h7.3l5 31.7zM37 99.1h4.8l-2.4-16-2.4 16zm28-1.7v4.2c0 5.1-2.5 8-7.4 8s-7.4-2.9-7.4-8V85.1c0-5.1 2.5-8 7.4-8s7.4 2.9 7.4 8v3.1h-4.7v-3.4c0-2.3-1-3.1-2.6-3.1s-2.6.9-2.6 3.1v17.1c0 2.3 1 3.1 2.6 3.1s2.6-.8 2.6-3.1v-4.5H65m8-6.5h6.8v4.5H73v9.3h8.6v4.5H68V77.5h13.5V82H73v8.9m18.3-13.7c4.8 0 7.3 2.9 7.3 8v1h-4.7v-1.3c0-2.3-.9-3.1-2.5-3.1s-2.5.9-2.5 3.1c0 6.5 9.7 7.7 9.7 16.8 0 5.1-2.5 8-7.4 8s-7.4-2.9-7.4-8v-1.9h4.7v2.3c0 2.3 1 3.1 2.6 3.1s2.6-.8 2.6-3.1c0-6.5-9.7-7.7-9.7-16.8 0-5.2 2.5-8.1 7.3-8.1"/></svg>
